<?xml version="1.0" encoding="UTF-8"?>
<!DOCTYPE X3D PUBLIC "ISO//Web3D//DTD X3D 3.0//EN" "http://www.web3d.org/specifications/x3d-3.0.dtd">
<X3D version="3.0" profile="Immersive" xmlns:xsd="http://www.w3.org/2001/XMLSchema-instance" xsd:noNamespaceSchemaLocation="http://www.web3d.org/specifications/x3d-3.0.xsd">
	<head>
		<meta name="filename" content=".chronox3d.x3d" />
		<meta name="generator" content="Blender 4.0.2" />
	</head>
	<Scene>
		<NavigationInfo headlight="true"
		                visibilityLimit="0.0"
		                type='"EXAMINE", "ANY"'
		                avatarSize="0.25, 1.75, 0.75"
		                />
		<Background DEF="WO_World"
		            groundColor="0.051 0.051 0.051"
		            skyColor="0.051 0.051 0.051"
		            />
		<Transform DEF="Chrono_TRANSFORM"
		           translation="0.000000 0.000000 0.000000"
		           scale="1.000000 1.000000 1.000000"
		           rotation="-1.000000 -0.000000 -0.000000 1.570796"
		           >
			<Transform DEF="Chrono_ifs_TRANSFORM"
			           translation="0.000000 0.000000 0.000000"
			           scale="1.000000 1.000000 1.000000"
			           rotation="0.000000 1.000000 0.000000 0.000000"
			           >
				<Group DEF="group_ME_Chrono">
					<Shape>
						<Appearance>
							<Material DEF="MA_chronometre"
							          diffuseColor="0.800 0.800 0.800"
							          specularColor="0.401 0.401 0.401"
							          emissiveColor="0.000 0.000 0.000"
							          ambientIntensity="0.000"
							          shininess="0.500"
							          transparency="0.0"
							          />
						</Appearance>
						<IndexedFaceSet solid="false"
						                normalPerVertex="true"
						                colorPerVertex="false"
						                texCoordIndex="0 1 2 3 -1 "
						                coordIndex="0 1 3 2 -1 "
						                >
							<Coordinate DEF="coords_ME_Chrono"
							            point="-100.000000 -100.000000 -30.000000 100.000000 -100.000000 -30.000000 -100.000000 100.000000 -30.000000 100.000000 100.000000 -30.000000 67.132538 115.821709 -22.538532 59.632538 102.831322 -6.143644 63.818401 117.735123 -21.777327 61.751892 101.607719 -6.630426 61.008812 119.357239 -19.609598 63.548592 100.570389 -8.016663 59.131504 120.441101 -16.365366 64.749107 99.877274 -10.091314 58.472282 120.821701 -12.538531 65.170677 99.633881 -12.538531 59.131504 120.441101 -8.711697 64.749107 99.877274 -14.985748 61.008812 119.357239 -5.467463 63.548592 100.570389 -17.060400 63.818401 117.735123 -3.299736 61.751892 101.607719 -18.446638 67.132538 115.821709 -2.538531 59.632538 102.831322 -18.933420 70.446671 113.908287 -3.299736 57.513187 104.054932 -18.446638 73.256264 112.286171 -5.467463 55.716484 105.092255 -17.060400 75.133568 111.202309 -8.711697 54.515968 105.785378 -14.985748 75.792793 110.821709 -12.538531 54.094402 106.028770 -12.538531 75.133568 111.202309 -16.365366 54.515968 105.785378 -10.091314 73.256264 112.286171 -19.609598 55.716484 105.092255 -8.016663 70.446671 113.908287 -21.777327 57.513187 104.054932 -6.630426 56.318401 104.744743 -21.777327 59.632538 102.831322 -22.538532 53.508812 106.366859 -19.609600 51.631508 107.450722 -16.365366 50.972282 107.831322 -12.538531 51.631508 107.450722 -8.711697 53.508812 106.366859 -5.467464 56.318401 104.744743 -3.299736 59.632538 102.831322 -2.538531 62.946674 100.917908 -3.299736 65.756264 99.295792 -5.467464 67.633568 98.211929 -8.711697 68.292793 97.831329 -12.538531 67.633568 98.211929 -16.365366 65.756264 99.295792 -19.609600 62.946674 100.917908 -21.777327 51.733582 84.255486 -6.630427 49.614227 85.479095 -6.143645 53.530281 83.218155 -8.016665 54.730797 82.525040 -10.091315 55.152363 82.281647 -12.538532 54.730797 82.525040 -14.985749 53.530281 83.218155 -17.060402 51.733582 84.255486 -18.446638 49.614227 85.479095 -18.933420 47.494873 86.702698 -18.446638 45.698174 87.740028 -17.060402 44.497658 88.433144 -14.985749 44.076092 88.676537 -12.538532 44.497658 88.433144 -10.091315 45.698174 87.740028 -8.016665 47.494873 86.702698 -6.630427 67.132538 115.821709 -12.538531 1.000000 1.000000 -0.000001 -1.000000 1.000000 -0.000001 1.000000 -1.000000 -0.000001 -1.000000 -1.000000 -0.000001 0.000008 -100.000008 -30.000000 0.000008 -100.000008 -0.000001 -19.509018 -98.078514 -30.000000 -19.509018 -98.078514 -0.000001 -38.268326 -92.387962 -30.000000 -38.268326 -92.387962 0.000000 -55.557014 -83.146965 -30.000000 -55.557014 -83.146965 0.000000 -70.710678 -70.710686 -30.000000 -70.710678 -70.710686 -0.000001 -83.146942 -55.557014 -30.000000 -83.146942 -55.557014 -0.000001 -92.387939 -38.268364 -30.000000 -92.387939 -38.268364 0.000000 -98.078522 -19.509056 -30.000000 -98.078522 -19.509056 -0.000001 -100.000000 -0.000023 -30.000000 -100.000000 -0.000023 -0.000001 -98.078522 19.509010 -30.000004 -98.078522 19.509010 -0.000001 -92.387939 38.268326 -30.000000 -92.387939 38.268326 0.000000 -83.146957 55.557011 -30.000000 -83.146957 55.557018 0.000000 -70.710693 70.710670 -30.000000 -70.710693 70.710670 -0.000001 -55.557030 83.146942 -30.000000 -55.557030 83.146942 -0.000001 -38.268349 92.387939 -30.000004 -38.268349 92.387939 -0.000001 -19.509041 98.078522 -30.000000 -19.509041 98.078522 0.000000 -0.000015 100.000000 -30.000000 -0.000015 100.000000 -0.000001 19.509018 98.078522 -30.000000 19.509018 98.078522 0.000000 38.268330 92.387947 -30.000000 38.268330 92.387947 -0.000001 55.557014 83.146957 -30.000000 55.557014 83.146957 -0.000001 70.710670 70.710686 -30.000000 70.710670 70.710686 0.000000 83.146950 55.557030 -30.000000 83.146950 55.557030 -0.000001 92.387939 38.268349 -30.000000 92.387939 38.268349 -0.000001 98.078514 19.509041 -30.000000 98.078514 19.509041 -0.000001 100.000000 0.000008 -30.000000 100.000000 0.000008 -0.000001 98.078522 -19.509026 -30.000000 98.078522 -19.509026 0.000000 92.387955 -38.268333 -30.000000 92.387955 -38.268333 -0.000001 83.146957 -55.557014 -30.000000 83.146957 -55.557014 -0.000001 70.710686 -70.710655 -30.000000 70.710686 -70.710655 -0.000001 55.557037 -83.146935 -30.000000 55.557037 -83.146935 -0.000001 38.268349 -92.387947 -30.000000 38.268349 -92.387947 -0.000001 19.509045 -98.078514 -30.000000 19.509045 -98.078514 -0.000001 0.000000 0.000000 -0.000001 -68.425766 115.821686 -24.027460 -60.925751 102.831306 -7.632572 -71.739899 113.908264 -23.266254 -58.806396 104.054916 -8.119354 -74.549484 112.286148 -21.098526 -57.009705 105.092239 -9.505591 -76.426788 111.202286 -17.854294 -55.809189 105.785362 -11.580243 -77.086029 110.821686 -14.027459 -55.387619 106.028748 -14.027460 -76.426788 111.202286 -10.200625 -55.809189 105.785362 -16.474678 -74.549484 112.286148 -6.956392 -57.009705 105.092239 -18.549328 -71.739899 113.908264 -4.788665 -58.806412 104.054916 -19.935566 -68.425766 115.821686 -4.027460 -60.925751 102.831306 -20.422348 -65.111618 117.735107 -4.788664 -63.045105 101.607697 -19.935566 -62.302032 119.357224 -6.956392 -64.841827 100.570374 -18.549330 -60.424728 120.441086 -10.200624 -66.042328 99.877258 -16.474678 -59.765511 120.821686 -14.027460 -66.463898 99.633865 -14.027460 -60.424728 120.441086 -17.854294 -66.042328 99.877258 -11.580243 -62.302032 119.357224 -21.098526 -64.841812 100.570374 -9.505591 -65.111618 117.735107 -23.266254 -63.045105 101.607697 -8.119354 -64.239899 100.917892 -23.266254 -60.925751 102.831306 -24.027460 -67.049484 99.295776 -21.098526 -68.926788 98.211914 -17.854296 -69.586014 97.831306 -14.027460 -68.926788 98.211914 -10.200626 -67.049484 99.295776 -6.956392 -64.239899 100.917892 -4.788665 -60.925751 102.831306 -4.027460 -57.611633 104.744720 -4.788665 -54.802032 106.366844 -6.956393 -52.924728 107.450706 -10.200625 -52.265503 107.831314 -14.027460 -52.924728 107.450706 -17.854294 -54.802032 106.366844 -21.098528 -57.611633 104.744720 -23.266254 -48.788094 86.702682 -8.119355 -50.907440 85.479080 -7.632573 -46.991394 87.740021 -9.505592 -45.790871 88.433136 -11.580244 -45.369308 88.676521 -14.027461 -45.790871 88.433136 -16.474678 -46.991394 87.740021 -18.549330 -48.788094 86.702682 -19.935566 -50.907440 85.479080 -20.422348 -53.026794 84.255470 -19.935566 -54.823486 83.218147 -18.549330 -56.024017 82.525024 -16.474678 -56.445572 82.281631 -14.027461 -56.024017 82.525024 -11.580244 -54.823486 83.218147 -9.505592 -53.026794 84.255470 -8.119355 -68.425766 115.821686 -14.027460 "
							            />
							<Normal DEF="normals_ME_Chrono"
							        vector="0.000000 0.000000 1.000000 0.000000 0.000000 1.000000 0.000000 0.000000 1.000000 0.000000 0.000000 1.000000 0.332860 0.576530 -0.746202 -0.376884 -0.652781 0.657142 0.085558 0.719309 -0.689402 -0.159098 -0.778520 0.607120 -0.124094 0.840352 -0.527646 0.025532 -0.885116 0.464669 -0.264180 0.921230 -0.285558 0.148898 -0.956341 0.251476 -0.313371 0.949631 -0.000001 0.192217 -0.981352 -0.000000 -0.264180 0.921231 0.285557 0.148898 -0.956341 -0.251477 -0.124095 0.840352 0.527646 0.025532 -0.885116 -0.464669 0.085558 0.719309 0.689402 -0.159098 -0.778520 -0.607119 0.332860 0.576530 0.746202 -0.376884 -0.652781 -0.657142 0.580162 0.433749 0.689401 -0.594669 -0.527043 -0.607120 0.789813 0.312707 0.527645 -0.779299 -0.420446 -0.464669 0.929898 0.231829 0.285560 -0.902664 -0.349222 -0.251477 0.979090 0.203428 0.000000 -0.945984 -0.324212 -0.000001 0.929899 0.231829 -0.285559 -0.902665 -0.349222 0.251476 0.789813 0.312707 -0.527645 -0.779299 -0.420447 0.464669 0.580161 0.433749 -0.689402 -0.594669 -0.527043 0.607120 -0.580161 -0.433749 -0.689402 -0.332859 -0.576530 -0.746203 -0.789813 -0.312707 -0.527645 -0.929899 -0.231829 -0.285559 -0.979090 -0.203428 -0.000001 -0.929899 -0.231829 0.285558 -0.789813 -0.312707 0.527645 -0.580161 -0.433749 0.689402 -0.332859 -0.576529 0.746203 -0.085558 -0.719309 0.689402 0.124095 -0.840352 0.527645 0.264180 -0.921230 0.285558 0.313372 -0.949630 -0.000000 0.264180 -0.921230 -0.285559 0.124095 -0.840352 -0.527645 -0.085558 -0.719309 -0.689401 0.331414 -0.191342 0.923879 -0.000000 0.000000 1.000000 0.612373 -0.353553 0.707107 0.800103 -0.461939 0.382684 0.866026 -0.500000 -0.000000 0.800103 -0.461939 -0.382684 0.612373 -0.353553 -0.707107 0.331414 -0.191342 -0.923880 -0.000000 0.000000 -1.000000 -0.331413 0.191342 -0.923880 -0.612373 0.353553 -0.707107 -0.800103 0.461940 -0.382684 -0.866026 0.500000 -0.000000 -0.800103 0.461939 0.382684 -0.612372 0.353553 0.707107 -0.331414 0.191342 0.923880 0.500000 0.866026 -0.000000 0.000000 0.000000 1.000000 0.000000 0.000000 1.000000 0.000000 0.000000 1.000000 0.000000 0.000000 1.000000 -0.000000 -1.000000 0.000000 -0.000000 -0.727888 0.685696 -0.195090 -0.980785 0.000000 -0.142004 -0.713901 0.685697 -0.382683 -0.923880 0.000000 -0.278550 -0.672481 0.685696 -0.555570 -0.831470 0.000000 -0.404393 -0.605216 0.685696 -0.707107 -0.707106 0.000000 -0.514695 -0.514694 0.685696 -0.831470 -0.555570 0.000000 -0.605216 -0.404392 0.685697 -0.923879 -0.382684 0.000000 -0.672480 -0.278551 0.685696 -0.980785 -0.195091 0.000000 -0.713901 -0.142004 0.685696 -1.000000 0.000000 0.000000 -0.727888 0.000000 0.685696 -0.980785 0.195091 0.000000 -0.713901 0.142004 0.685696 -0.923880 0.382683 -0.000000 -0.672480 0.278550 0.685697 -0.831470 0.555570 -0.000000 -0.605217 0.404392 0.685696 -0.707107 0.707107 0.000000 -0.514694 0.514694 0.685696 -0.555570 0.831470 0.000000 -0.404393 0.605217 0.685697 -0.382684 0.923879 0.000000 -0.278551 0.672480 0.685696 -0.195091 0.980785 0.000000 -0.142004 0.713901 0.685696 -0.000000 1.000000 0.000000 -0.000000 0.727888 0.685696 0.195090 0.980785 0.000000 0.142004 0.713901 0.685696 0.382683 0.923880 0.000000 0.278550 0.672481 0.685696 0.555570 0.831470 0.000000 0.404392 0.605217 0.685696 0.707107 0.707107 0.000000 0.514694 0.514694 0.685696 0.831470 0.555570 0.000000 0.605216 0.404393 0.685696 0.923880 0.382683 0.000000 0.672480 0.278551 0.685696 0.980785 0.195091 0.000000 0.713901 0.142004 0.685697 1.000000 0.000000 0.000000 0.727888 0.000000 0.685696 0.980785 -0.195090 0.000000 0.713901 -0.142004 0.685697 0.923880 -0.382683 0.000000 0.672481 -0.278551 0.685696 0.831470 -0.555570 0.000000 0.605216 -0.404393 0.685696 0.707107 -0.707107 0.000000 0.514694 -0.514694 0.685696 0.555571 -0.831469 0.000000 0.404393 -0.605216 0.685697 0.382684 -0.923879 0.000000 0.278551 -0.672481 0.685696 0.195091 -0.980785 0.000000 0.142004 -0.713901 0.685697 0.000000 -0.000000 1.000000 -0.332859 0.576530 -0.746202 0.376884 -0.652782 0.657141 -0.580162 0.433749 -0.689401 0.594670 -0.527043 0.607119 -0.789814 0.312707 -0.527644 0.779299 -0.420446 0.464671 -0.929898 0.231829 -0.285561 0.902664 -0.349222 0.251477 -0.979090 0.203428 0.000000 0.945985 -0.324209 0.000000 -0.929898 0.231829 0.285561 0.902665 -0.349222 -0.251477 -0.789814 0.312707 0.527644 0.779299 -0.420447 -0.464670 -0.580162 0.433749 0.689402 0.594671 -0.527044 -0.607118 -0.332860 0.576530 0.746202 0.376885 -0.652781 -0.657141 -0.085557 0.719309 0.689402 0.159096 -0.778519 -0.607121 0.124095 0.840352 0.527645 -0.025530 -0.885117 -0.464667 0.264180 0.921230 0.285560 -0.148898 -0.956341 -0.251476 0.313370 0.949631 0.000001 -0.192217 -0.981353 0.000000 0.264180 0.921230 -0.285559 -0.148897 -0.956341 0.251477 0.124094 0.840351 -0.527646 -0.025532 -0.885116 0.464670 -0.085557 0.719308 -0.689402 0.159096 -0.778520 0.607120 0.085556 -0.719309 -0.689402 0.332860 -0.576530 -0.746202 -0.124095 -0.840352 -0.527645 -0.264179 -0.921230 -0.285559 -0.313371 -0.949631 0.000001 -0.264179 -0.921230 0.285560 -0.124095 -0.840352 0.527645 0.085557 -0.719308 0.689402 0.332860 -0.576530 0.746202 0.580161 -0.433750 0.689401 0.789813 -0.312706 0.527646 0.929899 -0.231828 0.285559 0.979090 -0.203427 0.000000 0.929899 -0.231829 -0.285560 0.789813 -0.312706 -0.527645 0.580162 -0.433750 -0.689400 0.331414 0.191342 0.923880 0.000000 0.000000 1.000000 0.612372 0.353553 0.707107 0.800103 0.461940 0.382683 0.866025 0.500000 0.000000 0.800103 0.461940 -0.382683 0.612372 0.353553 -0.707108 0.331413 0.191342 -0.923880 0.000000 0.000000 -1.000000 -0.331413 -0.191341 -0.923880 -0.612372 -0.353554 -0.707107 -0.800103 -0.461940 -0.382682 -0.866025 -0.500000 0.000000 -0.800103 -0.461940 0.382684 -0.612372 -0.353553 0.707107 -0.331414 -0.191342 0.923879 -0.500000 0.866025 -0.000000 "
							        />
							<TextureCoordinate point="0.0000 0.0000 1.0000 0.0000 1.0000 1.0000 0.0000 1.0000 " />
							<ColorRGBA color="1.000 1.000 1.000 1.000 " />
						</IndexedFaceSet>
					</Shape>
					<Shape>
						<Appearance>
							<Material DEF="MA_colored_polygons"
							          diffuseColor="0.800 0.800 0.800"
							          specularColor="0.401 0.401 0.401"
							          emissiveColor="0.000 0.000 0.000"
							          ambientIntensity="0.000"
							          shininess="0.500"
							          transparency="0.0"
							          />
						</Appearance>
						<IndexedFaceSet solid="false"
						                normalPerVertex="true"
						                colorPerVertex="false"
						                texCoordIndex="0 1 2 3 -1 4 5 6 7 -1 8 9 10 11 -1 12 13 14 15 -1 16 17 18 19 -1 20 21 22 23 -1 24 25 26 27 -1 28 29 30 31 -1 32 33 34 35 -1 36 37 38 39 -1 40 41 42 43 -1 44 45 46 47 -1 48 49 50 51 -1 52 53 54 55 -1 56 57 58 59 -1 60 61 62 63 -1 64 65 66 67 -1 68 69 70 -1 71 72 73 74 -1 75 76 77 78 -1 79 80 81 82 -1 83 84 85 86 -1 87 88 89 90 -1 91 92 93 94 -1 95 96 97 98 -1 99 100 101 102 -1 103 104 105 106 -1 107 108 109 110 -1 111 112 113 114 -1 115 116 117 118 -1 119 120 121 122 -1 123 124 125 126 -1 127 128 129 130 -1 131 132 133 134 -1 135 136 137 138 -1 139 140 141 142 -1 143 144 145 146 -1 147 148 149 150 -1 151 152 153 154 -1 155 156 157 158 -1 159 160 161 162 -1 163 164 165 166 -1 167 168 169 170 -1 171 172 173 174 -1 175 176 177 178 -1 179 180 181 182 -1 183 184 185 186 -1 187 188 189 190 -1 191 192 193 194 -1 195 196 197 -1 198 199 200 -1 201 202 203 -1 204 205 206 -1 207 208 209 -1 210 211 212 -1 213 214 215 -1 216 217 218 -1 219 220 221 -1 222 223 224 -1 225 226 227 -1 228 229 230 -1 231 232 233 -1 234 235 236 -1 237 238 239 -1 240 241 242 243 -1 244 245 246 247 -1 248 249 250 251 -1 252 253 254 255 -1 256 257 258 259 -1 260 261 262 263 -1 264 265 266 267 -1 268 269 270 271 -1 272 273 274 275 -1 276 277 278 279 -1 280 281 282 283 -1 284 285 286 287 -1 288 289 290 291 -1 292 293 294 295 -1 296 297 298 299 -1 300 301 302 303 -1 304 305 306 307 -1 308 309 310 311 -1 312 313 314 315 -1 316 317 318 319 -1 320 321 322 323 -1 324 325 326 327 -1 328 329 330 331 -1 332 333 334 335 -1 336 337 338 339 -1 340 341 342 343 -1 344 345 346 347 -1 348 349 350 351 -1 352 353 354 355 -1 356 357 358 359 -1 360 361 362 363 -1 364 365 366 367 -1 368 369 370 371 -1 372 373 374 -1 375 376 377 -1 378 379 380 -1 381 382 383 -1 384 385 386 -1 387 388 389 -1 390 391 392 -1 393 394 395 -1 396 397 398 -1 399 400 401 -1 402 403 404 -1 405 406 407 -1 408 409 410 -1 411 412 413 -1 414 415 416 -1 417 418 419 -1 420 421 422 -1 423 424 425 -1 426 427 428 -1 429 430 431 -1 432 433 434 -1 435 436 437 -1 438 439 440 -1 441 442 443 -1 444 445 446 -1 447 448 449 -1 450 451 452 -1 453 454 455 -1 456 457 458 -1 459 460 461 -1 462 463 464 -1 465 466 467 -1 468 469 470 471 -1 472 473 474 475 -1 476 477 478 479 -1 480 481 482 483 -1 484 485 486 487 -1 488 489 490 491 -1 492 493 494 495 -1 496 497 498 499 -1 500 501 502 503 -1 504 505 506 507 -1 508 509 510 511 -1 512 513 514 515 -1 516 517 518 519 -1 520 521 522 523 -1 524 525 526 527 -1 528 529 530 531 -1 532 533 534 535 -1 536 537 538 -1 539 540 541 542 -1 543 544 545 546 -1 547 548 549 550 -1 551 552 553 554 -1 555 556 557 558 -1 559 560 561 562 -1 563 564 565 566 -1 567 568 569 570 -1 571 572 573 574 -1 575 576 577 578 -1 579 580 581 582 -1 583 584 585 586 -1 587 588 589 590 -1 591 592 593 594 -1 595 596 597 598 -1 599 600 601 602 -1 603 604 605 606 -1 607 608 609 610 -1 611 612 613 614 -1 615 616 617 618 -1 619 620 621 622 -1 623 624 625 626 -1 627 628 629 630 -1 631 632 633 634 -1 635 636 637 638 -1 639 640 641 642 -1 643 644 645 646 -1 647 648 649 650 -1 651 652 653 654 -1 655 656 657 658 -1 659 660 661 662 -1 663 664 665 -1 666 667 668 -1 669 670 671 -1 672 673 674 -1 675 676 677 -1 678 679 680 -1 681 682 683 -1 684 685 686 -1 687 688 689 -1 690 691 692 -1 693 694 695 -1 696 697 698 -1 699 700 701 -1 702 703 704 -1 705 706 707 -1 "
						                coordIndex="4 37 36 6 -1 6 36 38 8 -1 8 38 39 10 -1 10 39 40 12 -1 12 40 41 14 -1 14 41 42 16 -1 16 42 43 18 -1 18 43 44 20 -1 20 44 45 22 -1 22 45 46 24 -1 24 46 47 26 -1 26 47 48 28 -1 28 48 49 30 -1 30 49 50 32 -1 33 31 65 66 -1 32 50 51 34 -1 34 51 37 4 -1 6 68 4 -1 44 5 7 45 -1 19 17 58 59 -1 35 33 66 67 -1 21 19 59 60 -1 7 5 53 52 -1 5 35 67 53 -1 23 21 60 61 -1 9 7 52 54 -1 25 23 61 62 -1 11 9 54 55 -1 27 25 62 63 -1 13 11 55 56 -1 29 27 63 64 -1 15 13 56 57 -1 31 29 64 65 -1 17 15 57 58 -1 9 11 47 46 -1 7 9 46 45 -1 43 35 5 44 -1 48 13 15 49 -1 15 17 50 49 -1 17 19 51 50 -1 11 13 48 47 -1 19 21 37 51 -1 23 25 38 36 -1 25 27 39 38 -1 21 23 36 37 -1 27 29 40 39 -1 33 35 43 42 -1 41 40 29 31 -1 33 42 41 31 -1 8 68 6 -1 10 68 8 -1 12 68 10 -1 4 68 34 -1 34 68 32 -1 32 68 30 -1 30 68 28 -1 28 68 26 -1 26 68 24 -1 24 68 22 -1 20 22 68 -1 20 68 18 -1 18 68 16 -1 16 68 14 -1 14 68 12 -1 69 70 72 71 -1 73 74 76 75 -1 75 76 78 77 -1 77 78 80 79 -1 79 80 82 81 -1 81 82 84 83 -1 83 84 86 85 -1 85 86 88 87 -1 87 88 90 89 -1 89 90 92 91 -1 91 92 94 93 -1 93 94 96 95 -1 95 96 98 97 -1 97 98 100 99 -1 99 100 102 101 -1 101 102 104 103 -1 103 104 106 105 -1 105 106 108 107 -1 107 108 110 109 -1 109 110 112 111 -1 111 112 114 113 -1 113 114 116 115 -1 115 116 118 117 -1 117 118 120 119 -1 119 120 122 121 -1 121 122 124 123 -1 123 124 126 125 -1 125 126 128 127 -1 127 128 130 129 -1 129 130 132 131 -1 131 132 134 133 -1 133 134 136 135 -1 135 136 74 73 -1 106 137 108 -1 108 137 110 -1 110 137 112 -1 112 137 114 -1 114 137 116 -1 116 137 118 -1 118 137 120 -1 120 137 122 -1 122 137 124 -1 124 137 126 -1 126 137 128 -1 128 137 130 -1 130 137 132 -1 132 137 134 -1 134 137 136 -1 136 137 74 -1 74 137 76 -1 76 137 78 -1 78 137 80 -1 80 137 82 -1 82 137 84 -1 84 137 86 -1 86 137 88 -1 88 137 90 -1 90 137 92 -1 92 137 94 -1 94 137 96 -1 96 137 98 -1 98 137 100 -1 100 137 102 -1 102 137 104 -1 106 104 137 -1 138 171 170 140 -1 140 170 172 142 -1 142 172 173 144 -1 144 173 174 146 -1 146 174 175 148 -1 148 175 176 150 -1 150 176 177 152 -1 152 177 178 154 -1 154 178 179 156 -1 156 179 180 158 -1 158 180 181 160 -1 160 181 182 162 -1 162 182 183 164 -1 164 183 184 166 -1 167 165 199 200 -1 166 184 185 168 -1 168 185 171 138 -1 140 202 138 -1 178 139 141 179 -1 153 151 192 193 -1 169 167 200 201 -1 155 153 193 194 -1 141 139 187 186 -1 139 169 201 187 -1 157 155 194 195 -1 143 141 186 188 -1 159 157 195 196 -1 145 143 188 189 -1 161 159 196 197 -1 147 145 189 190 -1 163 161 197 198 -1 149 147 190 191 -1 165 163 198 199 -1 151 149 191 192 -1 143 145 181 180 -1 141 143 180 179 -1 177 169 139 178 -1 182 147 149 183 -1 149 151 184 183 -1 151 153 185 184 -1 145 147 182 181 -1 153 155 171 185 -1 157 159 172 170 -1 159 161 173 172 -1 155 157 170 171 -1 161 163 174 173 -1 167 169 177 176 -1 175 174 163 165 -1 167 176 175 165 -1 142 202 140 -1 144 202 142 -1 146 202 144 -1 138 202 168 -1 168 202 166 -1 166 202 164 -1 164 202 162 -1 162 202 160 -1 160 202 158 -1 158 202 156 -1 154 156 202 -1 154 202 152 -1 152 202 150 -1 150 202 148 -1 148 202 146 -1 "
						                >
							<Coordinate USE="coords_ME_Chrono" />
							<Normal USE="normals_ME_Chrono" />
							<TextureCoordinate point="1.0000 0.5000 1.0000 1.0000 0.9375 1.0000 0.9375 0.5000 0.9375 0.5000 0.9375 1.0000 0.8750 1.0000 0.8750 0.5000 0.8750 0.5000 0.8750 1.0000 0.8125 1.0000 0.8125 0.5000 0.8125 0.5000 0.8125 1.0000 0.7500 1.0000 0.7500 0.5000 0.7500 0.5000 0.7500 1.0000 0.6875 1.0000 0.6875 0.5000 0.6875 0.5000 0.6875 1.0000 0.6250 1.0000 0.6250 0.5000 0.6250 0.5000 0.6250 1.0000 0.5625 1.0000 0.5625 0.5000 0.5625 0.5000 0.5625 1.0000 0.5000 1.0000 0.5000 0.5000 0.5000 0.5000 0.5000 1.0000 0.4375 1.0000 0.4375 0.5000 0.4375 0.5000 0.4375 1.0000 0.3750 1.0000 0.3750 0.5000 0.3750 0.5000 0.3750 1.0000 0.3125 1.0000 0.3125 0.5000 0.3125 0.5000 0.3125 1.0000 0.2500 1.0000 0.2500 0.5000 0.2500 0.5000 0.2500 1.0000 0.1875 1.0000 0.1875 0.5000 0.1875 0.5000 0.1875 1.0000 0.1250 1.0000 0.1250 0.5000 0.3585 0.1415 0.3918 0.1913 0.3918 0.1913 0.3585 0.1415 0.1250 0.5000 0.1250 1.0000 0.0625 1.0000 0.0625 0.5000 0.0625 0.5000 0.0625 1.0000 0.0000 1.0000 0.0000 0.5000 0.9375 0.5000 0.0000 0.0000 1.0000 0.5000 0.5000 1.0000 0.2500 0.0965 0.1913 0.1082 0.4375 1.0000 0.1913 0.3918 0.1415 0.3585 0.1415 0.3585 0.1913 0.3918 0.3087 0.1082 0.3585 0.1415 0.3585 0.1415 0.3087 0.1082 0.2500 0.4035 0.1913 0.3918 0.1913 0.3918 0.2500 0.4035 0.1913 0.1082 0.2500 0.0965 0.2500 0.0965 0.1913 0.1082 0.2500 0.0965 0.3087 0.1082 0.3087 0.1082 0.2500 0.0965 0.3087 0.3918 0.2500 0.4035 0.2500 0.4035 0.3087 0.3918 0.1415 0.1415 0.1913 0.1082 0.1913 0.1082 0.1415 0.1415 0.3585 0.3585 0.3087 0.3918 0.3087 0.3918 0.3585 0.3585 0.1082 0.1913 0.1415 0.1415 0.1415 0.1415 0.1082 0.1913 0.3918 0.3087 0.3585 0.3585 0.3585 0.3585 0.3918 0.3087 0.0965 0.2500 0.1082 0.1913 0.1082 0.1913 0.0965 0.2500 0.4035 0.2500 0.3918 0.3087 0.3918 0.3087 0.4035 0.2500 0.1082 0.3087 0.0965 0.2500 0.0965 0.2500 0.1082 0.3087 0.3918 0.1913 0.4035 0.2500 0.4035 0.2500 0.3918 0.1913 0.1415 0.3585 0.1082 0.3087 0.1082 0.3087 0.1415 0.3585 0.1415 0.1415 0.1082 0.1913 0.3125 1.0000 0.3750 1.0000 0.1913 0.1082 0.1415 0.1415 0.3750 1.0000 0.4375 1.0000 0.5625 1.0000 0.3087 0.1082 0.2500 0.0965 0.5000 1.0000 0.2500 1.0000 0.0965 0.2500 0.1082 0.3087 0.1875 1.0000 0.1082 0.3087 0.1415 0.3585 0.1250 1.0000 0.1875 1.0000 0.1415 0.3585 0.1913 0.3918 0.0625 1.0000 0.1250 1.0000 0.1082 0.1913 0.0965 0.2500 0.2500 1.0000 0.3125 1.0000 0.1913 0.3918 0.2500 0.4035 1.0000 1.0000 0.0625 1.0000 0.3087 0.3918 0.3585 0.3585 0.8750 1.0000 0.9375 1.0000 0.3585 0.3585 0.3918 0.3087 0.8125 1.0000 0.8750 1.0000 0.2500 0.4035 0.3087 0.3918 0.9375 1.0000 1.0000 1.0000 0.3918 0.3087 0.4035 0.2500 0.7500 1.0000 0.8125 1.0000 0.3585 0.1415 0.3087 0.1082 0.5625 1.0000 0.6250 1.0000 0.6875 1.0000 0.7500 1.0000 0.4035 0.2500 0.3918 0.1913 0.3585 0.1415 0.6250 1.0000 0.6875 1.0000 0.3918 0.1913 0.8750 0.5000 0.0000 0.0000 0.9375 0.5000 0.8125 0.5000 0.0000 0.0000 0.8750 0.5000 0.7500 0.5000 0.0000 0.0000 0.8125 0.5000 1.0000 0.5000 0.0000 0.0000 0.0625 0.5000 0.0625 0.5000 0.0000 0.0000 0.1250 0.5000 0.1250 0.5000 0.0000 0.0000 0.1875 0.5000 0.1875 0.5000 0.0000 0.0000 0.2500 0.5000 0.2500 0.5000 0.0000 0.0000 0.3125 0.5000 0.3125 0.5000 0.0000 0.0000 0.3750 0.5000 0.3750 0.5000 0.0000 0.0000 0.4375 0.5000 0.5000 0.5000 0.4375 0.5000 0.0000 0.0000 0.5000 0.5000 0.0000 0.0000 0.5625 0.5000 0.5625 0.5000 0.0000 0.0000 0.6250 0.5000 0.6250 0.5000 0.0000 0.0000 0.6875 0.5000 0.6875 0.5000 0.0000 0.0000 0.7500 0.5000 0.0000 0.0000 1.0000 0.0000 1.0000 1.0000 0.0000 1.0000 1.0000 0.5000 1.0000 1.0000 0.9688 1.0000 0.9688 0.5000 0.9688 0.5000 0.9688 1.0000 0.9375 1.0000 0.9375 0.5000 0.9375 0.5000 0.9375 1.0000 0.9062 1.0000 0.9062 0.5000 0.9062 0.5000 0.9062 1.0000 0.8750 1.0000 0.8750 0.5000 0.8750 0.5000 0.8750 1.0000 0.8438 1.0000 0.8438 0.5000 0.8438 0.5000 0.8438 1.0000 0.8125 1.0000 0.8125 0.5000 0.8125 0.5000 0.8125 1.0000 0.7812 1.0000 0.7812 0.5000 0.7812 0.5000 0.7812 1.0000 0.7500 1.0000 0.7500 0.5000 0.7500 0.5000 0.7500 1.0000 0.7188 1.0000 0.7188 0.5000 0.7188 0.5000 0.7188 1.0000 0.6875 1.0000 0.6875 0.5000 0.6875 0.5000 0.6875 1.0000 0.6562 1.0000 0.6562 0.5000 0.6562 0.5000 0.6562 1.0000 0.6250 1.0000 0.6250 0.5000 0.6250 0.5000 0.6250 1.0000 0.5938 1.0000 0.5938 0.5000 0.5938 0.5000 0.5938 1.0000 0.5625 1.0000 0.5625 0.5000 0.5625 0.5000 0.5625 1.0000 0.5312 1.0000 0.5312 0.5000 0.5312 0.5000 0.5312 1.0000 0.5000 1.0000 0.5000 0.5000 0.5000 0.5000 0.5000 1.0000 0.4688 1.0000 0.4688 0.5000 0.4688 0.5000 0.4688 1.0000 0.4375 1.0000 0.4375 0.5000 0.4375 0.5000 0.4375 1.0000 0.4062 1.0000 0.4062 0.5000 0.4062 0.5000 0.4062 1.0000 0.3750 1.0000 0.3750 0.5000 0.3750 0.5000 0.3750 1.0000 0.3438 1.0000 0.3438 0.5000 0.3438 0.5000 0.3438 1.0000 0.3125 1.0000 0.3125 0.5000 0.3125 0.5000 0.3125 1.0000 0.2812 1.0000 0.2812 0.5000 0.2812 0.5000 0.2812 1.0000 0.2500 1.0000 0.2500 0.5000 0.2500 0.5000 0.2500 1.0000 0.2188 1.0000 0.2188 0.5000 0.2188 0.5000 0.2188 1.0000 0.1875 1.0000 0.1875 0.5000 0.1875 0.5000 0.1875 1.0000 0.1562 1.0000 0.1562 0.5000 0.1562 0.5000 0.1562 1.0000 0.1250 1.0000 0.1250 0.5000 0.1250 0.5000 0.1250 1.0000 0.0938 1.0000 0.0938 0.5000 0.0938 0.5000 0.0938 1.0000 0.0625 1.0000 0.0625 0.5000 0.0625 0.5000 0.0625 1.0000 0.0312 1.0000 0.0312 0.5000 0.0312 0.5000 0.0312 1.0000 0.0000 1.0000 0.0000 0.5000 0.5000 1.0000 0.0000 0.0000 0.4688 1.0000 0.4688 1.0000 0.0000 0.0000 0.4375 1.0000 0.4375 1.0000 0.0000 0.0000 0.4062 1.0000 0.4062 1.0000 0.0000 0.0000 0.3750 1.0000 0.3750 1.0000 0.0000 0.0000 0.3438 1.0000 0.3438 1.0000 0.0000 0.0000 0.3125 1.0000 0.3125 1.0000 0.0000 0.0000 0.2812 1.0000 0.2812 1.0000 0.0000 0.0000 0.2500 1.0000 0.2500 1.0000 0.0000 0.0000 0.2188 1.0000 0.2188 1.0000 0.0000 0.0000 0.1875 1.0000 0.1875 1.0000 0.0000 0.0000 0.1562 1.0000 0.1562 1.0000 0.0000 0.0000 0.1250 1.0000 0.1250 1.0000 0.0000 0.0000 0.0938 1.0000 0.0938 1.0000 0.0000 0.0000 0.0625 1.0000 0.0625 1.0000 0.0000 0.0000 0.0312 1.0000 0.0312 1.0000 0.0000 0.0000 0.0000 1.0000 0.0000 1.0000 0.0000 0.0000 0.9688 1.0000 0.9688 1.0000 0.0000 0.0000 0.9375 1.0000 0.9375 1.0000 0.0000 0.0000 0.9062 1.0000 0.9062 1.0000 0.0000 0.0000 0.8750 1.0000 0.8750 1.0000 0.0000 0.0000 0.8438 1.0000 0.8438 1.0000 0.0000 0.0000 0.8125 1.0000 0.8125 1.0000 0.0000 0.0000 0.7812 1.0000 0.7812 1.0000 0.0000 0.0000 0.7500 1.0000 0.7500 1.0000 0.0000 0.0000 0.7188 1.0000 0.7188 1.0000 0.0000 0.0000 0.6875 1.0000 0.6875 1.0000 0.0000 0.0000 0.6562 1.0000 0.6562 1.0000 0.0000 0.0000 0.6250 1.0000 0.6250 1.0000 0.0000 0.0000 0.5938 1.0000 0.5938 1.0000 0.0000 0.0000 0.5625 1.0000 0.5625 1.0000 0.0000 0.0000 0.5312 1.0000 0.5000 1.0000 0.5312 1.0000 0.0000 0.0000 1.0000 0.5000 1.0000 1.0000 0.9375 1.0000 0.9375 0.5000 0.9375 0.5000 0.9375 1.0000 0.8750 1.0000 0.8750 0.5000 0.8750 0.5000 0.8750 1.0000 0.8125 1.0000 0.8125 0.5000 0.8125 0.5000 0.8125 1.0000 0.7500 1.0000 0.7500 0.5000 0.7500 0.5000 0.7500 1.0000 0.6875 1.0000 0.6875 0.5000 0.6875 0.5000 0.6875 1.0000 0.6250 1.0000 0.6250 0.5000 0.6250 0.5000 0.6250 1.0000 0.5625 1.0000 0.5625 0.5000 0.5625 0.5000 0.5625 1.0000 0.5000 1.0000 0.5000 0.5000 0.5000 0.5000 0.5000 1.0000 0.4375 1.0000 0.4375 0.5000 0.4375 0.5000 0.4375 1.0000 0.3750 1.0000 0.3750 0.5000 0.3750 0.5000 0.3750 1.0000 0.3125 1.0000 0.3125 0.5000 0.3125 0.5000 0.3125 1.0000 0.2500 1.0000 0.2500 0.5000 0.2500 0.5000 0.2500 1.0000 0.1875 1.0000 0.1875 0.5000 0.1875 0.5000 0.1875 1.0000 0.1250 1.0000 0.1250 0.5000 0.3585 0.1415 0.3918 0.1913 0.3918 0.1913 0.3585 0.1415 0.1250 0.5000 0.1250 1.0000 0.0625 1.0000 0.0625 0.5000 0.0625 0.5000 0.0625 1.0000 0.0000 1.0000 0.0000 0.5000 0.9375 0.5000 0.0000 0.0000 1.0000 0.5000 0.5000 1.0000 0.2500 0.0965 0.1913 0.1082 0.4375 1.0000 0.1913 0.3918 0.1415 0.3585 0.1415 0.3585 0.1913 0.3918 0.3087 0.1082 0.3585 0.1415 0.3585 0.1415 0.3087 0.1082 0.2500 0.4035 0.1913 0.3918 0.1913 0.3918 0.2500 0.4035 0.1913 0.1082 0.2500 0.0965 0.2500 0.0965 0.1913 0.1082 0.2500 0.0965 0.3087 0.1082 0.3087 0.1082 0.2500 0.0965 0.3087 0.3918 0.2500 0.4035 0.2500 0.4035 0.3087 0.3918 0.1415 0.1415 0.1913 0.1082 0.1913 0.1082 0.1415 0.1415 0.3585 0.3585 0.3087 0.3918 0.3087 0.3918 0.3585 0.3585 0.1082 0.1913 0.1415 0.1415 0.1415 0.1415 0.1082 0.1913 0.3918 0.3087 0.3585 0.3585 0.3585 0.3585 0.3918 0.3087 0.0965 0.2500 0.1082 0.1913 0.1082 0.1913 0.0965 0.2500 0.4035 0.2500 0.3918 0.3087 0.3918 0.3087 0.4035 0.2500 0.1082 0.3087 0.0965 0.2500 0.0965 0.2500 0.1082 0.3087 0.3918 0.1913 0.4035 0.2500 0.4035 0.2500 0.3918 0.1913 0.1415 0.3585 0.1082 0.3087 0.1082 0.3087 0.1415 0.3585 0.1415 0.1415 0.1082 0.1913 0.3125 1.0000 0.3750 1.0000 0.1913 0.1082 0.1415 0.1415 0.3750 1.0000 0.4375 1.0000 0.5625 1.0000 0.3087 0.1082 0.2500 0.0965 0.5000 1.0000 0.2500 1.0000 0.0965 0.2500 0.1082 0.3087 0.1875 1.0000 0.1082 0.3087 0.1415 0.3585 0.1250 1.0000 0.1875 1.0000 0.1415 0.3585 0.1913 0.3918 0.0625 1.0000 0.1250 1.0000 0.1082 0.1913 0.0965 0.2500 0.2500 1.0000 0.3125 1.0000 0.1913 0.3918 0.2500 0.4035 1.0000 1.0000 0.0625 1.0000 0.3087 0.3918 0.3585 0.3585 0.8750 1.0000 0.9375 1.0000 0.3585 0.3585 0.3918 0.3087 0.8125 1.0000 0.8750 1.0000 0.2500 0.4035 0.3087 0.3918 0.9375 1.0000 1.0000 1.0000 0.3918 0.3087 0.4035 0.2500 0.7500 1.0000 0.8125 1.0000 0.3585 0.1415 0.3087 0.1082 0.5625 1.0000 0.6250 1.0000 0.6875 1.0000 0.7500 1.0000 0.4035 0.2500 0.3918 0.1913 0.3585 0.1415 0.6250 1.0000 0.6875 1.0000 0.3918 0.1913 0.8750 0.5000 0.0000 0.0000 0.9375 0.5000 0.8125 0.5000 0.0000 0.0000 0.8750 0.5000 0.7500 0.5000 0.0000 0.0000 0.8125 0.5000 1.0000 0.5000 0.0000 0.0000 0.0625 0.5000 0.0625 0.5000 0.0000 0.0000 0.1250 0.5000 0.1250 0.5000 0.0000 0.0000 0.1875 0.5000 0.1875 0.5000 0.0000 0.0000 0.2500 0.5000 0.2500 0.5000 0.0000 0.0000 0.3125 0.5000 0.3125 0.5000 0.0000 0.0000 0.3750 0.5000 0.3750 0.5000 0.0000 0.0000 0.4375 0.5000 0.5000 0.5000 0.4375 0.5000 0.0000 0.0000 0.5000 0.5000 0.0000 0.0000 0.5625 0.5000 0.5625 0.5000 0.0000 0.0000 0.6250 0.5000 0.6250 0.5000 0.0000 0.0000 0.6875 0.5000 0.6875 0.5000 0.0000 0.0000 0.7500 0.5000 " />
							<ColorRGBA color="0.682 0.027 0.000 1.000 0.682 0.027 0.000 1.000 0.682 0.027 0.000 1.000 0.682 0.027 0.000 1.000 0.682 0.027 0.000 1.000 0.682 0.027 0.000 1.000 0.682 0.027 0.000 1.000 0.682 0.027 0.000 1.000 0.682 0.027 0.000 1.000 0.682 0.027 0.000 1.000 0.682 0.027 0.000 1.000 0.682 0.027 0.000 1.000 0.682 0.027 0.000 1.000 0.682 0.027 0.000 1.000 0.000 0.000 0.000 1.000 0.682 0.027 0.000 1.000 0.682 0.027 0.000 1.000 0.682 0.027 0.000 1.000 0.682 0.027 0.000 1.000 0.000 0.000 0.000 1.000 0.000 0.000 0.000 1.000 0.000 0.000 0.000 1.000 0.000 0.000 0.000 1.000 0.000 0.000 0.000 1.000 0.000 0.000 0.000 1.000 0.000 0.000 0.000 1.000 0.000 0.000 0.000 1.000 0.000 0.000 0.000 1.000 0.000 0.000 0.000 1.000 0.000 0.000 0.000 1.000 0.000 0.000 0.000 1.000 0.000 0.000 0.000 1.000 0.000 0.000 0.000 1.000 0.000 0.000 0.000 1.000 0.682 0.027 0.000 1.000 0.682 0.027 0.000 1.000 0.682 0.027 0.000 1.000 0.682 0.027 0.000 1.000 0.682 0.027 0.000 1.000 0.682 0.027 0.000 1.000 0.682 0.027 0.000 1.000 0.682 0.027 0.000 1.000 0.682 0.027 0.000 1.000 0.682 0.027 0.000 1.000 0.682 0.027 0.000 1.000 0.682 0.027 0.000 1.000 0.682 0.027 0.000 1.000 0.682 0.027 0.000 1.000 0.682 0.027 0.000 1.000 0.682 0.027 0.000 1.000 0.682 0.027 0.000 1.000 0.682 0.027 0.000 1.000 0.682 0.027 0.000 1.000 0.682 0.027 0.000 1.000 0.682 0.027 0.000 1.000 0.682 0.027 0.000 1.000 0.682 0.027 0.000 1.000 0.682 0.027 0.000 1.000 0.682 0.027 0.000 1.000 0.682 0.027 0.000 1.000 0.682 0.027 0.000 1.000 0.682 0.027 0.000 1.000 0.682 0.027 0.000 1.000 0.682 0.027 0.000 1.000 1.000 1.000 1.000 1.000 0.392 0.392 0.392 1.000 0.392 0.392 0.392 1.000 0.392 0.392 0.392 1.000 0.392 0.392 0.392 1.000 0.392 0.392 0.392 1.000 0.392 0.392 0.392 1.000 0.392 0.392 0.392 1.000 0.392 0.392 0.392 1.000 0.392 0.392 0.392 1.000 0.392 0.392 0.392 1.000 0.392 0.392 0.392 1.000 0.392 0.392 0.392 1.000 0.392 0.392 0.392 1.000 0.392 0.392 0.392 1.000 0.392 0.392 0.392 1.000 0.392 0.392 0.392 1.000 0.392 0.392 0.392 1.000 0.392 0.392 0.392 1.000 0.392 0.392 0.392 1.000 0.392 0.392 0.392 1.000 0.392 0.392 0.392 1.000 0.392 0.392 0.392 1.000 0.392 0.392 0.392 1.000 0.392 0.392 0.392 1.000 0.392 0.392 0.392 1.000 0.392 0.392 0.392 1.000 0.392 0.392 0.392 1.000 0.392 0.392 0.392 1.000 0.392 0.392 0.392 1.000 0.392 0.392 0.392 1.000 0.392 0.392 0.392 1.000 0.392 0.392 0.392 1.000 0.718 0.718 0.718 1.000 0.718 0.718 0.718 1.000 0.718 0.718 0.718 1.000 0.718 0.718 0.718 1.000 0.718 0.718 0.718 1.000 0.718 0.718 0.718 1.000 0.718 0.718 0.718 1.000 0.718 0.718 0.718 1.000 0.718 0.718 0.718 1.000 0.718 0.718 0.718 1.000 0.718 0.718 0.718 1.000 0.718 0.718 0.718 1.000 0.718 0.718 0.718 1.000 0.718 0.718 0.718 1.000 0.718 0.718 0.718 1.000 0.718 0.718 0.718 1.000 0.718 0.718 0.718 1.000 0.718 0.718 0.718 1.000 0.718 0.718 0.718 1.000 0.718 0.718 0.718 1.000 0.718 0.718 0.718 1.000 0.718 0.718 0.718 1.000 0.718 0.718 0.718 1.000 0.718 0.718 0.718 1.000 0.718 0.718 0.718 1.000 0.718 0.718 0.718 1.000 0.718 0.718 0.718 1.000 0.718 0.718 0.718 1.000 0.718 0.718 0.718 1.000 0.718 0.718 0.718 1.000 0.718 0.718 0.718 1.000 0.718 0.718 0.718 1.000 0.682 0.027 0.000 1.000 0.682 0.027 0.000 1.000 0.682 0.027 0.000 1.000 0.682 0.027 0.000 1.000 0.682 0.027 0.000 1.000 0.682 0.027 0.000 1.000 0.682 0.027 0.000 1.000 0.682 0.027 0.000 1.000 0.682 0.027 0.000 1.000 0.682 0.027 0.000 1.000 0.682 0.027 0.000 1.000 0.682 0.027 0.000 1.000 0.682 0.027 0.000 1.000 0.682 0.027 0.000 1.000 0.000 0.000 0.000 1.000 0.682 0.027 0.000 1.000 0.682 0.027 0.000 1.000 0.682 0.027 0.000 1.000 0.682 0.027 0.000 1.000 0.000 0.000 0.000 1.000 0.000 0.000 0.000 1.000 0.000 0.000 0.000 1.000 0.000 0.000 0.000 1.000 0.000 0.000 0.000 1.000 0.000 0.000 0.000 1.000 0.000 0.000 0.000 1.000 0.000 0.000 0.000 1.000 0.000 0.000 0.000 1.000 0.000 0.000 0.000 1.000 0.000 0.000 0.000 1.000 0.000 0.000 0.000 1.000 0.000 0.000 0.000 1.000 0.000 0.000 0.000 1.000 0.000 0.000 0.000 1.000 0.682 0.027 0.000 1.000 0.682 0.027 0.000 1.000 0.682 0.027 0.000 1.000 0.682 0.027 0.000 1.000 0.682 0.027 0.000 1.000 0.682 0.027 0.000 1.000 0.682 0.027 0.000 1.000 0.682 0.027 0.000 1.000 0.682 0.027 0.000 1.000 0.682 0.027 0.000 1.000 0.682 0.027 0.000 1.000 0.682 0.027 0.000 1.000 0.682 0.027 0.000 1.000 0.682 0.027 0.000 1.000 0.682 0.027 0.000 1.000 0.682 0.027 0.000 1.000 0.682 0.027 0.000 1.000 0.682 0.027 0.000 1.000 0.682 0.027 0.000 1.000 0.682 0.027 0.000 1.000 0.682 0.027 0.000 1.000 0.682 0.027 0.000 1.000 0.682 0.027 0.000 1.000 0.682 0.027 0.000 1.000 0.682 0.027 0.000 1.000 0.682 0.027 0.000 1.000 0.682 0.027 0.000 1.000 0.682 0.027 0.000 1.000 0.682 0.027 0.000 1.000 0.682 0.027 0.000 1.000 " />
						</IndexedFaceSet>
					</Shape>
				</Group>
			</Transform>
		</Transform>
	</Scene>
</X3D>