<?xml version="1.0" encoding="UTF-8"?>
<!DOCTYPE X3D PUBLIC "ISO//Web3D//DTD X3D 3.0//EN" "http://www.web3d.org/specifications/x3d-3.0.dtd">
<X3D version="3.0" profile="Immersive" xmlns:xsd="http://www.w3.org/2001/XMLSchema-instance" xsd:noNamespaceSchemaLocation="http://www.web3d.org/specifications/x3d-3.0.xsd">
	<head>
		<meta name="filename" content="ag.x3d" />
		<meta name="generator" content="Blender 4.0.2" />
	</head>
	<Scene>
		<NavigationInfo headlight="true"
		                visibilityLimit="0.0"
		                type='"EXAMINE", "ANY"'
		                avatarSize="0.25, 1.75, 0.75"
		                />
		<Background DEF="World"
		            groundColor="0.051 0.051 0.051"
		            skyColor="0.051 0.051 0.051"
		            />
		<Transform DEF="ag_ifs_TRANSFORM"
		           translation="0.000000 0.000000 0.000000"
		           scale="1.000000 1.000000 1.000000"
		           rotation="0.000000 0.707107 0.707107 3.141593"
		           >
			<Group DEF="mat4">
				<Shape>
					<Appearance>
						<Material DEF="colored_polygons"
						          diffuseColor="0.800 0.800 0.800"
						          specularColor="0.401 0.401 0.401"
						          emissiveColor="0.000 0.000 0.000"
						          ambientIntensity="0.000"
						          shininess="0.500"
						          transparency="0.0"
						          />
					</Appearance>
					<IndexedFaceSet solid="false"
					                colorPerVertex="false"
					                coordIndex="6 0 12 18 -1 0 3 15 12 -1 3 5 17 15 -1 5 8 20 17 -1 8 9 21 20 -1 9 10 22 21 -1 10 1 13 22 -1 1 4 16 13 -1 4 7 19 16 -1 7 2 14 19 -1 2 11 23 14 -1 11 6 18 23 -1 4 1 10 9 -1 7 4 9 8 -1 2 7 8 5 -1 2 5 3 11 -1 11 3 0 6 -1 23 18 12 15 -1 14 23 15 17 -1 19 14 17 20 -1 16 19 20 21 -1 13 16 21 22 -1 25 24 36 37 -1 24 27 39 36 -1 27 28 40 39 -1 28 31 43 40 -1 31 34 46 43 -1 34 35 47 46 -1 35 26 38 47 -1 26 32 44 38 -1 32 29 41 44 -1 29 33 45 41 -1 33 30 42 45 -1 30 25 37 42 -1 30 27 24 25 -1 33 28 27 30 -1 29 31 28 33 -1 34 31 29 32 -1 35 34 32 26 -1 46 47 38 44 -1 43 46 44 41 -1 40 43 41 45 -1 39 40 45 42 -1 36 39 42 37 -1 57 51 50 62 -1 71 55 51 57 -1 63 54 55 71 -1 62 50 54 63 -1 52 53 49 48 -1 50 51 55 54 -1 68 52 48 70 -1 66 53 52 68 -1 59 49 53 66 -1 70 48 49 59 -1 67 68 70 61 -1 64 66 68 67 -1 58 59 66 64 -1 61 70 59 58 -1 69 67 61 60 -1 65 64 67 69 -1 56 58 64 65 -1 60 61 58 56 -1 63 69 60 62 -1 71 65 69 63 -1 57 56 65 71 -1 62 60 56 57 -1 72 73 77 76 -1 78 79 75 74 -1 91 72 76 89 -1 82 73 72 91 -1 87 77 73 82 -1 89 76 77 87 -1 90 78 74 83 -1 83 74 75 80 -1 80 75 79 86 -1 86 79 78 90 -1 88 90 83 84 -1 84 83 80 81 -1 81 80 86 85 -1 85 86 90 88 -1 89 88 84 91 -1 91 84 81 82 -1 82 81 85 87 -1 87 85 88 89 -1 127 92 93 126 -1 126 93 95 124 -1 124 95 94 125 -1 125 94 92 127 -1 113 111 115 123 -1 94 95 93 92 -1 121 101 111 113 -1 119 120 101 121 -1 123 115 120 119 -1 111 112 116 115 -1 106 125 127 105 -1 105 127 126 97 -1 97 126 124 122 -1 122 124 125 106 -1 117 106 105 107 -1 107 105 97 98 -1 98 97 122 109 -1 109 122 106 117 -1 118 117 107 102 -1 102 107 98 96 -1 96 98 109 110 -1 110 109 117 118 -1 114 118 102 104 -1 104 102 96 100 -1 100 96 110 108 -1 108 110 118 114 -1 116 114 104 103 -1 103 104 100 99 -1 99 100 108 112 -1 112 108 114 116 -1 115 116 103 120 -1 120 103 99 101 -1 101 99 112 111 -1 121 131 130 119 -1 139 135 131 121 -1 143 134 135 139 -1 119 130 134 143 -1 132 133 129 128 -1 130 131 135 134 -1 132 128 142 147 -1 133 132 147 144 -1 129 133 144 138 -1 128 129 138 142 -1 137 147 142 140 -1 146 144 147 137 -1 136 138 144 146 -1 140 142 138 136 -1 141 137 140 123 -1 145 146 137 141 -1 113 136 146 145 -1 123 140 136 113 -1 143 141 123 119 -1 139 145 141 143 -1 121 113 145 139 -1 "
					                >
						<Coordinate DEF="coords_mat4"
						            point="-449.000000 -1515.000000 500.000000 375.000000 -1928.000000 500.000000 -267.000000 -2135.000000 500.000000 -412.000000 -1365.000000 500.000000 338.000000 -2078.000000 500.000000 -358.000000 -1310.000000 500.000000 -403.000000 -1932.000000 500.000000 283.000000 -2133.000000 500.000000 193.000000 -1307.000000 500.000000 259.000000 -1362.000000 500.000000 329.000000 -1511.000000 500.000000 -333.000000 -2081.000000 500.000000 -449.000000 -1515.000000 -500.000000 375.000000 -1928.000000 -500.000000 -267.000000 -2135.000000 -500.000000 -412.000000 -1365.000000 -500.000000 338.000000 -2078.000000 -500.000000 -358.000000 -1310.000000 -500.000000 -403.000000 -1932.000000 -500.000000 283.000000 -2133.000000 -500.000000 193.000000 -1307.000000 -500.000000 259.000000 -1362.000000 -500.000000 329.000000 -1511.000000 -500.000000 -333.000000 -2081.000000 -500.000000 -1401.000000 -1515.000000 500.000000 -1355.000000 -1932.000000 500.000000 -576.000000 -1928.000000 500.000000 -1364.000000 -1365.000000 500.000000 -1310.000000 -1310.000000 500.000000 -668.000000 -2133.000000 500.000000 -1285.000000 -2081.000000 500.000000 -758.000000 -1307.000000 500.000000 -613.000000 -2078.000000 500.000000 -1219.000000 -2135.000000 500.000000 -692.000000 -1362.000000 500.000000 -622.000000 -1511.000000 500.000000 -1401.000000 -1515.000000 -500.000000 -1355.000000 -1932.000000 -500.000000 -576.000000 -1928.000000 -500.000000 -1364.000000 -1365.000000 -500.000000 -1310.000000 -1310.000000 -500.000000 -668.000000 -2133.000000 -500.000000 -1285.000000 -2081.000000 -500.000000 -758.000000 -1307.000000 -500.000000 -613.000000 -2078.000000 -500.000000 -1219.000000 -2135.000000 -500.000000 -692.000000 -1362.000000 -500.000000 -622.000000 -1511.000000 -500.000000 -4696.000000 2195.000000 499.000000 -4696.000000 2195.000000 -500.000000 -2797.000000 -2185.000000 499.000000 -2797.000000 -2185.000000 -500.000000 -3197.000000 2195.000000 499.000000 -3197.000000 2195.000000 -500.000000 -1548.000000 -2185.000000 499.000000 -1548.000000 -2185.000000 -500.000000 -2902.000000 -715.000000 -500.000000 -2839.000000 -1162.000000 -500.000000 -3141.000000 100.000000 -500.000000 -3574.000000 886.000000 -500.000000 -2902.000000 -715.000000 499.000000 -3141.000000 100.000000 499.000000 -2839.000000 -1162.000000 499.000000 -1572.000000 -1159.000000 499.000000 -1797.000000 109.000000 -500.000000 -1614.000000 -711.000000 -500.000000 -2163.000000 896.000000 -500.000000 -1797.000000 109.000000 499.000000 -2163.000000 896.000000 499.000000 -1614.000000 -711.000000 499.000000 -3574.000000 886.000000 499.000000 -1572.000000 -1159.000000 -500.000000 1829.000000 2195.000000 499.000000 1829.000000 2195.000000 -500.000000 -110.000000 -1127.000000 499.000000 -110.000000 -1127.000000 -500.000000 332.000000 2195.000000 499.000000 332.000000 2195.000000 -500.000000 -1439.000000 -1127.000000 499.000000 -1439.000000 -1127.000000 -500.000000 123.000000 -116.000000 -500.000000 428.000000 506.000000 -500.000000 870.000000 1138.000000 -500.000000 123.000000 -116.000000 499.000000 428.000000 506.000000 499.000000 -993.000000 506.000000 -500.000000 -1252.000000 -116.000000 -500.000000 -594.000000 1138.000000 -500.000000 -993.000000 506.000000 499.000000 -594.000000 1138.000000 499.000000 -1252.000000 -116.000000 499.000000 870.000000 1138.000000 499.000000 4492.000000 -1134.000000 500.000000 4492.000000 -1134.000000 -500.000000 4492.000000 -2195.000000 500.000000 4492.000000 -2195.000000 -500.000000 2572.000000 -811.000000 -500.000000 2904.000000 -1094.000000 -500.000000 2709.000000 -982.000000 -500.000000 2464.000000 -345.000000 -500.000000 2491.000000 -595.000000 -500.000000 2464.000000 249.000000 -500.000000 2572.000000 -811.000000 500.000000 2464.000000 -345.000000 500.000000 2491.000000 -595.000000 500.000000 2904.000000 -1094.000000 500.000000 2249.000000 -2122.000000 500.000000 2709.000000 -982.000000 500.000000 1287.000000 -1208.000000 -500.000000 1827.000000 -1917.000000 -500.000000 1499.000000 -1604.000000 -500.000000 1212.000000 1233.000000 -500.000000 1212.000000 -752.000000 -500.000000 3254.000000 1233.000000 -500.000000 1287.000000 -1208.000000 500.000000 1212.000000 1233.000000 500.000000 1212.000000 -752.000000 500.000000 1827.000000 -1917.000000 500.000000 1499.000000 -1604.000000 500.000000 3488.000000 249.000000 500.000000 2464.000000 249.000000 500.000000 3488.000000 249.000000 -500.000000 2249.000000 -2122.000000 -500.000000 3254.000000 1233.000000 500.000000 2744.000000 -2195.000000 -500.000000 2744.000000 -2195.000000 500.000000 3160.000000 -1134.000000 -500.000000 3160.000000 -1134.000000 500.000000 2638.000000 2195.000000 500.000000 2638.000000 2195.000000 -500.000000 3500.000000 -379.000000 500.000000 3500.000000 -379.000000 -500.000000 3972.000000 2195.000000 500.000000 3972.000000 2195.000000 -500.000000 4692.000000 -379.000000 500.000000 4692.000000 -379.000000 -500.000000 3166.000000 1419.000000 -500.000000 4552.000000 1225.000000 500.000000 2939.000000 1798.000000 -500.000000 4696.000000 252.000000 -500.000000 3166.000000 1419.000000 500.000000 4664.000000 754.000000 500.000000 2939.000000 1798.000000 500.000000 4696.000000 252.000000 500.000000 4331.000000 1716.000000 -500.000000 4664.000000 754.000000 -500.000000 4552.000000 1225.000000 -500.000000 4331.000000 1716.000000 500.000000 "
						            />
						<ColorRGBA color="0.012 0.020 1.000 1.000 0.012 0.020 1.000 1.000 0.012 0.020 1.000 1.000 0.780 0.043 0.820 1.000 0.780 0.043 0.820 1.000 0.780 0.043 0.820 1.000 0.780 0.043 0.820 1.000 0.780 0.043 0.820 1.000 0.780 0.043 0.820 1.000 0.169 0.008 0.176 1.000 0.012 0.020 1.000 1.000 0.012 0.020 1.000 1.000 0.424 0.008 0.820 1.000 0.424 0.008 0.820 1.000 0.424 0.008 0.820 1.000 0.424 0.008 0.820 1.000 0.424 0.008 0.820 1.000 0.820 0.620 0.192 1.000 0.820 0.620 0.192 1.000 0.820 0.620 0.192 1.000 0.820 0.620 0.192 1.000 0.820 0.620 0.192 1.000 0.012 0.020 1.000 1.000 0.012 0.020 1.000 1.000 0.012 0.020 1.000 1.000 0.780 0.043 0.820 1.000 0.780 0.043 0.820 1.000 0.780 0.043 0.820 1.000 0.780 0.043 0.820 1.000 0.780 0.043 0.820 1.000 0.780 0.043 0.820 1.000 0.169 0.008 0.176 1.000 0.012 0.020 1.000 1.000 0.012 0.020 1.000 1.000 0.424 0.008 0.820 1.000 0.424 0.008 0.820 1.000 0.424 0.008 0.820 1.000 0.424 0.008 0.820 1.000 0.424 0.008 0.820 1.000 0.820 0.620 0.192 1.000 0.820 0.620 0.192 1.000 0.820 0.620 0.192 1.000 0.820 0.620 0.192 1.000 0.820 0.620 0.192 1.000 0.012 0.020 1.000 1.000 0.820 0.620 0.192 1.000 0.780 0.043 0.820 1.000 0.424 0.008 0.820 1.000 0.780 0.043 0.820 1.000 0.169 0.008 0.176 1.000 0.424 0.008 0.820 1.000 0.780 0.043 0.820 1.000 0.820 0.620 0.192 1.000 0.012 0.020 1.000 1.000 0.424 0.008 0.820 1.000 0.780 0.043 0.820 1.000 0.820 0.620 0.192 1.000 0.012 0.020 1.000 1.000 0.424 0.008 0.820 1.000 0.780 0.043 0.820 1.000 0.820 0.620 0.192 1.000 0.012 0.020 1.000 1.000 0.424 0.008 0.820 1.000 0.780 0.043 0.820 1.000 0.820 0.620 0.192 1.000 0.012 0.020 1.000 1.000 0.780 0.043 0.820 1.000 0.169 0.008 0.176 1.000 0.424 0.008 0.820 1.000 0.780 0.043 0.820 1.000 0.820 0.620 0.192 1.000 0.012 0.020 1.000 1.000 0.424 0.008 0.820 1.000 0.780 0.043 0.820 1.000 0.820 0.620 0.192 1.000 0.012 0.020 1.000 1.000 0.424 0.008 0.820 1.000 0.780 0.043 0.820 1.000 0.820 0.620 0.192 1.000 0.012 0.020 1.000 1.000 0.424 0.008 0.820 1.000 0.780 0.043 0.820 1.000 0.820 0.620 0.192 1.000 0.012 0.020 1.000 1.000 0.780 0.043 0.820 1.000 0.820 0.620 0.192 1.000 0.169 0.008 0.176 1.000 0.424 0.008 0.820 1.000 0.780 0.043 0.820 1.000 0.780 0.043 0.820 1.000 0.820 0.620 0.192 1.000 0.169 0.008 0.176 1.000 0.424 0.008 0.820 1.000 0.012 0.020 1.000 1.000 0.424 0.008 0.820 1.000 0.780 0.043 0.820 1.000 0.820 0.620 0.192 1.000 0.169 0.008 0.176 1.000 0.424 0.008 0.820 1.000 0.780 0.043 0.820 1.000 0.820 0.620 0.192 1.000 0.169 0.008 0.176 1.000 0.424 0.008 0.820 1.000 0.780 0.043 0.820 1.000 0.820 0.620 0.192 1.000 0.012 0.020 1.000 1.000 0.424 0.008 0.820 1.000 0.780 0.043 0.820 1.000 0.820 0.620 0.192 1.000 0.012 0.020 1.000 1.000 0.424 0.008 0.820 1.000 0.780 0.043 0.820 1.000 0.820 0.620 0.192 1.000 0.012 0.020 1.000 1.000 0.424 0.008 0.820 1.000 0.780 0.043 0.820 1.000 0.820 0.620 0.192 1.000 0.012 0.020 1.000 1.000 0.820 0.620 0.192 1.000 0.780 0.043 0.820 1.000 0.424 0.008 0.820 1.000 0.780 0.043 0.820 1.000 0.169 0.008 0.176 1.000 0.424 0.008 0.820 1.000 0.780 0.043 0.820 1.000 0.820 0.620 0.192 1.000 0.012 0.020 1.000 1.000 0.424 0.008 0.820 1.000 0.780 0.043 0.820 1.000 0.820 0.620 0.192 1.000 0.012 0.020 1.000 1.000 0.424 0.008 0.820 1.000 0.780 0.043 0.820 1.000 0.820 0.620 0.192 1.000 0.012 0.020 1.000 1.000 0.424 0.008 0.820 1.000 0.780 0.043 0.820 1.000 0.820 0.620 0.192 1.000 " />
					</IndexedFaceSet>
				</Shape>
			</Group>
		</Transform>
	</Scene>
</X3D>