<?xml version="1.0" encoding="UTF-8"?>
<!DOCTYPE X3D PUBLIC "ISO//Web3D//DTD X3D 3.0//EN" "http://www.web3d.org/specifications/x3d-3.0.dtd">
<X3D version="3.0" profile="Immersive" xmlns:xsd="http://www.w3.org/2001/XMLSchema-instance" xsd:noNamespaceSchemaLocation="http://www.web3d.org/specifications/x3d-3.0.xsd">
	<head>
		<meta name="filename" content="auri.x3d" />
		<meta name="generator" content="Blender 4.0.2" />
	</head>
	<Scene>
		<NavigationInfo headlight="true"
		                visibilityLimit="0.0"
		                type='"EXAMINE", "ANY"'
		                avatarSize="0.25, 1.75, 0.75"
		                />
		<Background DEF="World"
		            groundColor="0.051 0.051 0.051"
		            skyColor="0.051 0.051 0.051"
		            />
		<Transform DEF="auri_ifs_TRANSFORM"
		           translation="0.000000 0.000000 0.000000"
		           scale="1.000000 1.000000 1.000000"
		           rotation="0.000000 0.707107 0.707107 3.141593"
		           >
			<Group DEF="extru2">
				<Shape>
					<Appearance>
						<Material DEF="colored_polygons_001"
						          diffuseColor="0.800 0.800 0.800"
						          specularColor="0.401 0.401 0.401"
						          emissiveColor="0.000 0.000 0.000"
						          ambientIntensity="0.000"
						          shininess="0.500"
						          transparency="0.0"
						          />
					</Appearance>
					<IndexedFaceSet solid="false"
					                colorPerVertex="false"
					                coordIndex="1 15 16 -1 5 19 20 -1 11 25 26 -1 7 21 22 -1 8 22 23 -1 9 23 24 -1 10 24 25 -1 82 81 49 50 -1 12 26 27 -1 13 27 28 -1 14 28 29 -1 68 69 37 36 -1 69 70 38 37 -1 70 71 39 38 -1 65 66 34 33 -1 62 63 31 30 -1 67 68 36 35 -1 10 8 9 -1 14 10 11 -1 5 7 10 -1 10 4 5 -1 10 2 3 -1 10 0 1 -1 19 25 20 -1 26 18 17 -1 20 24 23 -1 14 12 13 -1 26 15 29 -1 29 27 26 -1 26 16 15 -1 66 67 35 34 -1 71 72 40 39 -1 72 73 41 40 -1 73 74 42 41 -1 74 75 43 42 -1 75 76 44 43 -1 93 82 50 61 -1 77 78 46 45 -1 78 79 47 46 -1 79 80 48 47 -1 80 81 49 48 -1 64 65 33 32 -1 85 76 44 53 -1 66 92 60 34 -1 84 85 53 52 -1 81 83 51 49 -1 37 38 39 36 -1 88 71 39 56 -1 91 66 34 59 -1 76 86 54 44 -1 71 89 57 39 -1 86 87 55 54 -1 89 90 58 57 -1 92 93 61 60 -1 83 84 52 51 -1 4 18 19 -1 87 88 56 55 -1 90 91 59 58 -1 68 67 66 69 -1 3 17 18 -1 63 64 32 31 -1 6 20 21 -1 0 29 15 -1 2 16 17 -1 61 34 60 -1 30 31 61 49 -1 58 39 57 -1 55 44 54 -1 44 52 53 -1 52 49 51 -1 49 61 50 -1 22 20 23 -1 45 46 52 44 -1 55 56 39 40 -1 84 83 81 80 -1 36 39 58 35 -1 65 64 93 66 -1 31 34 61 -1 44 55 40 41 -1 58 59 34 35 -1 84 80 79 76 -1 84 76 85 -1 90 89 71 70 -1 78 77 76 79 -1 73 72 71 74 -1 62 81 82 93 -1 63 62 93 64 -1 81 62 30 49 -1 90 70 69 -1 87 86 76 75 -1 42 43 44 41 -1 32 33 34 31 -1 90 66 91 -1 66 93 92 -1 87 71 88 -1 90 69 66 -1 74 71 87 -1 1 0 15 -1 5 4 19 -1 11 10 25 -1 7 6 21 -1 8 7 22 -1 9 8 23 -1 10 9 24 -1 12 11 26 -1 13 12 27 -1 14 13 28 -1 10 7 8 -1 5 6 7 -1 10 3 4 -1 10 1 2 -1 10 14 0 -1 19 26 25 -1 26 19 18 -1 20 25 24 -1 14 11 12 -1 29 28 27 -1 26 17 16 -1 4 3 18 -1 3 2 17 -1 6 5 20 -1 0 14 29 -1 2 1 16 -1 22 21 20 -1 52 46 47 -1 75 74 87 -1 52 47 48 49 -1 76 77 45 44 -1 "
					                >
						<Coordinate DEF="coords_extru2"
						            point="-1742.000000 -383.000000 500.000000 -1825.000000 -508.000000 500.000000 -1958.000000 -580.000000 500.000000 -2116.000000 -580.000000 500.000000 -2249.000000 -508.000000 500.000000 -2332.000000 -382.000000 500.000000 -3099.000000 2167.000000 500.000000 -4347.000000 2168.000000 500.000000 -2975.000000 -1670.000000 500.000000 -2581.000000 -2043.000000 500.000000 -2039.000000 -2185.000000 500.000000 -1497.000000 -2043.000000 500.000000 -1102.000000 -1670.000000 500.000000 280.000000 2170.000000 500.000000 -972.000000 2165.000000 500.000000 -1742.000000 -383.000000 -500.000000 -1825.000000 -508.000000 -500.000000 -1958.000000 -580.000000 -500.000000 -2116.000000 -580.000000 -500.000000 -2249.000000 -508.000000 -500.000000 -2332.000000 -382.000000 -500.000000 -3099.000000 2167.000000 -500.000000 -4347.000000 2168.000000 -500.000000 -2975.000000 -1670.000000 -500.000000 -2581.000000 -2043.000000 -500.000000 -2039.000000 -2185.000000 -500.000000 -1497.000000 -2043.000000 -500.000000 -1102.000000 -1670.000000 -500.000000 280.000000 2170.000000 -500.000000 -972.000000 2165.000000 -500.000000 88.000000 -690.000000 500.000000 398.000000 -1290.000000 500.000000 871.000000 -1763.000000 500.000000 1471.000000 -2073.000000 500.000000 2161.000000 -2180.500000 500.000000 2853.000000 -2073.000000 500.000000 3452.000000 -1763.000000 500.000000 3925.000000 -1290.000000 500.000000 4236.000000 -690.000000 500.000000 4343.500000 -2.000000 500.000000 4236.000000 690.000000 500.000000 3925.000000 1290.000000 500.000000 3452.000000 1763.000000 500.000000 2853.000000 2073.000000 500.000000 2162.000000 2185.000000 500.000000 1471.000000 2073.000000 500.000000 871.000000 1763.000000 500.000000 398.000000 1290.000000 500.000000 88.000000 690.000000 500.000000 -22.000000 0.000000 500.000000 1774.000000 -170.000000 500.000000 1760.000000 165.000000 500.000000 850.000000 1311.000000 500.000000 1997.000000 372.000000 500.000000 2335.000000 384.000000 500.000000 3465.000000 1303.000000 500.000000 2578.000000 170.000000 500.000000 2553.000000 -159.000000 500.000000 3471.000000 -1309.000000 500.000000 2332.000000 -378.000000 500.000000 1994.000000 -395.000000 500.000000 844.000000 -1317.000000 500.000000 88.000000 -690.000000 -500.000000 398.000000 -1290.000000 -500.000000 871.000000 -1763.000000 -500.000000 1471.000000 -2073.000000 -500.000000 2161.000000 -2180.500000 -500.000000 2853.000000 -2073.000000 -500.000000 3452.000000 -1763.000000 -500.000000 3925.000000 -1290.000000 -500.000000 4236.000000 -690.000000 -500.000000 4343.500000 -2.000000 -500.000000 4236.000000 690.000000 -500.000000 3925.000000 1290.000000 -500.000000 3452.000000 1763.000000 -500.000000 2853.000000 2073.000000 -500.000000 2162.000000 2185.000000 -500.000000 1471.000000 2073.000000 -500.000000 871.000000 1763.000000 -500.000000 398.000000 1290.000000 -500.000000 88.000000 690.000000 -500.000000 -22.000000 0.000000 -500.000000 1774.000000 -170.000000 -500.000000 1760.000000 165.000000 -500.000000 850.000000 1311.000000 -500.000000 1997.000000 372.000000 -500.000000 2335.000000 384.000000 -500.000000 3465.000000 1303.000000 -500.000000 2578.000000 170.000000 -500.000000 2553.000000 -159.000000 -500.000000 3471.000000 -1309.000000 -500.000000 2332.000000 -378.000000 -500.000000 1994.000000 -395.000000 -500.000000 844.000000 -1317.000000 -500.000000 "
						            />
						<ColorRGBA color="0.000 0.020 1.000 1.000 0.780 0.043 0.820 1.000 0.780 0.043 0.820 1.000 0.780 0.043 0.820 1.000 0.000 0.020 1.000 1.000 0.000 0.020 1.000 1.000 0.000 0.020 1.000 1.000 0.780 0.043 0.820 1.000 0.780 0.043 0.820 1.000 0.780 0.043 0.820 1.000 0.780 0.043 0.820 1.000 0.780 0.043 0.820 1.000 0.780 0.043 0.820 1.000 0.780 0.043 0.820 1.000 0.349 0.349 0.349 1.000 0.000 0.020 1.000 1.000 0.780 0.043 0.820 1.000 0.424 0.008 0.820 1.000 0.424 0.008 0.820 1.000 0.424 0.008 0.820 1.000 0.424 0.008 0.820 1.000 0.424 0.008 0.820 1.000 0.424 0.008 0.820 1.000 0.820 0.620 0.192 1.000 0.820 0.620 0.192 1.000 0.820 0.620 0.192 1.000 0.424 0.008 0.820 1.000 0.820 0.620 0.192 1.000 0.820 0.620 0.192 1.000 0.820 0.620 0.192 1.000 0.780 0.043 0.820 1.000 0.780 0.043 0.820 1.000 0.780 0.043 0.820 1.000 0.780 0.043 0.820 1.000 0.780 0.043 0.820 1.000 0.780 0.043 0.820 1.000 0.780 0.043 0.820 1.000 0.000 0.020 1.000 1.000 0.000 0.020 1.000 1.000 0.000 0.020 1.000 1.000 0.000 0.020 1.000 1.000 0.000 0.020 1.000 1.000 0.780 0.043 0.820 1.000 0.780 0.043 0.820 1.000 0.000 0.020 1.000 1.000 0.780 0.043 0.820 1.000 0.424 0.008 0.820 1.000 0.000 0.020 1.000 1.000 0.000 0.020 1.000 1.000 0.000 0.020 1.000 1.000 0.000 0.020 1.000 1.000 0.780 0.043 0.820 1.000 0.000 0.020 1.000 1.000 0.000 0.020 1.000 1.000 0.780 0.043 0.820 1.000 0.780 0.043 0.820 1.000 0.000 0.020 1.000 1.000 0.780 0.043 0.820 1.000 0.820 0.620 0.192 1.000 0.000 0.020 1.000 1.000 0.000 0.020 1.000 1.000 0.780 0.043 0.820 1.000 0.000 0.020 1.000 1.000 0.000 0.020 1.000 1.000 0.424 0.008 0.820 1.000 0.424 0.008 0.820 1.000 0.424 0.008 0.820 1.000 0.424 0.008 0.820 1.000 0.424 0.008 0.820 1.000 0.424 0.008 0.820 1.000 0.424 0.008 0.820 1.000 0.820 0.620 0.192 1.000 0.424 0.008 0.820 1.000 0.424 0.008 0.820 1.000 0.820 0.620 0.192 1.000 0.424 0.008 0.820 1.000 0.820 0.620 0.192 1.000 0.424 0.008 0.820 1.000 0.424 0.008 0.820 1.000 0.424 0.008 0.820 1.000 0.820 0.620 0.192 1.000 0.820 0.620 0.192 1.000 0.820 0.620 0.192 1.000 0.820 0.620 0.192 1.000 0.820 0.620 0.192 1.000 0.820 0.620 0.192 1.000 0.820 0.620 0.192 1.000 0.000 0.020 1.000 1.000 0.820 0.620 0.192 1.000 0.820 0.620 0.192 1.000 0.424 0.008 0.820 1.000 0.424 0.008 0.820 1.000 0.820 0.620 0.192 1.000 0.820 0.620 0.192 1.000 0.820 0.620 0.192 1.000 0.820 0.620 0.192 1.000 0.820 0.620 0.192 1.000 0.000 0.020 1.000 1.000 0.780 0.043 0.820 1.000 0.780 0.043 0.820 1.000 0.780 0.043 0.820 1.000 0.000 0.020 1.000 1.000 0.000 0.020 1.000 1.000 0.000 0.020 1.000 1.000 0.780 0.043 0.820 1.000 0.780 0.043 0.820 1.000 0.780 0.043 0.820 1.000 0.424 0.008 0.820 1.000 0.424 0.008 0.820 1.000 0.424 0.008 0.820 1.000 0.424 0.008 0.820 1.000 0.424 0.008 0.820 1.000 0.820 0.620 0.192 1.000 0.820 0.620 0.192 1.000 0.820 0.620 0.192 1.000 0.424 0.008 0.820 1.000 0.820 0.620 0.192 1.000 0.820 0.620 0.192 1.000 0.780 0.043 0.820 1.000 0.000 0.020 1.000 1.000 0.780 0.043 0.820 1.000 0.000 0.020 1.000 1.000 0.000 0.020 1.000 1.000 0.820 0.620 0.192 1.000 0.424 0.008 0.820 1.000 0.820 0.620 0.192 1.000 0.424 0.008 0.820 1.000 0.000 0.020 1.000 1.000 " />
					</IndexedFaceSet>
				</Shape>
			</Group>
		</Transform>
	</Scene>
</X3D>