<?xml version="1.0" encoding="UTF-8"?>
<!DOCTYPE X3D PUBLIC "ISO//Web3D//DTD X3D 3.0//EN" "http://www.web3d.org/specifications/x3d-3.0.dtd">
<X3D version="3.0" profile="Immersive" xmlns:xsd="http://www.w3.org/2001/XMLSchema-instance" xsd:noNamespaceSchemaLocation="http://www.web3d.org/specifications/x3d-3.0.xsd">
	<head>
		<meta name="filename" content="champion.x3d" />
		<meta name="generator" content="Blender 4.0.2" />
	</head>
	<Scene>
		<NavigationInfo headlight="true"
		                visibilityLimit="0.0"
		                type='"EXAMINE", "ANY"'
		                avatarSize="0.25, 1.75, 0.75"
		                />
		<Background DEF="World"
		            groundColor="0.051 0.051 0.051"
		            skyColor="0.051 0.051 0.051"
		            />
		<Transform DEF="extru7_ifs_TRANSFORM"
		           translation="0.000000 0.000000 0.000000"
		           scale="1.000000 1.000000 1.000000"
		           rotation="0.000000 0.707107 0.707107 3.141593"
		           >
			<Group DEF="extru7_001">
				<Shape>
					<Appearance>
						<Material DEF="colored_polygons_003"
						          diffuseColor="0.800 0.800 0.800"
						          specularColor="0.401 0.401 0.401"
						          emissiveColor="0.000 0.000 0.000"
						          ambientIntensity="0.000"
						          shininess="0.500"
						          transparency="0.0"
						          />
					</Appearance>
					<IndexedFaceSet solid="false"
					                normalPerVertex="true"
					                colorPerVertex="false"
					                coordIndex="0 22 26 21 -1 1 23 22 0 -1 2 24 23 1 -1 3 25 24 2 -1 27 25 3 5 -1 6 28 27 5 -1 7 29 28 6 -1 8 30 29 7 -1 32 30 8 10 -1 11 33 32 10 -1 35 33 11 13 -1 14 34 35 13 -1 15 12 37 41 -1 31 12 15 17 -1 18 16 31 17 -1 19 9 16 18 -1 20 4 9 19 -1 21 26 4 20 -1 3 6 5 -1 28 25 27 -1 4 34 38 9 -1 25 28 29 24 -1 41 17 15 -1 6 3 2 7 -1 24 29 30 23 -1 7 2 1 8 -1 23 30 32 22 -1 8 1 0 10 -1 22 32 33 26 -1 10 0 21 11 -1 35 26 33 -1 21 13 11 -1 26 35 34 4 -1 13 21 20 14 -1 31 37 12 -1 14 20 19 40 -1 34 14 40 38 -1 38 40 39 36 -1 36 39 41 37 -1 9 38 36 16 -1 40 19 18 39 -1 16 36 37 31 -1 39 18 17 41 -1 59 42 58 75 -1 60 43 42 59 -1 61 44 43 60 -1 62 45 44 61 -1 63 46 45 62 -1 64 47 46 63 -1 65 48 47 64 -1 66 49 48 65 -1 67 50 49 66 -1 68 51 50 67 -1 69 52 51 68 -1 70 53 52 69 -1 71 54 53 70 -1 72 55 54 71 -1 73 56 55 72 -1 74 57 56 73 -1 75 58 57 74 -1 50 48 49 -1 65 67 66 -1 75 74 73 59 -1 57 58 42 56 -1 48 50 51 47 -1 67 65 64 68 -1 68 64 63 69 -1 47 51 52 46 -1 69 63 62 70 -1 46 52 53 45 -1 70 62 61 71 -1 71 61 60 72 -1 44 54 55 43 -1 43 55 56 42 -1 72 60 59 73 -1 54 44 45 53 -1 76 93 105 92 -1 77 94 93 76 -1 78 95 94 77 -1 79 96 95 78 -1 80 97 96 79 -1 81 98 97 80 -1 82 99 98 81 -1 83 100 99 82 -1 84 101 100 83 -1 85 102 101 84 -1 86 103 102 85 -1 87 104 103 86 -1 106 104 87 89 -1 90 107 106 89 -1 91 88 107 90 -1 92 105 88 91 -1 89 91 90 -1 88 106 107 -1 99 97 98 -1 80 82 81 -1 106 88 105 104 -1 91 89 87 92 -1 92 87 86 76 -1 104 105 93 103 -1 76 86 85 77 -1 103 93 94 102 -1 77 85 84 78 -1 102 94 95 101 -1 78 84 83 79 -1 101 95 96 100 -1 97 100 96 -1 100 97 99 -1 83 80 79 -1 80 83 82 -1 108 128 126 127 -1 109 129 128 108 -1 110 130 129 109 -1 111 131 130 110 -1 112 132 131 111 -1 113 133 132 112 -1 114 134 133 113 -1 115 135 134 114 -1 116 136 135 115 -1 117 137 136 116 -1 118 138 137 117 -1 119 139 138 118 -1 124 139 119 121 -1 122 124 121 123 -1 120 122 123 125 -1 126 120 125 127 -1 121 125 123 -1 120 124 122 -1 134 132 133 -1 112 114 113 -1 124 120 126 139 -1 125 121 119 127 -1 139 126 128 138 -1 127 119 118 108 -1 108 118 117 109 -1 138 128 129 137 -1 137 129 130 136 -1 109 117 116 110 -1 136 130 131 135 -1 110 116 115 111 -1 132 135 131 -1 132 134 135 -1 115 112 111 -1 112 115 114 -1 140 153 165 152 -1 141 154 153 140 -1 142 155 154 141 -1 143 156 155 142 -1 144 157 156 143 -1 145 158 157 144 -1 146 159 158 145 -1 148 161 160 147 -1 149 162 161 148 -1 150 163 162 149 -1 151 164 163 150 -1 152 165 164 151 -1 154 165 153 -1 152 141 140 -1 165 154 155 164 -1 141 152 151 142 -1 164 155 156 163 -1 142 151 150 143 -1 146 145 144 143 -1 157 158 159 156 -1 149 148 147 150 -1 160 161 162 163 -1 160 159 146 147 -1 160 163 156 159 -1 146 143 150 147 -1 166 176 185 175 -1 167 177 176 166 -1 168 178 177 167 -1 169 179 178 168 -1 170 180 179 169 -1 171 181 180 170 -1 172 182 181 171 -1 173 183 182 172 -1 174 184 183 173 -1 175 185 184 174 -1 172 174 173 -1 184 182 183 -1 176 184 185 -1 178 176 177 -1 180 178 179 -1 182 180 181 -1 176 182 184 -1 170 172 171 -1 168 170 169 -1 166 168 167 -1 174 166 175 -1 170 168 166 172 -1 178 180 182 176 -1 172 166 174 -1 "
					                >
						<Coordinate DEF="coords_extru7_001"
						            point="19.000000 145.000000 27.000000 41.000000 132.000000 27.000000 57.000000 116.000000 27.000000 68.000000 101.000000 27.000000 -37.000000 152.000000 -27.000000 76.000000 85.000000 27.000000 58.000000 95.000000 27.000000 47.000000 100.000000 27.000000 35.000000 106.000000 27.000000 -61.000000 146.000000 -27.000000 15.000000 114.000000 27.000000 4.000000 116.000000 27.000000 -102.000000 117.000000 -27.000000 -15.000000 117.000000 27.000000 -30.000000 117.000000 27.000000 -102.000000 117.000000 27.000000 -79.000000 137.000000 -27.000000 -92.000000 128.000000 27.000000 -79.000000 137.000000 27.000000 -61.000000 146.000000 27.000000 -37.000000 152.000000 27.000000 -8.000000 152.000000 27.000000 19.000000 145.000000 -27.000000 41.000000 132.000000 -27.000000 57.000000 116.000000 -27.000000 68.000000 101.000000 -27.000000 -8.000000 152.000000 -27.000000 76.000000 85.000000 -27.000000 58.000000 95.000000 -27.000000 47.000000 100.000000 -27.000000 35.000000 106.000000 -27.000000 -92.000000 128.000000 -27.000000 15.000000 114.000000 -27.000000 4.000000 116.000000 -27.000000 -30.000000 117.000000 -27.000000 -15.000000 117.000000 -27.000000 -66.000000 117.000000 -27.000000 -84.000000 117.000000 -27.000000 -48.000000 117.000000 -27.000000 -66.000000 117.000000 27.000000 -48.000000 117.000000 27.000000 -84.000000 117.000000 27.000000 -43.000000 106.000000 27.000000 -35.000000 104.000000 27.000000 -21.000000 99.000000 27.000000 -10.000000 92.000000 27.000000 1.000000 82.000000 27.000000 34.000000 49.000000 27.000000 60.000000 22.000000 27.000000 83.000000 23.000000 27.000000 82.000000 44.000000 27.000000 53.000000 67.000000 27.000000 19.000000 94.000000 27.000000 9.000000 99.000000 27.000000 -5.000000 106.000000 27.000000 -27.000000 112.000000 27.000000 -39.000000 112.000000 27.000000 -106.000000 112.000000 27.000000 -110.000000 106.000000 27.000000 -43.000000 106.000000 -27.000000 -35.000000 104.000000 -27.000000 -21.000000 99.000000 -27.000000 -10.000000 92.000000 -27.000000 1.000000 82.000000 -27.000000 34.000000 49.000000 -27.000000 60.000000 22.000000 -27.000000 83.000000 23.000000 -27.000000 82.000000 44.000000 -27.000000 53.000000 67.000000 -27.000000 19.000000 94.000000 -27.000000 9.000000 99.000000 -27.000000 -5.000000 106.000000 -27.000000 -27.000000 112.000000 -27.000000 -39.000000 112.000000 -27.000000 -106.000000 112.000000 -27.000000 -110.000000 106.000000 -27.000000 -25.000000 58.000000 27.000000 -39.000000 76.000000 27.000000 -55.000000 87.000000 27.000000 -68.000000 93.000000 27.000000 -95.000000 95.000000 27.000000 -116.000000 95.000000 27.000000 -112.000000 102.000000 27.000000 -61.000000 102.000000 27.000000 -49.000000 100.000000 27.000000 -32.000000 95.000000 27.000000 -17.000000 84.000000 27.000000 -7.000000 74.000000 27.000000 18.000000 -40.000000 -27.000000 57.000000 -16.000000 27.000000 50.000000 -47.000000 27.000000 18.000000 -40.000000 27.000000 -19.000000 47.000000 27.000000 -25.000000 58.000000 -27.000000 -39.000000 76.000000 -27.000000 -55.000000 87.000000 -27.000000 -68.000000 93.000000 -27.000000 -95.000000 95.000000 -27.000000 -116.000000 95.000000 -27.000000 -112.000000 102.000000 -27.000000 -61.000000 102.000000 -27.000000 -49.000000 100.000000 -27.000000 -32.000000 95.000000 -27.000000 -17.000000 84.000000 -27.000000 -7.000000 74.000000 -27.000000 -19.000000 47.000000 -27.000000 57.000000 -16.000000 -27.000000 50.000000 -47.000000 -27.000000 -51.000000 44.000000 27.000000 -57.000000 62.000000 27.000000 -68.000000 74.000000 27.000000 -80.000000 80.000000 27.000000 -103.000000 83.000000 27.000000 -120.000000 84.000000 27.000000 -118.000000 90.000000 27.000000 -79.000000 89.000000 27.000000 -67.000000 86.000000 27.000000 -46.000000 75.000000 27.000000 -32.000000 58.000000 27.000000 -26.000000 40.000000 27.000000 -64.000000 -34.000000 -27.000000 -22.000000 -35.000000 27.000000 -43.000000 -57.000000 -27.000000 -43.000000 -57.000000 27.000000 -22.000000 -35.000000 -27.000000 -64.000000 -34.000000 27.000000 -50.000000 33.000000 -27.000000 -50.000000 33.000000 27.000000 -51.000000 44.000000 -27.000000 -57.000000 62.000000 -27.000000 -68.000000 74.000000 -27.000000 -80.000000 80.000000 -27.000000 -103.000000 83.000000 -27.000000 -120.000000 84.000000 -27.000000 -118.000000 90.000000 -27.000000 -79.000000 89.000000 -27.000000 -67.000000 86.000000 -27.000000 -46.000000 75.000000 -27.000000 -32.000000 58.000000 -27.000000 -26.000000 40.000000 -27.000000 104.000000 -134.000000 27.000000 96.000000 -133.000000 27.000000 63.000000 -93.000000 27.000000 56.000000 -90.000000 27.000000 44.000000 -86.000000 27.000000 37.000000 -74.000000 27.000000 39.000000 -58.000000 27.000000 68.000000 -42.000000 27.000000 82.000000 -46.000000 27.000000 90.000000 -59.000000 27.000000 87.000000 -70.000000 27.000000 87.000000 -77.000000 27.000000 107.000000 -127.000000 27.000000 104.000000 -134.000000 -27.000000 96.000000 -133.000000 -27.000000 63.000000 -93.000000 -27.000000 56.000000 -90.000000 -27.000000 44.000000 -86.000000 -27.000000 37.000000 -74.000000 -27.000000 39.000000 -58.000000 -27.000000 68.000000 -42.000000 -27.000000 82.000000 -46.000000 -27.000000 90.000000 -59.000000 -27.000000 87.000000 -70.000000 -27.000000 87.000000 -77.000000 -27.000000 107.000000 -127.000000 -27.000000 103.000000 -143.000000 27.000000 98.000000 -136.000000 27.000000 106.000000 -137.000000 27.000000 109.000000 -130.000000 27.000000 112.000000 -137.000000 27.000000 120.000000 -139.000000 27.000000 114.000000 -143.000000 27.000000 115.000000 -152.000000 27.000000 108.000000 -147.000000 27.000000 101.000000 -150.000000 27.000000 103.000000 -143.000000 -27.000000 98.000000 -136.000000 -27.000000 106.000000 -137.000000 -27.000000 109.000000 -130.000000 -27.000000 112.000000 -137.000000 -27.000000 120.000000 -139.000000 -27.000000 114.000000 -143.000000 -27.000000 115.000000 -152.000000 -27.000000 108.000000 -147.000000 -27.000000 101.000000 -150.000000 -27.000000 "
						            />
						<Normal DEF="normals_extru7_001"
						        vector="0.282322 0.679678 0.677002 0.449333 0.579493 0.679918 0.549100 0.471083 0.690340 0.618896 0.377916 0.688584 -0.089517 0.727154 -0.680612 0.580837 -0.606640 0.542785 -0.314080 -0.623142 0.716274 -0.306241 -0.641917 0.702964 -0.285736 -0.636290 0.716582 -0.253302 0.684740 -0.683352 -0.188886 -0.656426 0.730361 -0.080265 -0.687532 0.721704 -0.764874 -0.338357 -0.548162 -0.018431 -0.700849 0.713072 0.000000 -0.707107 0.707107 -0.764874 -0.338357 0.548162 -0.368049 0.621592 -0.691494 -0.481569 0.549884 0.682436 -0.368049 0.621592 0.691494 -0.253302 0.684740 0.683352 -0.089517 0.727154 0.680612 0.092783 0.727587 0.679713 0.282322 0.679678 -0.677002 0.449333 0.579493 -0.679918 0.549100 0.471083 -0.690340 0.618896 0.377916 -0.688584 0.092783 0.727587 -0.679713 0.580837 -0.606640 -0.542785 -0.314080 -0.623142 -0.716274 -0.306241 -0.641917 -0.702964 -0.285736 -0.636290 -0.716582 -0.481569 0.549884 -0.682436 -0.188886 -0.656426 -0.730361 -0.080265 -0.687532 -0.721704 0.000000 -0.707107 -0.707107 -0.018431 -0.700849 -0.713072 0.000000 -0.707107 -0.707107 0.000000 -0.707107 -0.707107 0.000000 -0.707107 -0.707107 0.000000 -0.707107 0.707107 0.000000 -0.707107 0.707107 0.000000 -0.707107 0.707107 -0.082760 -0.672265 0.735670 -0.201611 -0.665876 0.718305 -0.298805 -0.610949 0.733115 -0.416879 -0.545799 0.726853 -0.484213 -0.507819 0.712501 -0.503170 -0.493766 0.709236 -0.289787 -0.724676 0.625194 0.603136 -0.550586 0.577133 0.694731 0.356340 0.624796 0.439521 0.553825 0.707177 0.391787 0.614761 0.684523 0.316228 0.632456 0.707107 0.259822 0.680047 0.685586 0.097516 0.728177 0.678416 0.000000 0.707107 0.707107 -0.372171 0.695409 0.614732 -0.734845 -0.393277 0.552572 -0.082760 -0.672265 -0.735670 -0.201611 -0.665876 -0.718305 -0.298805 -0.610949 -0.733115 -0.416879 -0.545799 -0.726853 -0.484213 -0.507819 -0.712501 -0.503170 -0.493766 -0.709236 -0.289787 -0.724676 -0.625194 0.603136 -0.550586 -0.577133 0.694731 0.356340 -0.624796 0.439521 0.553825 -0.707177 0.391787 0.614761 -0.684523 0.316228 0.632456 -0.707107 0.259822 0.680047 -0.685586 0.097516 0.728177 -0.678416 0.000000 0.707107 -0.707107 -0.372171 0.695409 -0.614732 -0.734845 -0.393277 -0.552572 -0.575383 -0.377133 0.725744 -0.458963 -0.486754 0.743252 -0.339747 -0.597047 0.726710 -0.165811 -0.640878 0.749521 -0.025821 -0.698114 0.715521 -0.719561 -0.417577 0.554853 -0.397854 0.685574 0.609673 0.059778 0.722287 0.689005 0.161104 0.701958 0.693758 0.329064 0.665176 0.670267 0.471083 0.549100 0.690340 0.553659 0.468020 0.688781 -0.502180 -0.605957 -0.616953 0.764743 0.153454 0.625795 0.438187 -0.688657 0.577705 -0.502180 -0.605957 0.616953 -0.626333 -0.303118 0.718211 -0.575383 -0.377133 -0.725744 -0.458963 -0.486754 -0.743252 -0.339747 -0.597047 -0.726710 -0.165811 -0.640878 -0.749521 -0.025821 -0.698114 -0.715521 -0.719561 -0.417577 -0.554853 -0.397854 0.685574 -0.609673 0.059778 0.722287 -0.689005 0.161104 0.701958 -0.693758 0.329064 0.665176 -0.670267 0.471083 0.549100 -0.690340 0.553659 0.468020 -0.688781 -0.626333 -0.303118 -0.718211 0.764743 0.153454 -0.625795 0.438187 -0.688657 -0.577705 -0.664761 -0.139054 0.734000 -0.562960 -0.331248 0.757199 -0.398073 -0.527737 0.750354 -0.194521 -0.636319 0.746498 -0.065763 -0.695842 0.715177 -0.683363 -0.462659 0.564767 -0.461746 0.658264 0.594541 0.098494 0.723481 0.683281 0.260403 0.684036 0.681385 0.470844 0.579647 0.665067 0.650967 0.360149 0.668233 0.722006 0.136998 0.678188 -0.758692 -0.207519 -0.617513 0.729993 -0.270141 0.627801 -0.009079 -0.818928 -0.573825 -0.009079 -0.818928 0.573825 0.729993 -0.270141 -0.627801 -0.758692 -0.207519 0.617513 -0.669360 0.038642 -0.741932 -0.669360 0.038642 0.741932 -0.664761 -0.139054 -0.734000 -0.562960 -0.331248 -0.757199 -0.398073 -0.527737 -0.750354 -0.194521 -0.636319 -0.746498 -0.065763 -0.695842 -0.715177 -0.683363 -0.462659 -0.564767 -0.461746 0.658264 -0.594541 0.098494 0.723481 -0.683281 0.260403 0.684036 -0.681385 0.470844 0.579647 -0.665067 0.650967 0.360149 -0.668233 0.722006 0.136998 -0.678188 0.400427 -0.698105 0.593555 -0.373101 -0.678635 0.632653 -0.386677 -0.516168 0.764233 -0.247879 -0.651971 0.716582 -0.486748 -0.599173 0.635663 -0.751474 -0.153787 0.641588 -0.650988 0.441071 0.617795 -0.087471 0.771241 0.630505 0.467232 0.616249 0.633980 0.770623 0.110722 0.627599 0.668571 -0.089534 0.738239 0.646987 0.124598 0.752252 0.776324 -0.009466 0.630262 0.400427 -0.698105 -0.593555 -0.373101 -0.678635 -0.632653 -0.386677 -0.516168 -0.764233 -0.247879 -0.651971 -0.716582 -0.486748 -0.599173 -0.635663 -0.751474 -0.153787 -0.641588 -0.650988 0.441071 -0.617795 -0.087471 0.771241 -0.630505 0.467232 0.616249 -0.633980 0.770623 0.110722 -0.627599 0.668571 -0.089534 -0.738239 0.646987 0.124598 -0.752252 0.776324 -0.009466 -0.630262 -0.565333 -0.097611 0.819067 -0.718560 0.428240 0.547980 -0.245212 0.427503 0.870122 0.000000 0.836775 0.547546 0.369225 0.433549 0.822015 0.824101 0.142746 0.548162 0.485169 -0.226082 0.844688 0.423187 -0.721268 0.548349 -0.059016 -0.545958 0.835732 -0.552152 -0.626879 0.549683 -0.565333 -0.097611 -0.819067 -0.718560 0.428240 -0.547980 -0.245212 0.427503 -0.870122 0.000000 0.836775 -0.547546 0.369225 0.433549 -0.822015 0.824101 0.142746 -0.548162 0.485169 -0.226082 -0.844688 0.423187 -0.721268 -0.548349 -0.059016 -0.545958 -0.835732 -0.552152 -0.626879 -0.549683 "
						        />
						<ColorRGBA color="0.008 0.000 1.000 1.000 0.008 0.000 1.000 1.000 0.008 0.000 1.000 1.000 0.008 0.000 1.000 1.000 0.008 0.000 1.000 1.000 0.004 0.000 0.494 1.000 0.004 0.000 0.494 1.000 0.004 0.000 0.494 1.000 0.004 0.000 0.494 1.000 0.004 0.000 0.494 1.000 0.004 0.000 0.494 1.000 0.004 0.000 0.494 1.000 0.004 0.000 0.494 1.000 0.000 0.000 0.188 1.000 0.000 0.000 0.188 1.000 0.000 0.000 0.188 1.000 0.000 0.000 0.188 1.000 0.008 0.000 1.000 1.000 0.008 0.000 0.925 1.000 0.008 0.000 0.925 1.000 0.008 0.000 0.925 1.000 0.008 0.000 0.925 1.000 0.008 0.000 0.925 1.000 0.008 0.000 0.925 1.000 0.008 0.000 0.925 1.000 0.008 0.000 0.925 1.000 0.008 0.000 0.925 1.000 0.008 0.000 0.925 1.000 0.008 0.000 0.925 1.000 0.008 0.000 0.925 1.000 0.008 0.000 0.925 1.000 0.008 0.000 0.925 1.000 0.008 0.000 0.925 1.000 0.008 0.000 0.925 1.000 0.008 0.000 0.925 1.000 0.008 0.000 0.925 1.000 0.004 0.000 0.494 1.000 0.004 0.000 0.494 1.000 0.004 0.000 0.494 1.000 0.008 0.000 0.925 1.000 0.008 0.000 0.925 1.000 0.008 0.000 0.925 1.000 0.008 0.000 0.925 1.000 0.004 0.000 0.494 1.000 0.004 0.000 0.494 1.000 0.004 0.000 0.494 1.000 0.004 0.000 0.494 1.000 0.004 0.000 0.494 1.000 0.004 0.000 0.494 1.000 0.004 0.000 0.494 1.000 0.004 0.000 0.494 1.000 0.008 0.000 1.000 1.000 0.008 0.000 1.000 1.000 0.008 0.000 1.000 1.000 0.008 0.000 1.000 1.000 0.008 0.000 1.000 1.000 0.008 0.000 0.925 1.000 0.000 0.000 0.188 1.000 0.000 0.000 0.188 1.000 0.000 0.000 0.188 1.000 0.008 0.000 0.925 1.000 0.008 0.000 0.925 1.000 0.008 0.000 0.925 1.000 0.008 0.000 0.925 1.000 0.008 0.000 0.925 1.000 0.008 0.000 0.925 1.000 0.008 0.000 0.925 1.000 0.008 0.000 0.925 1.000 0.008 0.000 0.925 1.000 0.008 0.000 0.925 1.000 0.008 0.000 0.925 1.000 0.008 0.000 0.925 1.000 0.008 0.000 0.925 1.000 0.008 0.000 0.925 1.000 0.008 0.000 0.925 1.000 0.008 0.000 0.925 1.000 0.004 0.000 0.494 1.000 0.004 0.000 0.494 1.000 0.004 0.000 0.494 1.000 0.004 0.000 0.494 1.000 0.004 0.000 0.494 1.000 0.004 0.000 0.494 1.000 0.000 0.000 0.188 1.000 0.000 0.000 0.188 1.000 0.000 0.000 0.188 1.000 0.008 0.000 0.925 1.000 0.008 0.000 1.000 1.000 0.008 0.000 1.000 1.000 0.008 0.000 1.000 1.000 0.008 0.000 1.000 1.000 0.004 0.000 0.494 1.000 0.004 0.000 0.494 1.000 0.008 0.000 0.925 1.000 0.008 0.000 0.925 1.000 0.008 0.000 0.925 1.000 0.008 0.000 0.925 1.000 0.008 0.000 0.925 1.000 0.008 0.000 0.925 1.000 0.008 0.000 0.925 1.000 0.008 0.000 0.925 1.000 0.008 0.000 0.925 1.000 0.008 0.000 0.925 1.000 0.008 0.000 0.925 1.000 0.008 0.000 0.925 1.000 0.008 0.000 0.925 1.000 0.008 0.000 0.925 1.000 0.008 0.000 0.925 1.000 0.008 0.000 0.925 1.000 0.008 0.000 0.925 1.000 0.008 0.000 0.925 1.000 0.004 0.000 0.494 1.000 0.004 0.000 0.494 1.000 0.004 0.000 0.494 1.000 0.004 0.000 0.494 1.000 0.004 0.000 0.494 1.000 0.004 0.000 0.494 1.000 0.000 0.000 0.188 1.000 0.000 0.000 0.188 1.000 0.000 0.000 0.188 1.000 0.008 0.000 0.925 1.000 0.008 0.000 1.000 1.000 0.008 0.000 1.000 1.000 0.008 0.000 1.000 1.000 0.008 0.000 0.925 1.000 0.004 0.000 0.494 1.000 0.004 0.000 0.494 1.000 0.008 0.000 0.925 1.000 0.008 0.000 0.925 1.000 0.008 0.000 0.925 1.000 0.008 0.000 0.925 1.000 0.008 0.000 0.925 1.000 0.008 0.000 0.925 1.000 0.008 0.000 0.925 1.000 0.008 0.000 0.925 1.000 0.008 0.000 0.925 1.000 0.008 0.000 0.925 1.000 0.008 0.000 0.925 1.000 0.008 0.000 0.925 1.000 0.008 0.000 0.925 1.000 0.008 0.000 0.925 1.000 0.008 0.000 0.925 1.000 0.008 0.000 0.925 1.000 0.008 0.000 0.925 1.000 0.008 0.000 0.925 1.000 0.008 0.000 0.925 1.000 0.004 0.000 0.494 1.000 0.004 0.000 0.494 1.000 0.004 0.000 0.494 1.000 0.004 0.000 0.494 1.000 0.004 0.000 0.494 1.000 0.004 0.000 0.494 1.000 0.008 0.000 0.925 1.000 0.008 0.000 1.000 1.000 0.008 0.000 1.000 1.000 0.008 0.000 1.000 1.000 0.008 0.000 1.000 1.000 0.008 0.000 0.925 1.000 0.008 0.000 0.925 1.000 0.008 0.000 0.925 1.000 0.008 0.000 0.925 1.000 0.008 0.000 0.925 1.000 0.008 0.000 0.925 1.000 0.008 0.000 0.925 1.000 0.008 0.000 0.925 1.000 0.008 0.000 0.925 1.000 0.008 0.000 0.925 1.000 0.000 0.000 0.188 1.000 0.008 0.000 0.925 1.000 0.008 0.000 0.925 1.000 0.000 0.000 0.188 1.000 0.004 0.000 0.494 1.000 0.000 0.000 0.188 1.000 0.000 0.000 0.188 1.000 0.008 0.000 1.000 1.000 0.008 0.000 0.925 1.000 0.008 0.000 1.000 1.000 0.008 0.000 1.000 1.000 0.004 0.000 0.494 1.000 0.004 0.000 0.494 1.000 0.008 0.000 0.925 1.000 0.008 0.000 0.925 1.000 0.008 0.000 0.925 1.000 0.008 0.000 0.925 1.000 0.008 0.000 0.925 1.000 0.008 0.000 0.925 1.000 0.008 0.000 0.925 1.000 0.008 0.000 0.925 1.000 0.008 0.000 0.925 1.000 0.008 0.000 0.925 1.000 0.008 0.000 0.925 1.000 0.008 0.000 0.925 1.000 0.008 0.000 0.925 1.000 0.008 0.000 0.925 1.000 " />
					</IndexedFaceSet>
				</Shape>
			</Group>
		</Transform>
	</Scene>
</X3D>