<?xml version="1.0" encoding="UTF-8"?>
<!DOCTYPE X3D PUBLIC "ISO//Web3D//DTD X3D 3.0//EN" "http://www.web3d.org/specifications/x3d-3.0.dtd">
<X3D version="3.0" profile="Immersive" xmlns:xsd="http://www.w3.org/2001/XMLSchema-instance" xsd:noNamespaceSchemaLocation="http://www.web3d.org/specifications/x3d-3.0.xsd">
	<head>
		<meta name="filename" content="chrono.x3d" />
		<meta name="generator" content="Blender 4.0.2" />
	</head>
	<Scene>
		<NavigationInfo headlight="true"
		                visibilityLimit="0.0"
		                type='"EXAMINE", "ANY"'
		                avatarSize="0.25, 1.75, 0.75"
		                />
		<Background DEF="World"
		            groundColor="0.051 0.051 0.051"
		            skyColor="0.051 0.051 0.051"
		            />
		<Transform DEF="Chrono_ifs_TRANSFORM"
		           translation="0.000000 0.000000 0.000000"
		           scale="1.000000 1.000000 1.000000"
		           rotation="0.000000 0.707107 0.707107 3.141593"
		           >
			<Group DEF="Chrono_001">
				<Shape>
					<Appearance>
						<Material DEF="colored_polygons"
						          diffuseColor="0.800 0.800 0.800"
						          specularColor="0.401 0.401 0.401"
						          emissiveColor="0.000 0.000 0.000"
						          ambientIntensity="0.000"
						          shininess="0.500"
						          transparency="0.0"
						          />
					</Appearance>
					<IndexedFaceSet solid="false"
					                normalPerVertex="true"
					                colorPerVertex="false"
					                coordIndex="67 131 95 97 -1 64 0 2 4 -1 28 64 24 26 -1 24 64 20 22 -1 20 64 16 18 -1 16 64 12 14 -1 12 64 8 10 -1 64 4 6 8 -1 65 149 147 145 -1 131 67 69 71 -1 95 131 91 93 -1 91 131 87 89 -1 87 131 83 85 -1 83 131 79 81 -1 79 131 75 77 -1 131 71 73 75 -1 65 173 171 169 -1 247 248 249 266 -1 250 251 266 249 -1 251 252 253 266 -1 253 254 255 266 -1 255 256 257 266 -1 257 258 259 266 -1 259 260 261 266 -1 261 262 263 266 -1 263 264 265 266 -1 265 235 234 266 -1 234 236 237 266 -1 237 238 239 266 -1 239 240 241 266 -1 241 242 243 266 -1 65 145 143 140 -1 245 246 247 266 -1 272 271 273 274 -1 65 197 195 193 -1 151 149 65 153 -1 159 157 65 161 -1 65 169 167 165 -1 65 177 175 173 -1 65 181 179 177 -1 65 185 183 181 -1 189 187 185 65 -1 65 201 199 197 -1 140 141 201 65 -1 10 8 36 37 -1 73 71 101 102 -1 20 18 41 42 -1 53 11 9 52 -1 36 8 6 35 -1 61 27 25 60 -1 95 93 112 113 -1 115 70 68 116 -1 51 7 5 50 -1 18 16 40 41 -1 168 166 167 169 -1 26 24 44 45 -1 60 25 23 59 -1 38 12 10 37 -1 107 83 81 106 -1 28 26 45 46 -1 52 9 7 51 -1 47 15 17 33 -1 50 5 3 48 -1 62 29 27 61 -1 62 63 31 29 -1 49 1 31 63 -1 56 57 19 17 -1 111 91 89 110 -1 117 118 74 72 -1 122 123 84 82 -1 54 13 11 53 -1 67 97 114 100 -1 48 3 1 49 -1 35 6 4 34 -1 40 16 14 39 -1 24 22 43 44 -1 2 0 33 32 -1 40 39 31 1 -1 99 86 88 101 -1 32 19 21 34 -1 39 38 29 31 -1 45 44 9 11 -1 3 41 40 1 -1 102 90 92 103 -1 41 3 5 42 -1 33 17 19 32 -1 113 112 78 80 -1 27 29 38 37 -1 25 27 37 36 -1 104 94 96 105 -1 47 46 13 15 -1 109 72 74 110 -1 85 83 107 108 -1 79 77 104 105 -1 116 68 98 130 -1 129 130 98 96 -1 103 75 73 102 -1 81 79 105 106 -1 193 192 190 191 -1 59 23 21 58 -1 57 58 21 19 -1 121 80 78 120 -1 135 161 159 134 -1 93 91 111 112 -1 55 56 17 15 -1 34 4 2 32 -1 117 72 70 115 -1 55 15 13 54 -1 99 69 67 100 -1 114 82 84 100 -1 127 92 90 126 -1 120 78 76 119 -1 87 85 108 109 -1 0 30 47 33 -1 124 86 84 123 -1 30 28 46 47 -1 125 88 86 124 -1 126 90 88 125 -1 77 75 103 104 -1 229 192 194 230 -1 121 122 82 80 -1 127 128 94 92 -1 118 119 76 74 -1 129 96 94 128 -1 97 95 113 114 -1 106 105 96 98 -1 100 84 86 99 -1 114 113 80 82 -1 35 23 25 36 -1 107 106 98 68 -1 109 108 70 72 -1 43 42 5 7 -1 102 101 88 90 -1 112 111 76 78 -1 110 74 76 111 -1 34 21 23 35 -1 92 94 104 103 -1 45 11 13 46 -1 43 7 9 44 -1 218 170 172 219 -1 224 182 184 225 -1 221 176 178 222 -1 216 166 168 217 -1 226 186 188 227 -1 225 184 186 226 -1 217 168 170 218 -1 224 223 180 182 -1 202 233 200 138 -1 204 142 144 205 -1 209 152 154 210 -1 214 162 164 215 -1 211 156 158 212 -1 214 213 160 162 -1 216 215 164 166 -1 221 220 174 176 -1 204 203 139 142 -1 268 267 269 270 -1 206 146 148 207 -1 230 194 196 231 -1 213 212 158 160 -1 206 205 144 146 -1 219 172 174 220 -1 208 207 148 150 -1 228 190 192 229 -1 108 107 68 70 -1 232 231 196 198 -1 210 154 156 211 -1 232 198 200 233 -1 202 138 139 203 -1 208 150 152 209 -1 222 178 180 223 -1 228 227 188 190 -1 189 65 193 191 -1 0 64 28 30 -1 153 65 157 155 -1 161 65 165 163 -1 189 191 190 188 -1 188 186 187 189 -1 187 186 184 185 -1 184 182 183 185 -1 182 180 181 183 -1 180 178 179 181 -1 178 176 177 179 -1 176 174 175 177 -1 174 172 173 175 -1 172 170 171 173 -1 171 170 168 169 -1 163 165 164 162 -1 166 164 165 167 -1 157 156 154 155 -1 154 152 153 155 -1 39 14 12 38 -1 161 163 162 160 -1 110 89 87 109 -1 149 151 150 148 -1 152 150 151 153 -1 148 146 147 149 -1 158 156 157 159 -1 145 147 146 144 -1 143 145 144 142 -1 142 139 140 143 -1 138 139 132 133 -1 141 138 200 201 -1 199 201 200 198 -1 198 196 197 199 -1 195 197 196 194 -1 194 192 193 195 -1 22 20 42 43 -1 71 69 99 101 -1 243 244 245 266 -1 "
					                >
						<Coordinate DEF="coords_Chrono_001"
						            point="-67.132530 -115.821716 -22.538532 -59.632530 -102.831329 -6.143644 -63.818390 -117.735130 -21.777327 -61.751884 -101.607727 -6.630426 -61.008801 -119.357246 -19.609598 -63.548584 -100.570396 -8.016663 -59.131493 -120.441109 -16.365366 -64.749100 -99.877281 -10.091314 -58.472271 -120.821709 -12.538531 -65.170670 -99.633888 -12.538531 -59.131493 -120.441109 -8.711697 -64.749100 -99.877281 -14.985748 -61.008801 -119.357246 -5.467463 -63.548584 -100.570396 -17.060400 -63.818390 -117.735130 -3.299736 -61.751884 -101.607727 -18.446638 -67.132530 -115.821716 -2.538531 -59.632530 -102.831329 -18.933420 -70.446663 -113.908295 -3.299736 -57.513180 -104.054939 -18.446638 -73.256256 -112.286179 -5.467463 -55.716476 -105.092262 -17.060400 -75.133560 -111.202316 -8.711697 -54.515961 -105.785385 -14.985748 -75.792786 -110.821716 -12.538531 -54.094395 -106.028778 -12.538531 -75.133560 -111.202316 -16.365366 -54.515961 -105.785385 -10.091314 -73.256256 -112.286179 -19.609598 -55.716476 -105.092262 -8.016663 -70.446663 -113.908295 -21.777327 -57.513180 -104.054939 -6.630426 -56.318394 -104.744751 -21.777327 -59.632530 -102.831329 -22.538532 -53.508804 -106.366867 -19.609600 -51.631500 -107.450729 -16.365366 -50.972275 -107.831329 -12.538531 -51.631500 -107.450729 -8.711697 -53.508804 -106.366867 -5.467464 -56.318394 -104.744751 -3.299736 -59.632530 -102.831329 -2.538531 -62.946667 -100.917915 -3.299736 -65.756256 -99.295799 -5.467464 -67.633560 -98.211937 -8.711697 -68.292786 -97.831337 -12.538531 -67.633560 -98.211937 -16.365366 -65.756256 -99.295799 -19.609600 -62.946667 -100.917915 -21.777327 -51.733574 -84.255493 -6.630427 -49.614220 -85.479103 -6.143645 -53.530273 -83.218163 -8.016665 -54.730789 -82.525047 -10.091315 -55.152355 -82.281654 -12.538532 -54.730789 -82.525047 -14.985749 -53.530273 -83.218163 -17.060402 -51.733574 -84.255493 -18.446638 -49.614220 -85.479103 -18.933420 -47.494865 -86.702705 -18.446638 -45.698166 -87.740036 -17.060402 -44.497650 -88.433151 -14.985749 -44.076084 -88.676544 -12.538532 -44.497650 -88.433151 -10.091315 -45.698166 -87.740036 -8.016665 -47.494865 -86.702705 -6.630427 -67.132530 -115.821716 -12.538531 -1.000000 1.000000 -0.000001 55.557037 -83.146935 -30.000000 68.425774 -115.821678 -24.027460 60.925758 -102.831299 -7.632572 71.739906 -113.908257 -23.266254 58.806404 -104.054909 -8.119354 74.549492 -112.286140 -21.098526 57.009712 -105.092232 -9.505591 76.426796 -111.202278 -17.854294 55.809196 -105.785355 -11.580243 77.086037 -110.821678 -14.027459 55.387627 -106.028740 -14.027460 76.426796 -111.202278 -10.200625 55.809196 -105.785355 -16.474678 74.549492 -112.286140 -6.956392 57.009712 -105.092232 -18.549328 71.739906 -113.908257 -4.788665 58.806419 -104.054909 -19.935566 68.425774 -115.821678 -4.027460 60.925758 -102.831299 -20.422348 65.111626 -117.735100 -4.788664 63.045113 -101.607689 -19.935566 62.302044 -119.357216 -6.956392 64.841835 -100.570366 -18.549330 60.424740 -120.441078 -10.200624 66.042336 -99.877251 -16.474678 59.765522 -120.821678 -14.027460 66.463905 -99.633858 -14.027460 60.424740 -120.441078 -17.854294 66.042336 -99.877251 -11.580243 62.302044 -119.357216 -21.098526 64.841820 -100.570366 -9.505591 65.111626 -117.735100 -23.266254 63.045113 -101.607689 -8.119354 64.239906 -100.917885 -23.266254 60.925758 -102.831299 -24.027460 67.049492 -99.295769 -21.098526 68.926796 -98.211906 -17.854296 69.586021 -97.831299 -14.027460 68.926796 -98.211906 -10.200626 67.049492 -99.295769 -6.956392 64.239906 -100.917885 -4.788665 60.925758 -102.831299 -4.027460 57.611641 -104.744713 -4.788665 54.802040 -106.366837 -6.956393 52.924736 -107.450699 -10.200625 52.265511 -107.831306 -14.027460 52.924736 -107.450699 -17.854294 54.802040 -106.366837 -21.098528 57.611641 -104.744713 -23.266254 48.788101 -86.702675 -8.119355 50.907448 -85.479073 -7.632573 46.991402 -87.740013 -9.505592 45.790878 -88.433128 -11.580244 45.369316 -88.676514 -14.027461 45.790878 -88.433128 -16.474678 46.991402 -87.740013 -18.549330 48.788101 -86.702675 -19.935566 50.907448 -85.479073 -20.422348 53.026802 -84.255463 -19.935566 54.823494 -83.218140 -18.549330 56.024025 -82.525017 -16.474678 56.445580 -82.281624 -14.027461 56.024025 -82.525017 -11.580244 54.823494 -83.218140 -9.505592 53.026802 -84.255463 -8.119355 68.425774 -115.821678 -14.027460 19.493713 98.001610 -0.000001 -0.000016 99.921593 -0.000001 92.315498 -38.238312 -30.000000 83.081764 -55.513439 -30.000000 55.557037 -83.146935 -30.000000 55.513474 -83.081734 -30.000000 -0.000016 99.921593 -30.000000 19.493713 98.001610 -30.000000 19.493713 98.001610 -0.000001 -0.000016 99.921593 -0.000001 38.238312 92.315521 -30.000000 38.238312 92.315521 0.000000 55.513443 83.081772 -30.000000 55.513443 83.081772 0.000000 70.655220 70.655243 -30.000000 70.655220 70.655243 -0.000001 83.081734 55.513458 -30.000000 83.081734 55.513458 -0.000001 92.315498 38.238365 -30.000000 92.315498 38.238365 0.000000 98.001617 19.493767 -30.000000 98.001617 19.493767 -0.000001 99.921585 0.000032 -30.000000 99.921585 0.000032 -0.000001 98.001617 -19.493706 -30.000004 98.001617 -19.493706 -0.000001 92.315498 -38.238312 -30.000000 92.315498 -38.238312 0.000000 83.081764 -55.513439 -30.000000 83.081764 -55.513447 0.000000 70.655251 -70.655212 -30.000000 70.655251 -70.655212 -0.000001 55.513474 -83.081734 -30.000000 55.513474 -83.081734 -0.000001 38.238350 -92.315498 -30.000004 38.238350 -92.315498 -0.000001 19.493752 -98.001617 -30.000000 19.493752 -98.001617 0.000000 0.000024 -99.921585 -30.000000 0.000024 -99.921585 -0.000001 -19.493713 -98.001617 -30.000000 -19.493713 -98.001617 0.000000 -38.238316 -92.315506 -30.000000 -38.238316 -92.315506 -0.000001 -55.513443 -83.081764 -30.000000 -55.513443 -83.081764 -0.000001 -70.655212 -70.655243 -30.000000 -70.655212 -70.655243 0.000000 -83.081741 -55.513474 -30.000000 -83.081741 -55.513474 -0.000001 -92.315498 -38.238350 -30.000000 -92.315498 -38.238350 -0.000001 -98.001610 -19.493752 -30.000000 -98.001610 -19.493752 -0.000001 -99.921585 -0.000016 -30.000000 -99.921585 -0.000016 -0.000001 -98.001617 19.493721 -30.000000 -98.001617 19.493721 0.000000 -92.315514 38.238319 -30.000000 -92.315514 38.238319 -0.000001 -83.081764 55.513443 -30.000000 -83.081764 55.513443 -0.000001 -70.655243 70.655197 -30.000000 -70.655243 70.655197 -0.000001 -55.513481 83.081726 -30.000000 -55.513481 83.081726 -0.000001 -38.238350 92.315506 -30.000000 -38.238350 92.315506 -0.000001 -19.493755 98.001610 -30.000000 -19.493755 98.001610 -0.000001 -0.000016 88.062492 -30.000000 17.180119 86.370377 -30.000000 33.700035 81.359138 -30.000000 48.924877 73.221291 -30.000000 62.269569 62.269592 -30.000000 73.221252 48.924892 -30.000000 81.359116 33.700073 -30.000000 86.370384 17.180168 -30.000000 88.062485 0.000031 -30.000000 86.370384 -17.180107 -30.000004 81.359116 -33.700031 -30.000000 73.221275 -48.924881 -30.000000 62.269596 -62.269566 -30.000000 48.924908 -73.221252 -30.000000 33.700062 -81.359116 -30.000004 17.180153 -86.370384 -30.000000 0.000023 -88.062485 -30.000000 -17.180117 -86.370384 -30.000000 -33.700035 -81.359123 -30.000000 -48.924881 -73.221283 -30.000000 -62.269566 -62.269588 -30.000000 -73.221260 -48.924908 -30.000000 -81.359116 -33.700066 -30.000000 -86.370377 -17.180153 -30.000000 -88.062485 -0.000013 -30.000000 -86.370384 17.180126 -30.000000 -81.359131 33.700035 -30.000000 -73.221283 48.924873 -30.000000 -62.269588 62.269550 -30.000000 -48.924911 73.221245 -30.000000 -33.700066 81.359131 -30.000000 -17.180157 86.370377 -30.000000 18.980972 95.336861 -17.284433 -0.098186 97.216019 -17.284433 37.326927 89.771698 -17.284431 54.234669 80.734329 -17.284431 69.054436 68.572075 -17.284433 81.216675 53.752304 -17.284433 90.254059 36.844601 -17.284431 95.819252 18.498644 -17.284433 97.698395 -0.580519 -17.284433 95.819252 -19.659683 -17.284433 90.254059 -38.005650 -17.284431 81.216705 -54.913395 -17.284431 69.054466 -69.733147 -17.284433 54.234699 -81.895393 -17.284433 37.326965 -90.932777 -17.284433 18.981009 -96.497971 -17.284431 -0.098147 -98.377113 -17.284433 -19.177309 -96.497971 -17.284431 -37.523273 -90.932785 -17.284433 -54.431011 -81.895424 -17.284433 -69.250763 -69.733177 -17.284431 -81.413017 -54.913422 -17.284433 -90.450394 -38.005688 -17.284433 -96.015579 -19.659727 -17.284433 -97.894730 -0.580566 -17.284433 -96.015587 18.498598 -17.284431 -90.450409 36.844555 -17.284433 -81.413040 53.752289 -17.284433 -69.250793 68.572029 -17.284433 -54.431049 80.734283 -17.284433 -37.523308 89.771683 -17.284433 -19.177351 95.336861 -17.284433 0.092398 0.709972 -19.506954 53.449520 -67.671547 -24.411613 44.141998 -49.822105 -24.411613 9.443000 -16.187885 -24.411613 -0.196282 1.522206 -24.411613 -56.932404 -22.402523 -24.411613 -42.832020 -20.733236 -24.411613 -13.901791 -1.233362 -24.411613 0.161131 0.687943 -24.411613 "
						            />
						<Normal DEF="normals_Chrono_001"
						        vector="-0.332859 -0.576530 -0.746202 0.376883 0.652781 0.657142 -0.085557 -0.719309 -0.689401 0.159099 0.778521 0.607118 0.124095 -0.840352 -0.527645 -0.025532 0.885116 0.464669 0.264180 -0.921230 -0.285561 -0.148898 0.956341 0.251477 0.313372 -0.949631 0.000000 -0.192217 0.981352 -0.000000 0.264180 -0.921229 0.285561 -0.148898 0.956341 -0.251477 0.124095 -0.840351 0.527646 -0.025532 0.885117 -0.464668 -0.085557 -0.719309 0.689401 0.159099 0.778521 -0.607118 -0.332859 -0.576530 0.746202 0.376883 0.652781 -0.657142 -0.580161 -0.433749 0.689402 0.594669 0.527043 -0.607120 -0.789813 -0.312707 0.527645 0.779299 0.420447 -0.464668 -0.929899 -0.231829 0.285559 0.902664 0.349222 -0.251477 -0.979090 -0.203428 0.000000 0.945984 0.324212 -0.000000 -0.929899 -0.231829 -0.285559 0.902664 0.349222 0.251478 -0.789813 -0.312707 -0.527645 0.779299 0.420447 0.464669 -0.580161 -0.433749 -0.689402 0.594669 0.527043 0.607120 0.580161 0.433749 -0.689402 0.332859 0.576529 -0.746203 0.789814 0.312707 -0.527644 0.929899 0.231829 -0.285559 0.979090 0.203429 -0.000000 0.929898 0.231829 0.285559 0.789814 0.312707 0.527645 0.580161 0.433749 0.689402 0.332859 0.576529 0.746203 0.085558 0.719309 0.689401 -0.124095 0.840352 0.527644 -0.264180 0.921230 0.285558 -0.313372 0.949630 -0.000000 -0.264180 0.921230 -0.285559 -0.124095 0.840352 -0.527645 0.085558 0.719310 -0.689401 -0.331413 0.191342 0.923880 0.000000 -0.000000 1.000000 -0.612372 0.353553 0.707107 -0.800103 0.461939 0.382684 -0.866026 0.500000 -0.000000 -0.800103 0.461940 -0.382684 -0.612373 0.353553 -0.707107 -0.331413 0.191342 -0.923880 0.000000 -0.000000 -1.000000 0.331413 -0.191342 -0.923880 0.612372 -0.353553 -0.707107 0.800103 -0.461940 -0.382684 0.866026 -0.500000 -0.000000 0.800103 -0.461939 0.382684 0.612372 -0.353553 0.707107 0.331414 -0.191342 0.923880 -0.500000 -0.866026 0.000000 -0.000000 0.000000 1.000000 0.532140 -0.796403 -0.287348 0.332859 -0.576530 -0.746203 -0.376883 0.652781 0.657142 0.580161 -0.433749 -0.689402 -0.594670 0.527042 0.607119 0.789814 -0.312706 -0.527645 -0.779300 0.420446 0.464668 0.929898 -0.231829 -0.285561 -0.902664 0.349222 0.251478 0.979090 -0.203427 -0.000000 -0.945985 0.324210 -0.000000 0.929898 -0.231828 0.285560 -0.902664 0.349222 -0.251478 0.789814 -0.312706 0.527645 -0.779299 0.420447 -0.464670 0.580161 -0.433749 0.689402 -0.594670 0.527043 -0.607119 0.332860 -0.576530 0.746203 -0.376884 0.652781 -0.657142 0.085557 -0.719308 0.689402 -0.159096 0.778520 -0.607120 -0.124094 -0.840352 0.527645 0.025530 0.885117 -0.464667 -0.264180 -0.921230 0.285560 0.148898 0.956341 -0.251479 -0.313370 -0.949631 -0.000000 0.192216 0.981353 -0.000000 -0.264180 -0.921230 -0.285560 0.148897 0.956341 0.251478 -0.124094 -0.840352 -0.527645 0.025532 0.885116 0.464669 0.085557 -0.719309 -0.689402 -0.159096 0.778520 0.607120 -0.085556 0.719309 -0.689401 -0.332860 0.576529 -0.746202 0.124095 0.840352 -0.527644 0.264179 0.921230 -0.285561 0.313370 0.949631 -0.000000 0.264179 0.921230 0.285560 0.124096 0.840352 0.527644 -0.085556 0.719309 0.689402 -0.332859 0.576529 0.746203 -0.580162 0.433750 0.689401 -0.789814 0.312706 0.527645 -0.929899 0.231828 0.285560 -0.979090 0.203426 -0.000000 -0.929898 0.231828 -0.285560 -0.789813 0.312706 -0.527645 -0.580162 0.433750 -0.689401 -0.331414 -0.191342 0.923879 -0.000000 -0.000000 1.000000 -0.612373 -0.353553 0.707107 -0.800103 -0.461940 0.382684 -0.866025 -0.500000 -0.000000 -0.800103 -0.461940 -0.382684 -0.612372 -0.353553 -0.707107 -0.331414 -0.191342 -0.923880 -0.000001 -0.000000 -1.000000 0.331413 0.191342 -0.923880 0.612372 0.353554 -0.707107 0.800103 0.461940 -0.382683 0.866025 0.500000 -0.000000 0.800103 0.461940 0.382684 0.612372 0.353553 0.707107 0.331414 0.191342 0.923879 0.500000 -0.866025 -0.000000 -0.098018 -0.995185 0.000000 -0.098018 -0.995185 0.000000 -0.881922 0.471396 0.000000 -0.881922 0.471396 0.000000 0.532140 -0.796403 -0.287348 0.532105 -0.796352 -0.287555 -0.103986 0.000000 -0.994579 0.101986 -0.020286 -0.994579 0.136604 0.450325 0.882353 -0.046126 0.468322 0.882353 0.278550 0.672481 -0.685696 0.278550 0.672481 0.685696 0.404393 0.605216 -0.685696 0.404393 0.605216 0.685696 0.514695 0.514694 -0.685696 0.514695 0.514694 0.685696 0.605216 0.404393 -0.685697 0.605216 0.404393 0.685697 0.672480 0.278551 -0.685696 0.672480 0.278551 0.685696 0.713901 0.142004 -0.685696 0.713901 0.142004 0.685696 0.727888 -0.000000 -0.685696 0.727888 -0.000000 0.685696 0.713901 -0.142004 -0.685696 0.713901 -0.142004 0.685696 0.450325 -0.136605 -0.882353 0.039793 0.096069 0.994579 0.363770 -0.298538 -0.882353 -0.057771 -0.086460 0.994579 0.514694 -0.514694 -0.685696 0.514694 -0.514694 0.685696 0.404393 -0.605216 -0.685696 0.404393 -0.605216 0.685697 0.278551 -0.672480 -0.685696 0.278551 -0.672480 0.685696 0.142004 -0.713901 -0.685696 0.142004 -0.713901 0.685696 0.000000 -0.727888 -0.685696 0.000000 -0.727888 0.685696 -0.142004 -0.713901 -0.685696 -0.142004 -0.713901 0.685696 -0.278550 -0.672481 -0.685696 -0.278550 -0.672481 0.685696 -0.404393 -0.605217 -0.685696 -0.404393 -0.605217 0.685696 -0.514694 -0.514694 -0.685696 -0.514694 -0.514694 0.685696 -0.605216 -0.404393 -0.685696 -0.605216 -0.404393 0.685696 -0.672480 -0.278551 -0.685696 -0.672480 -0.278551 0.685696 -0.713901 -0.142004 -0.685697 -0.713901 -0.142004 0.685696 -0.727888 -0.000000 -0.685696 -0.727888 -0.000000 0.685696 -0.713901 0.142004 -0.685696 -0.713901 0.142004 0.685697 -0.672481 0.278551 -0.685696 -0.672481 0.278551 0.685696 -0.605216 0.404393 -0.685696 -0.605216 0.404393 0.685696 -0.514694 0.514694 -0.685696 -0.514694 0.514694 0.685697 -0.404393 0.605216 -0.685697 -0.404393 0.605216 0.685697 -0.278551 0.672481 -0.685696 -0.278551 0.672480 0.685696 -0.142004 0.713901 -0.685697 -0.142004 0.713901 0.685697 0.000000 0.000000 -1.000000 0.000000 0.000000 -1.000000 0.000000 0.000000 -1.000000 -0.000000 0.000000 -1.000000 0.000000 0.000000 -1.000000 0.000000 0.000000 -1.000000 0.000000 0.000000 -1.000000 0.000000 0.000000 -1.000000 -0.000000 0.000000 -1.000000 -0.000000 0.000000 -1.000000 -0.000000 -0.000000 -1.000000 -0.000000 0.000000 -1.000000 -0.000000 0.000000 -1.000000 0.000000 0.000000 -1.000000 -0.000000 0.000000 -1.000000 -0.000000 -0.000000 -1.000000 -0.000000 0.000000 -1.000000 -0.000000 0.000000 -1.000000 0.000000 0.000000 -1.000000 0.000000 0.000000 -1.000000 0.000000 0.000000 -1.000000 0.000000 0.000000 -1.000000 0.000000 0.000000 -1.000000 -0.000000 0.000000 -1.000000 -0.000000 0.000000 -1.000000 -0.000000 0.000000 -1.000000 0.000000 0.000000 -1.000000 0.000000 0.000000 -1.000000 -0.000000 0.000000 -1.000000 -0.000000 0.000000 -1.000000 0.000000 0.000000 -1.000000 0.000000 0.000000 -1.000000 0.004406 0.022145 -0.999745 0.000000 0.023024 -0.999735 0.008809 0.021266 -0.999735 0.012539 0.018743 -0.999746 0.016239 0.016239 -0.999736 0.018704 0.012472 -0.999747 0.021135 0.008755 -0.999738 0.021957 0.004340 -0.999749 0.022764 0.000000 -0.999741 0.021835 -0.004372 -0.999752 0.020923 -0.008667 -0.999744 0.018411 -0.012332 -0.999754 0.015939 -0.015939 -0.999746 0.012246 -0.018361 -0.999757 0.008596 -0.020753 -0.999748 0.004285 -0.021592 -0.999758 0.000000 -0.022424 -0.999749 -0.004290 -0.021574 -0.999758 -0.008584 -0.020723 -0.999748 -0.012226 -0.018318 -0.999757 -0.015895 -0.015895 -0.999747 -0.018355 -0.012290 -0.999756 -0.020848 -0.008635 -0.999745 -0.021754 -0.004354 -0.999754 -0.022676 0.000000 -0.999743 -0.021875 0.004322 -0.999751 -0.021059 0.008723 -0.999740 -0.018647 0.012428 -0.999749 -0.016194 0.016194 -0.999738 -0.012518 0.018699 -0.999747 -0.008795 0.021234 -0.999736 -0.004411 0.022126 -0.999745 0.000044 0.000299 -1.000000 -0.000000 0.000000 -1.000000 -0.000000 0.000000 -1.000000 -0.000000 0.000000 -1.000000 -0.000000 0.000000 -1.000000 0.000000 0.000000 -1.000000 0.000000 0.000000 -1.000000 0.000000 0.000000 -1.000000 0.000000 0.000000 -1.000000 "
						        />
						<ColorRGBA color="0.682 0.027 0.000 1.000 0.682 0.027 0.000 1.000 0.682 0.027 0.000 1.000 0.682 0.027 0.000 1.000 0.682 0.027 0.000 1.000 0.682 0.027 0.000 1.000 0.682 0.027 0.000 1.000 0.682 0.027 0.000 1.000 0.475 0.467 0.467 1.000 0.682 0.027 0.000 1.000 0.682 0.027 0.000 1.000 0.682 0.027 0.000 1.000 0.682 0.027 0.000 1.000 0.682 0.027 0.000 1.000 0.682 0.027 0.000 1.000 0.682 0.027 0.000 1.000 0.475 0.467 0.467 1.000 0.910 0.910 0.910 1.000 0.910 0.910 0.910 1.000 0.910 0.910 0.910 1.000 0.910 0.910 0.910 1.000 0.910 0.910 0.910 1.000 0.910 0.910 0.910 1.000 0.910 0.910 0.910 1.000 0.910 0.910 0.910 1.000 0.910 0.910 0.910 1.000 0.910 0.910 0.910 1.000 0.910 0.910 0.910 1.000 0.910 0.910 0.910 1.000 0.910 0.910 0.910 1.000 0.910 0.910 0.910 1.000 0.475 0.467 0.467 1.000 0.910 0.910 0.910 1.000 0.682 0.027 0.004 1.000 0.475 0.467 0.467 1.000 0.475 0.467 0.467 1.000 0.475 0.467 0.467 1.000 0.475 0.467 0.467 1.000 0.475 0.467 0.467 1.000 0.475 0.467 0.467 1.000 0.475 0.467 0.467 1.000 0.475 0.467 0.467 1.000 0.475 0.467 0.467 1.000 0.475 0.467 0.467 1.000 0.682 0.027 0.000 1.000 0.682 0.027 0.000 1.000 0.682 0.027 0.000 1.000 0.000 0.000 0.000 1.000 0.682 0.027 0.000 1.000 0.000 0.000 0.000 1.000 0.682 0.027 0.000 1.000 0.000 0.000 0.000 1.000 0.000 0.000 0.000 1.000 0.682 0.027 0.000 1.000 0.682 0.027 0.004 1.000 0.682 0.027 0.000 1.000 0.000 0.000 0.000 1.000 0.682 0.027 0.000 1.000 0.682 0.027 0.000 1.000 0.682 0.027 0.000 1.000 0.000 0.000 0.000 1.000 0.682 0.027 0.000 1.000 0.000 0.000 0.000 1.000 0.000 0.000 0.000 1.000 0.000 0.000 0.000 1.000 0.000 0.000 0.000 1.000 0.000 0.000 0.000 1.000 0.682 0.027 0.000 1.000 0.000 0.000 0.000 1.000 0.000 0.000 0.000 1.000 0.000 0.000 0.000 1.000 0.682 0.027 0.000 1.000 0.000 0.000 0.000 1.000 0.682 0.027 0.000 1.000 0.682 0.027 0.000 1.000 0.682 0.027 0.000 1.000 0.682 0.027 0.000 1.000 0.682 0.027 0.000 1.000 0.682 0.027 0.000 1.000 0.682 0.027 0.000 1.000 0.682 0.027 0.000 1.000 0.682 0.027 0.000 1.000 0.682 0.027 0.000 1.000 0.682 0.027 0.000 1.000 0.682 0.027 0.000 1.000 0.682 0.027 0.000 1.000 0.682 0.027 0.000 1.000 0.682 0.027 0.000 1.000 0.682 0.027 0.000 1.000 0.682 0.027 0.000 1.000 0.682 0.027 0.000 1.000 0.682 0.027 0.000 1.000 0.682 0.027 0.000 1.000 0.682 0.027 0.000 1.000 0.000 0.000 0.000 1.000 0.000 0.000 0.000 1.000 0.682 0.027 0.000 1.000 0.682 0.027 0.000 1.000 0.682 0.027 0.004 1.000 0.000 0.000 0.000 1.000 0.000 0.000 0.000 1.000 0.000 0.000 0.000 1.000 0.682 0.027 0.004 1.000 0.682 0.027 0.000 1.000 0.000 0.000 0.000 1.000 0.682 0.027 0.000 1.000 0.000 0.000 0.000 1.000 0.000 0.000 0.000 1.000 0.682 0.027 0.000 1.000 0.682 0.027 0.000 1.000 0.000 0.000 0.000 1.000 0.000 0.000 0.000 1.000 0.682 0.027 0.000 1.000 0.682 0.027 0.000 1.000 0.000 0.000 0.000 1.000 0.682 0.027 0.000 1.000 0.000 0.000 0.000 1.000 0.000 0.000 0.000 1.000 0.682 0.027 0.000 1.000 0.294 0.294 0.294 1.000 0.000 0.000 0.000 1.000 0.000 0.000 0.000 1.000 0.000 0.000 0.000 1.000 0.000 0.000 0.000 1.000 0.682 0.027 0.000 1.000 0.682 0.027 0.000 1.000 0.682 0.027 0.000 1.000 0.682 0.027 0.000 1.000 0.682 0.027 0.000 1.000 0.682 0.027 0.000 1.000 0.682 0.027 0.000 1.000 0.682 0.027 0.000 1.000 0.682 0.027 0.000 1.000 0.682 0.027 0.000 1.000 0.682 0.027 0.000 1.000 0.682 0.027 0.000 1.000 0.682 0.027 0.000 1.000 0.682 0.027 0.000 1.000 0.682 0.027 0.000 1.000 0.294 0.294 0.294 1.000 0.294 0.294 0.294 1.000 0.294 0.294 0.294 1.000 0.294 0.294 0.294 1.000 0.294 0.294 0.294 1.000 0.294 0.294 0.294 1.000 0.294 0.294 0.294 1.000 0.294 0.294 0.294 1.000 0.294 0.294 0.294 1.000 0.294 0.294 0.294 1.000 0.294 0.294 0.294 1.000 0.294 0.294 0.294 1.000 0.294 0.294 0.294 1.000 0.294 0.294 0.294 1.000 0.294 0.294 0.294 1.000 0.294 0.294 0.294 1.000 0.294 0.294 0.294 1.000 0.682 0.027 0.004 1.000 0.294 0.294 0.294 1.000 0.294 0.294 0.294 1.000 0.294 0.294 0.294 1.000 0.294 0.294 0.294 1.000 0.294 0.294 0.294 1.000 0.294 0.294 0.294 1.000 0.294 0.294 0.294 1.000 0.682 0.027 0.000 1.000 0.294 0.294 0.294 1.000 0.294 0.294 0.294 1.000 0.294 0.294 0.294 1.000 0.294 0.294 0.294 1.000 0.294 0.294 0.294 1.000 0.294 0.294 0.294 1.000 0.294 0.294 0.294 1.000 0.475 0.467 0.467 1.000 0.682 0.027 0.000 1.000 0.475 0.467 0.467 1.000 0.475 0.467 0.467 1.000 0.682 0.027 0.004 1.000 0.682 0.027 0.004 1.000 0.682 0.027 0.004 1.000 0.682 0.027 0.004 1.000 0.682 0.027 0.004 1.000 0.682 0.027 0.004 1.000 0.682 0.027 0.004 1.000 0.682 0.027 0.004 1.000 0.682 0.027 0.004 1.000 0.682 0.027 0.004 1.000 0.682 0.027 0.004 1.000 0.682 0.027 0.004 1.000 0.682 0.027 0.004 1.000 0.682 0.027 0.004 1.000 0.682 0.027 0.004 1.000 0.682 0.027 0.000 1.000 0.682 0.027 0.004 1.000 0.682 0.027 0.000 1.000 0.682 0.027 0.004 1.000 0.682 0.027 0.004 1.000 0.682 0.027 0.004 1.000 0.682 0.027 0.004 1.000 0.682 0.027 0.004 1.000 0.682 0.027 0.004 1.000 0.682 0.027 0.004 1.000 0.682 0.027 0.004 1.000 0.682 0.027 0.004 1.000 0.682 0.027 0.004 1.000 0.682 0.027 0.004 1.000 0.682 0.027 0.004 1.000 0.682 0.027 0.004 1.000 0.682 0.027 0.000 1.000 0.682 0.027 0.000 1.000 0.910 0.910 0.910 1.000 " />
					</IndexedFaceSet>
				</Shape>
			</Group>
		</Transform>
	</Scene>
</X3D>