<?xml version="1.0" encoding="UTF-8"?>
<!DOCTYPE X3D PUBLIC "ISO//Web3D//DTD X3D 3.0//EN" "http://www.web3d.org/specifications/x3d-3.0.dtd">
<X3D version="3.0" profile="Immersive" xmlns:xsd="http://www.w3.org/2001/XMLSchema-instance" xsd:noNamespaceSchemaLocation="http://www.web3d.org/specifications/x3d-3.0.xsd">
	<head>
		<meta name="filename" content="feisar.x3d" />
		<meta name="generator" content="Blender 4.0.2" />
	</head>
	<Scene>
		<NavigationInfo headlight="true"
		                visibilityLimit="0.0"
		                type='"EXAMINE", "ANY"'
		                avatarSize="0.25, 1.75, 0.75"
		                />
		<Background DEF="World"
		            groundColor="0.051 0.051 0.051"
		            skyColor="0.051 0.051 0.051"
		            />
		<Transform DEF="feisar_ifs_TRANSFORM"
		           translation="0.000000 0.000000 0.000000"
		           scale="1.000000 1.000000 1.000000"
		           rotation="0.000000 0.707107 0.707107 3.141593"
		           >
			<Group DEF="null2">
				<Shape>
					<Appearance>
						<Material DEF="colored_polygons_003"
						          diffuseColor="0.800 0.800 0.800"
						          specularColor="0.401 0.401 0.401"
						          emissiveColor="0.000 0.000 0.000"
						          ambientIntensity="0.000"
						          shininess="0.500"
						          transparency="0.0"
						          />
					</Appearance>
					<IndexedFaceSet solid="false"
					                colorPerVertex="false"
					                coordIndex="20 23 22 -1 6 2 1 -1 4 6 5 -1 3 2 6 -1 3 6 4 -1 9 15 12 -1 9 13 15 -1 9 14 13 -1 6 1 0 -1 9 16 14 -1 47 44 46 -1 9 12 11 7 -1 17 23 20 -1 21 18 23 17 -1 29 25 27 -1 32 40 39 31 -1 32 25 29 -1 25 30 28 -1 25 31 30 -1 25 32 31 -1 28 36 33 25 -1 27 25 26 -1 37 35 33 -1 43 48 45 42 -1 31 39 38 30 -1 36 38 33 -1 38 39 33 -1 39 40 33 -1 40 37 33 -1 47 41 44 -1 47 42 45 41 -1 53 54 51 49 -1 10 8 7 11 -1 59 60 65 -1 57 55 51 -1 55 56 51 -1 33 35 34 -1 58 51 56 -1 54 57 51 -1 60 61 65 -1 65 61 62 -1 65 63 64 -1 65 62 63 -1 30 38 36 28 -1 29 37 40 32 -1 25 33 34 26 -1 27 35 37 29 -1 26 34 35 27 -1 17 41 45 21 -1 20 44 41 17 -1 22 46 44 20 -1 23 47 46 22 -1 18 42 47 23 -1 19 43 42 18 -1 24 48 43 19 -1 21 45 48 24 -1 8 50 49 7 -1 19 18 21 24 -1 10 52 50 8 -1 11 53 52 10 -1 12 54 53 11 -1 15 57 54 12 -1 13 55 57 15 -1 14 56 55 13 -1 16 58 56 14 -1 9 51 58 16 -1 7 49 51 9 -1 0 59 65 6 -1 1 60 59 0 -1 2 61 60 1 -1 3 62 61 2 -1 4 63 62 3 -1 5 64 63 4 -1 6 65 64 5 -1 53 49 50 52 -1 "
					                >
						<Coordinate DEF="coords_null2"
						            point="-2948.000000 -421.000000 -500.000000 -2755.000000 -1122.000000 -500.000000 -2403.000000 -1741.000000 -500.000000 -1916.000000 -2256.000000 -500.000000 -1318.000000 -2642.000000 -500.000000 -631.000000 -2878.000000 -500.000000 -1070.833374 -821.500000 -500.000000 -1007.000000 927.166687 -500.000000 -2669.000000 1308.000000 -500.000000 -232.833344 -2334.166748 -500.000000 -2940.000000 473.000000 -500.000000 -1037.666748 59.000000 -500.000000 -477.000000 -2906.000000 -500.000000 366.000000 -2917.000000 -500.000000 852.000000 -2813.000000 -500.000000 -109.000000 -2940.000000 -500.000000 1195.000000 -2685.000000 -500.000000 -777.000000 2841.000000 -500.000000 -200.833344 -1459.166748 -500.000000 2214.000000 -1937.000000 -500.000000 -1467.000000 2563.000000 -500.000000 -165.666672 -599.833374 -500.000000 -2058.000000 2129.000000 -500.000000 -974.000000 1803.000000 -500.000000 2718.000000 -1138.000000 -500.000000 -136.000000 292.666687 -500.000000 -657.000000 2870.000000 -500.000000 465.000000 2901.000000 -500.000000 2936.000000 -268.000000 -500.000000 1346.000000 2612.000000 -500.000000 2909.000000 476.000000 -500.000000 2617.000000 1350.000000 -500.000000 2080.000000 2078.000000 -500.000000 -136.000000 292.666687 500.000000 -657.000000 2870.000000 500.000000 465.000000 2901.000000 500.000000 2936.000000 -268.000000 500.000000 1346.000000 2612.000000 500.000000 2909.000000 476.000000 500.000000 2617.000000 1350.000000 500.000000 2080.000000 2078.000000 500.000000 -777.000000 2841.000000 500.000000 -200.833344 -1459.166748 500.000000 2214.000000 -1937.000000 500.000000 -1467.000000 2563.000000 500.000000 -165.666672 -599.833374 500.000000 -2058.000000 2129.000000 500.000000 -974.000000 1803.000000 500.000000 2718.000000 -1138.000000 500.000000 -1007.000000 927.166687 500.000000 -2669.000000 1308.000000 500.000000 -232.833344 -2334.166748 500.000000 -2940.000000 473.000000 500.000000 -1037.666748 59.000000 500.000000 -477.000000 -2906.000000 500.000000 366.000000 -2917.000000 500.000000 852.000000 -2813.000000 500.000000 -109.000000 -2940.000000 500.000000 1195.000000 -2685.000000 500.000000 -2948.000000 -421.000000 500.000000 -2755.000000 -1122.000000 500.000000 -2403.000000 -1741.000000 500.000000 -1916.000000 -2256.000000 500.000000 -1318.000000 -2642.000000 500.000000 -631.000000 -2878.000000 500.000000 -1070.833374 -821.500000 500.000000 "
						            />
						<ColorRGBA color="0.820 0.620 0.192 1.000 0.820 0.620 0.192 1.000 0.820 0.620 0.192 1.000 0.820 0.620 0.192 1.000 0.820 0.620 0.192 1.000 0.820 0.620 0.192 1.000 0.820 0.620 0.192 1.000 0.820 0.620 0.192 1.000 0.820 0.620 0.192 1.000 0.820 0.620 0.192 1.000 0.424 0.008 0.820 1.000 0.820 0.620 0.192 1.000 0.820 0.620 0.192 1.000 0.820 0.620 0.192 1.000 0.820 0.620 0.192 1.000 0.780 0.043 0.820 1.000 0.820 0.620 0.192 1.000 0.820 0.620 0.192 1.000 0.820 0.620 0.192 1.000 0.820 0.620 0.192 1.000 0.169 0.008 0.176 1.000 0.820 0.620 0.192 1.000 0.424 0.008 0.820 1.000 0.424 0.008 0.820 1.000 0.780 0.043 0.820 1.000 0.424 0.008 0.820 1.000 0.424 0.008 0.820 1.000 0.424 0.008 0.820 1.000 0.424 0.008 0.820 1.000 0.424 0.008 0.820 1.000 0.424 0.008 0.820 1.000 0.424 0.008 0.820 1.000 0.820 0.620 0.192 1.000 0.424 0.008 0.820 1.000 0.424 0.008 0.820 1.000 0.424 0.008 0.820 1.000 0.424 0.008 0.820 1.000 0.424 0.008 0.820 1.000 0.424 0.008 0.820 1.000 0.424 0.008 0.820 1.000 0.424 0.008 0.820 1.000 0.424 0.008 0.820 1.000 0.424 0.008 0.820 1.000 0.780 0.043 0.820 1.000 0.780 0.043 0.820 1.000 0.012 0.020 1.000 1.000 0.780 0.043 0.820 1.000 0.780 0.043 0.820 1.000 0.780 0.043 0.820 1.000 0.012 0.020 1.000 1.000 0.012 0.020 1.000 1.000 0.169 0.008 0.176 1.000 0.012 0.020 1.000 1.000 0.169 0.008 0.176 1.000 0.780 0.043 0.820 1.000 0.780 0.043 0.820 1.000 0.780 0.043 0.820 1.000 0.820 0.620 0.192 1.000 0.012 0.020 1.000 1.000 0.169 0.008 0.176 1.000 0.012 0.020 1.000 1.000 0.169 0.008 0.176 1.000 0.780 0.043 0.820 1.000 0.780 0.043 0.820 1.000 0.780 0.043 0.820 1.000 0.780 0.043 0.820 1.000 0.780 0.043 0.820 1.000 0.780 0.043 0.820 1.000 0.012 0.020 1.000 1.000 0.012 0.020 1.000 1.000 0.012 0.020 1.000 1.000 0.012 0.020 1.000 1.000 0.169 0.008 0.176 1.000 0.780 0.043 0.820 1.000 0.424 0.008 0.820 1.000 " />
					</IndexedFaceSet>
				</Shape>
			</Group>
		</Transform>
	</Scene>
</X3D>