<?xml version="1.0" encoding="UTF-8"?>
<!DOCTYPE X3D PUBLIC "ISO//Web3D//DTD X3D 3.0//EN" "http://www.web3d.org/specifications/x3d-3.0.dtd">
<X3D version="3.0" profile="Immersive" xmlns:xsd="http://www.w3.org/2001/XMLSchema-instance" xsd:noNamespaceSchemaLocation="http://www.web3d.org/specifications/x3d-3.0.xsd">
	<head>
		<meta name="filename" content="gear.x3d" />
		<meta name="generator" content="Blender 4.0.2" />
	</head>
	<Scene>
		<NavigationInfo headlight="false"
		                visibilityLimit="0.0"
		                type='"EXAMINE", "ANY"'
		                avatarSize="0.25, 1.75, 0.75"
		                />
		<Background DEF="WO_World"
		            groundColor="0.051 0.051 0.051"
		            skyColor="0.051 0.051 0.051"
		            />
		<Transform DEF="Light_TRANSFORM"
		           translation="-4.076245 5.903862 1.005454"
		           scale="1.000000 1.000000 1.000000"
		           rotation="-0.498085 -0.762016 -0.413815 1.513875"
		           >
			<PointLight DEF="LA_Light"
			            ambientIntensity="0.0000"
			            color="1.0000 1.0000 1.0000"
			            intensity="1.0000"
          rotation="0.000000 1.000000 0.000000 0.000000"
			           >
				<Group DEF="group_ME_Gear_001">
					<Shape>
						<Appearance>
							<Material DEF="MA_colored_polygons"
							          diffuseColor="0.800 0.800 0.800"
							          specularColor="0.401 0.401 0.401"
							          emissiveColor="0.000 0.000 0.000"
							          ambientIntensity="0.000"
							          shininess="0.500"
							          transparency="0.0"
							          />
						</Appearance>
						<IndexedFaceSet solid="false"
						                normalPerVertex="true"
						                colorPerVertex="false"
						                coordIndex="4 0 1 5 -1 5 1 2 6 -1 6 2 3 7 -1 8 5 6 9 -1 9 6 7 10 -1 11 8 9 12 -1 12 9 10 13 -1 14 18 19 15 -1 15 19 20 16 -1 16 20 21 17 -1 19 22 23 20 -1 20 23 24 21 -1 22 25 26 23 -1 23 26 27 24 -1 18 4 5 19 -1 19 5 8 22 -1 22 8 11 25 -1 25 11 12 26 -1 26 12 13 27 -1 27 13 10 24 -1 24 10 7 21 -1 32 28 29 33 -1 33 29 30 34 -1 34 30 31 35 -1 36 33 34 37 -1 37 34 35 38 -1 39 36 37 40 -1 40 37 38 41 -1 42 46 47 43 -1 43 47 48 44 -1 44 48 49 45 -1 47 50 51 48 -1 48 51 52 49 -1 50 53 54 51 -1 51 54 55 52 -1 46 32 33 47 -1 47 33 36 50 -1 50 36 39 53 -1 53 39 40 54 -1 54 40 41 55 -1 55 41 38 52 -1 52 38 35 49 -1 3 28 32 7 -1 7 32 46 21 -1 21 46 42 17 -1 60 56 57 61 -1 61 57 58 62 -1 62 58 59 63 -1 64 61 62 65 -1 65 62 63 66 -1 67 64 65 68 -1 68 65 66 69 -1 70 74 75 71 -1 71 75 76 72 -1 72 76 77 73 -1 75 78 79 76 -1 76 79 80 77 -1 78 81 82 79 -1 79 82 83 80 -1 74 60 61 75 -1 75 61 64 78 -1 78 64 67 81 -1 81 67 68 82 -1 82 68 69 83 -1 83 69 66 80 -1 80 66 63 77 -1 31 56 60 35 -1 35 60 74 49 -1 49 74 70 45 -1 88 84 85 89 -1 89 85 86 90 -1 90 86 87 91 -1 92 89 90 93 -1 93 90 91 94 -1 95 92 93 96 -1 96 93 94 97 -1 98 102 103 99 -1 99 103 104 100 -1 100 104 105 101 -1 103 106 107 104 -1 104 107 108 105 -1 106 109 110 107 -1 107 110 111 108 -1 102 88 89 103 -1 103 89 92 106 -1 106 92 95 109 -1 109 95 96 110 -1 110 96 97 111 -1 111 97 94 108 -1 108 94 91 105 -1 59 84 88 63 -1 63 88 102 77 -1 77 102 98 73 -1 116 112 113 117 -1 117 113 114 118 -1 118 114 115 119 -1 120 117 118 121 -1 121 118 119 122 -1 123 120 121 124 -1 124 121 122 125 -1 126 130 131 127 -1 127 131 132 128 -1 128 132 133 129 -1 131 134 135 132 -1 132 135 136 133 -1 134 137 138 135 -1 135 138 139 136 -1 130 116 117 131 -1 131 117 120 134 -1 134 120 123 137 -1 137 123 124 138 -1 138 124 125 139 -1 139 125 122 136 -1 136 122 119 133 -1 87 112 116 91 -1 91 116 130 105 -1 105 130 126 101 -1 144 140 141 145 -1 145 141 142 146 -1 146 142 143 147 -1 148 145 146 149 -1 149 146 147 150 -1 151 148 149 152 -1 152 149 150 153 -1 154 158 159 155 -1 155 159 160 156 -1 156 160 161 157 -1 159 162 163 160 -1 160 163 164 161 -1 162 165 166 163 -1 163 166 167 164 -1 158 144 145 159 -1 159 145 148 162 -1 162 148 151 165 -1 165 151 152 166 -1 166 152 153 167 -1 167 153 150 164 -1 164 150 147 161 -1 115 140 144 119 -1 119 144 158 133 -1 133 158 154 129 -1 172 168 169 173 -1 173 169 170 174 -1 174 170 171 175 -1 176 173 174 177 -1 177 174 175 178 -1 179 176 177 180 -1 180 177 178 181 -1 182 186 187 183 -1 183 187 188 184 -1 184 188 189 185 -1 187 190 191 188 -1 188 191 192 189 -1 190 193 194 191 -1 191 194 195 192 -1 186 172 173 187 -1 187 173 176 190 -1 190 176 179 193 -1 193 179 180 194 -1 194 180 181 195 -1 195 181 178 192 -1 192 178 175 189 -1 143 168 172 147 -1 147 172 186 161 -1 161 186 182 157 -1 200 196 197 201 -1 201 197 198 202 -1 202 198 199 203 -1 204 201 202 205 -1 205 202 203 206 -1 207 204 205 208 -1 208 205 206 209 -1 210 214 215 211 -1 211 215 216 212 -1 212 216 217 213 -1 215 218 219 216 -1 216 219 220 217 -1 218 221 222 219 -1 219 222 223 220 -1 214 200 201 215 -1 215 201 204 218 -1 218 204 207 221 -1 221 207 208 222 -1 222 208 209 223 -1 223 209 206 220 -1 220 206 203 217 -1 171 196 200 175 -1 175 200 214 189 -1 189 214 210 185 -1 228 224 225 229 -1 229 225 226 230 -1 230 226 227 231 -1 232 229 230 233 -1 233 230 231 234 -1 235 232 233 236 -1 236 233 234 237 -1 238 242 243 239 -1 239 243 244 240 -1 240 244 245 241 -1 243 246 247 244 -1 244 247 248 245 -1 246 249 250 247 -1 247 250 251 248 -1 242 228 229 243 -1 243 229 232 246 -1 246 232 235 249 -1 249 235 236 250 -1 250 236 237 251 -1 251 237 234 248 -1 248 234 231 245 -1 199 224 228 203 -1 203 228 242 217 -1 217 242 238 213 -1 256 252 253 257 -1 257 253 254 258 -1 258 254 255 259 -1 260 257 258 261 -1 261 258 259 262 -1 263 260 261 264 -1 264 261 262 265 -1 266 270 271 267 -1 267 271 272 268 -1 268 272 273 269 -1 271 274 275 272 -1 272 275 276 273 -1 274 277 278 275 -1 275 278 279 276 -1 270 256 257 271 -1 271 257 260 274 -1 274 260 263 277 -1 277 263 264 278 -1 278 264 265 279 -1 279 265 262 276 -1 276 262 259 273 -1 227 252 256 231 -1 231 256 270 245 -1 245 270 266 241 -1 284 280 281 285 -1 285 281 282 286 -1 286 282 283 287 -1 288 285 286 289 -1 289 286 287 290 -1 291 288 289 292 -1 292 289 290 293 -1 294 298 299 295 -1 295 299 300 296 -1 296 300 301 297 -1 299 302 303 300 -1 300 303 304 301 -1 302 305 306 303 -1 303 306 307 304 -1 298 284 285 299 -1 299 285 288 302 -1 302 288 291 305 -1 305 291 292 306 -1 306 292 293 307 -1 307 293 290 304 -1 304 290 287 301 -1 255 280 284 259 -1 259 284 298 273 -1 273 298 294 269 -1 312 308 309 313 -1 313 309 310 314 -1 314 310 311 315 -1 316 313 314 317 -1 317 314 315 318 -1 319 316 317 320 -1 320 317 318 321 -1 322 326 327 323 -1 323 327 328 324 -1 324 328 329 325 -1 327 330 331 328 -1 328 331 332 329 -1 330 333 334 331 -1 331 334 335 332 -1 326 312 313 327 -1 327 313 316 330 -1 330 316 319 333 -1 333 319 320 334 -1 334 320 321 335 -1 335 321 318 332 -1 332 318 315 329 -1 283 308 312 287 -1 287 312 326 301 -1 301 326 322 297 -1 311 0 4 315 -1 315 4 18 329 -1 329 18 14 325 -1 268 254 253 267 -1 269 255 254 268 -1 294 280 255 269 -1 281 280 294 295 -1 337 336 338 339 -1 296 297 283 282 -1 308 283 297 322 -1 252 227 241 266 -1 226 225 239 240 -1 156 157 143 142 -1 224 199 213 238 -1 225 224 238 239 -1 129 154 140 115 -1 154 155 141 140 -1 155 156 142 141 -1 157 182 168 143 -1 183 184 170 169 -1 182 183 169 168 -1 184 185 171 170 -1 59 58 72 73 -1 185 210 196 171 -1 210 211 197 196 -1 212 213 199 198 -1 211 212 198 197 -1 56 31 45 70 -1 253 252 266 267 -1 57 56 70 71 -1 58 57 71 72 -1 84 59 73 98 -1 86 85 99 100 -1 85 84 98 99 -1 87 86 100 101 -1 324 325 311 310 -1 112 87 101 126 -1 114 113 127 128 -1 115 114 128 129 -1 113 112 126 127 -1 325 14 0 311 -1 310 309 323 324 -1 16 2 1 15 -1 323 309 308 322 -1 14 15 1 0 -1 42 43 29 28 -1 17 42 28 3 -1 16 17 3 2 -1 43 44 30 29 -1 227 226 240 241 -1 30 44 45 31 -1 "
						                >
							<Coordinate DEF="coords_ME_Gear_001"
							            point="140.000000 0.000000 -40.000000 138.802292 18.273666 -40.000000 135.229614 36.234665 -40.000000 129.343124 53.575684 -40.000000 180.000000 0.000000 -40.000000 178.460068 23.494715 -40.000000 173.866653 46.587429 -40.000000 166.298325 68.883018 -40.000000 198.288986 26.105238 -40.000000 193.185165 51.763805 -40.000000 184.775909 76.536690 -40.000000 217.048935 35.913239 -40.000000 212.503662 56.940193 -40.000000 205.926514 77.422691 -40.000000 140.000000 0.000000 40.000000 138.802292 18.273666 40.000000 135.229614 36.234665 40.000000 129.343124 53.575684 40.000000 180.000000 0.000000 40.000000 178.460068 23.494715 40.000000 173.866653 46.587429 40.000000 166.298325 68.883018 40.000000 198.288986 26.105238 40.000000 193.185165 51.763805 40.000000 184.775909 76.536690 40.000000 217.048935 35.913239 40.000000 212.503662 56.940193 40.000000 205.926514 77.422691 40.000000 121.243553 70.000000 -40.000000 111.069473 85.226601 -40.000000 98.994949 98.994949 -40.000000 85.226601 111.069473 -40.000000 155.884567 90.000000 -40.000000 142.803604 109.577065 -40.000000 127.279228 127.279228 -40.000000 109.577065 142.803604 -40.000000 158.670670 121.752281 -40.000000 141.421356 141.421356 -40.000000 121.752281 158.670670 -40.000000 170.013275 139.626251 -40.000000 155.563507 155.563507 -40.000000 139.626251 170.013275 -40.000000 121.243553 70.000000 40.000000 111.069473 85.226601 40.000000 98.994949 98.994949 40.000000 85.226601 111.069473 40.000000 155.884567 90.000000 40.000000 142.803604 109.577065 40.000000 127.279228 127.279228 40.000000 109.577065 142.803604 40.000000 158.670670 121.752281 40.000000 141.421356 141.421356 40.000000 121.752281 158.670670 40.000000 170.013275 139.626251 40.000000 155.563507 155.563507 40.000000 139.626251 170.013275 40.000000 70.000000 121.243553 -40.000000 53.575684 129.343124 -40.000000 36.234665 135.229614 -40.000000 18.273666 138.802292 -40.000000 90.000000 155.884567 -40.000000 68.883018 166.298325 -40.000000 46.587429 173.866653 -40.000000 23.494715 178.460068 -40.000000 76.536690 184.775909 -40.000000 51.763805 193.185165 -40.000000 26.105238 198.288986 -40.000000 77.422691 205.926514 -40.000000 56.940193 212.503662 -40.000000 35.913239 217.048935 -40.000000 70.000000 121.243553 40.000000 53.575684 129.343124 40.000000 36.234665 135.229614 40.000000 18.273666 138.802292 40.000000 90.000000 155.884567 40.000000 68.883018 166.298325 40.000000 46.587429 173.866653 40.000000 23.494715 178.460068 40.000000 76.536690 184.775909 40.000000 51.763805 193.185165 40.000000 26.105238 198.288986 40.000000 77.422691 205.926514 40.000000 56.940193 212.503662 40.000000 35.913239 217.048935 40.000000 0.000000 140.000000 -40.000000 -18.273666 138.802292 -40.000000 -36.234665 135.229614 -40.000000 -53.575684 129.343124 -40.000000 0.000000 180.000000 -40.000000 -23.494715 178.460068 -40.000000 -46.587429 173.866653 -40.000000 -68.883018 166.298325 -40.000000 -26.105238 198.288986 -40.000000 -51.763805 193.185165 -40.000000 -76.536690 184.775909 -40.000000 -35.913239 217.048935 -40.000000 -56.940193 212.503662 -40.000000 -77.422691 205.926514 -40.000000 0.000000 140.000000 40.000000 -18.273666 138.802292 40.000000 -36.234665 135.229614 40.000000 -53.575684 129.343124 40.000000 0.000000 180.000000 40.000000 -23.494715 178.460068 40.000000 -46.587429 173.866653 40.000000 -68.883018 166.298325 40.000000 -26.105238 198.288986 40.000000 -51.763805 193.185165 40.000000 -76.536690 184.775909 40.000000 -35.913239 217.048935 40.000000 -56.940193 212.503662 40.000000 -77.422691 205.926514 40.000000 -70.000000 121.243553 -40.000000 -85.226601 111.069473 -40.000000 -98.994949 98.994949 -40.000000 -111.069473 85.226601 -40.000000 -90.000000 155.884567 -40.000000 -109.577065 142.803604 -40.000000 -127.279228 127.279228 -40.000000 -142.803604 109.577065 -40.000000 -121.752281 158.670670 -40.000000 -141.421356 141.421356 -40.000000 -158.670670 121.752281 -40.000000 -139.626251 170.013275 -40.000000 -155.563507 155.563507 -40.000000 -170.013275 139.626251 -40.000000 -70.000000 121.243553 40.000000 -85.226601 111.069473 40.000000 -98.994949 98.994949 40.000000 -111.069473 85.226601 40.000000 -90.000000 155.884567 40.000000 -109.577065 142.803604 40.000000 -127.279228 127.279228 40.000000 -142.803604 109.577065 40.000000 -121.752281 158.670670 40.000000 -141.421356 141.421356 40.000000 -158.670670 121.752281 40.000000 -139.626251 170.013275 40.000000 -155.563507 155.563507 40.000000 -170.013275 139.626251 40.000000 -121.243553 70.000000 -40.000000 -129.343124 53.575684 -40.000000 -135.229614 36.234665 -40.000000 -138.802292 18.273666 -40.000000 -155.884567 90.000000 -40.000000 -166.298325 68.883018 -40.000000 -173.866653 46.587429 -40.000000 -178.460068 23.494715 -40.000000 -184.775909 76.536690 -40.000000 -193.185165 51.763805 -40.000000 -198.288986 26.105238 -40.000000 -205.926514 77.422691 -40.000000 -212.503662 56.940193 -40.000000 -217.048935 35.913239 -40.000000 -121.243553 70.000000 40.000000 -129.343124 53.575684 40.000000 -135.229614 36.234665 40.000000 -138.802292 18.273666 40.000000 -155.884567 90.000000 40.000000 -166.298325 68.883018 40.000000 -173.866653 46.587429 40.000000 -178.460068 23.494715 40.000000 -184.775909 76.536690 40.000000 -193.185165 51.763805 40.000000 -198.288986 26.105238 40.000000 -205.926514 77.422691 40.000000 -212.503662 56.940193 40.000000 -217.048935 35.913239 40.000000 -140.000000 0.000000 -40.000000 -138.802292 -18.273666 -40.000000 -135.229614 -36.234665 -40.000000 -129.343124 -53.575684 -40.000000 -180.000000 0.000000 -40.000000 -178.460068 -23.494715 -40.000000 -173.866653 -46.587429 -40.000000 -166.298325 -68.883018 -40.000000 -198.288986 -26.105238 -40.000000 -193.185165 -51.763805 -40.000000 -184.775909 -76.536690 -40.000000 -217.048935 -35.913239 -40.000000 -212.503662 -56.940193 -40.000000 -205.926514 -77.422691 -40.000000 -140.000000 0.000000 40.000000 -138.802292 -18.273666 40.000000 -135.229614 -36.234665 40.000000 -129.343124 -53.575684 40.000000 -180.000000 0.000000 40.000000 -178.460068 -23.494715 40.000000 -173.866653 -46.587429 40.000000 -166.298325 -68.883018 40.000000 -198.288986 -26.105238 40.000000 -193.185165 -51.763805 40.000000 -184.775909 -76.536690 40.000000 -217.048935 -35.913239 40.000000 -212.503662 -56.940193 40.000000 -205.926514 -77.422691 40.000000 -121.243553 -70.000000 -40.000000 -111.069473 -85.226601 -40.000000 -98.994949 -98.994949 -40.000000 -85.226601 -111.069473 -40.000000 -155.884567 -90.000000 -40.000000 -142.803604 -109.577065 -40.000000 -127.279228 -127.279228 -40.000000 -109.577065 -142.803604 -40.000000 -158.670670 -121.752281 -40.000000 -141.421356 -141.421356 -40.000000 -121.752281 -158.670670 -40.000000 -170.013275 -139.626251 -40.000000 -155.563507 -155.563507 -40.000000 -139.626251 -170.013275 -40.000000 -121.243553 -70.000000 40.000000 -111.069473 -85.226601 40.000000 -98.994949 -98.994949 40.000000 -85.226601 -111.069473 40.000000 -155.884567 -90.000000 40.000000 -142.803604 -109.577065 40.000000 -127.279228 -127.279228 40.000000 -109.577065 -142.803604 40.000000 -158.670670 -121.752281 40.000000 -141.421356 -141.421356 40.000000 -121.752281 -158.670670 40.000000 -170.013275 -139.626251 40.000000 -155.563507 -155.563507 40.000000 -139.626251 -170.013275 40.000000 -70.000000 -121.243553 -40.000000 -53.575684 -129.343124 -40.000000 -36.234665 -135.229614 -40.000000 -18.273666 -138.802292 -40.000000 -90.000000 -155.884567 -40.000000 -68.883018 -166.298325 -40.000000 -46.587429 -173.866653 -40.000000 -23.494715 -178.460068 -40.000000 -76.536690 -184.775909 -40.000000 -51.763805 -193.185165 -40.000000 -26.105238 -198.288986 -40.000000 -77.422691 -205.926514 -40.000000 -56.940193 -212.503662 -40.000000 -35.913239 -217.048935 -40.000000 -70.000000 -121.243553 40.000000 -53.575684 -129.343124 40.000000 -36.234665 -135.229614 40.000000 -18.273666 -138.802292 40.000000 -90.000000 -155.884567 40.000000 -68.883018 -166.298325 40.000000 -46.587429 -173.866653 40.000000 -23.494715 -178.460068 40.000000 -76.536690 -184.775909 40.000000 -51.763805 -193.185165 40.000000 -26.105238 -198.288986 40.000000 -77.422691 -205.926514 40.000000 -56.940193 -212.503662 40.000000 -35.913239 -217.048935 40.000000 -0.000000 -140.000000 -40.000000 18.273666 -138.802292 -40.000000 36.234665 -135.229614 -40.000000 53.575684 -129.343124 -40.000000 -0.000000 -180.000000 -40.000000 23.494715 -178.460068 -40.000000 46.587429 -173.866653 -40.000000 68.883018 -166.298325 -40.000000 26.105238 -198.288986 -40.000000 51.763805 -193.185165 -40.000000 76.536690 -184.775909 -40.000000 35.913239 -217.048935 -40.000000 56.940193 -212.503662 -40.000000 77.422691 -205.926514 -40.000000 -0.000000 -140.000000 40.000000 18.273666 -138.802292 40.000000 36.234665 -135.229614 40.000000 53.575684 -129.343124 40.000000 -0.000000 -180.000000 40.000000 23.494715 -178.460068 40.000000 46.587429 -173.866653 40.000000 68.883018 -166.298325 40.000000 26.105238 -198.288986 40.000000 51.763805 -193.185165 40.000000 76.536690 -184.775909 40.000000 35.913239 -217.048935 40.000000 56.940193 -212.503662 40.000000 77.422691 -205.926514 40.000000 70.000000 -121.243553 -40.000000 85.226601 -111.069473 -40.000000 98.994949 -98.994949 -40.000000 111.069473 -85.226601 -40.000000 90.000000 -155.884567 -40.000000 109.577065 -142.803604 -40.000000 127.279228 -127.279228 -40.000000 142.803604 -109.577065 -40.000000 121.752281 -158.670670 -40.000000 141.421356 -141.421356 -40.000000 158.670670 -121.752281 -40.000000 139.626251 -170.013275 -40.000000 155.563507 -155.563507 -40.000000 170.013275 -139.626251 -40.000000 70.000000 -121.243553 40.000000 85.226601 -111.069473 40.000000 98.994949 -98.994949 40.000000 111.069473 -85.226601 40.000000 90.000000 -155.884567 40.000000 109.577065 -142.803604 40.000000 127.279228 -127.279228 40.000000 142.803604 -109.577065 40.000000 121.752281 -158.670670 40.000000 141.421356 -141.421356 40.000000 158.670670 -121.752281 40.000000 139.626251 -170.013275 40.000000 155.563507 -155.563507 40.000000 170.013275 -139.626251 40.000000 121.243553 -70.000000 -40.000000 129.343124 -53.575684 -40.000000 135.229614 -36.234665 -40.000000 138.802292 -18.273666 -40.000000 155.884567 -90.000000 -40.000000 166.298325 -68.883018 -40.000000 173.866653 -46.587429 -40.000000 178.460068 -23.494715 -40.000000 184.775909 -76.536690 -40.000000 193.185165 -51.763805 -40.000000 198.288986 -26.105238 -40.000000 205.926514 -77.422691 -40.000000 212.503662 -56.940193 -40.000000 217.048935 -35.913239 -40.000000 121.243553 -70.000000 40.000000 129.343124 -53.575684 40.000000 135.229614 -36.234665 40.000000 138.802292 -18.273666 40.000000 155.884567 -90.000000 40.000000 166.298325 -68.883018 40.000000 173.866653 -46.587429 40.000000 178.460068 -23.494715 40.000000 184.775909 -76.536690 40.000000 193.185165 -51.763805 40.000000 198.288986 -26.105238 40.000000 205.926514 -77.422691 40.000000 212.503662 -56.940193 40.000000 217.048935 -35.913239 40.000000 85.226601 -111.069473 -40.000000 98.994949 -98.994949 -40.000000 85.226601 -111.069473 40.000000 98.994949 -98.994949 40.000000 "
							            />
							<Normal DEF="normals_ME_Gear_001"
							        vector="-0.691759 0.000000 -0.722128 -0.685841 -0.090293 -0.722129 -0.668188 -0.179041 -0.722128 -0.639102 -0.264725 -0.722128 0.721247 0.000000 -0.692678 0.342052 -0.280715 -0.896772 0.000000 0.000000 -1.000000 0.155868 0.414132 -0.896772 0.223898 -0.707930 -0.669855 0.000000 0.000000 -1.000000 -0.160064 0.725034 -0.669855 0.729283 -0.341630 -0.592820 0.693326 0.185776 -0.696266 0.460762 0.660501 -0.592820 -0.691759 0.000000 0.722128 -0.685841 -0.090293 0.722129 -0.668188 -0.179041 0.722128 -0.639102 -0.264725 0.722128 0.721247 0.000000 0.692678 0.342052 -0.280715 0.896772 -0.000000 0.000000 1.000000 0.155868 0.414132 0.896772 0.223898 -0.707930 0.669855 -0.000000 0.000000 1.000000 -0.160064 0.725034 0.669855 0.729283 -0.341630 0.592820 0.693326 0.185776 0.696266 0.460762 0.660501 0.592820 -0.599081 -0.345879 -0.722128 -0.548809 -0.421116 -0.722128 -0.489148 -0.489148 -0.722128 -0.421116 -0.548809 -0.722128 0.624618 0.360623 -0.692678 0.436583 -0.072080 -0.896772 -0.000000 0.000000 -1.000000 -0.072080 0.436583 -0.896772 0.547866 -0.501137 -0.669855 -0.000000 0.000000 -1.000000 -0.501137 0.547866 -0.669855 0.802392 0.068781 -0.592821 0.507550 0.507550 -0.696266 0.068781 0.802392 -0.592821 -0.599081 -0.345879 0.722128 -0.548809 -0.421116 0.722128 -0.489148 -0.489148 0.722128 -0.421116 -0.548809 0.722129 0.624618 0.360623 0.692678 0.436583 -0.072080 0.896772 0.000000 0.000000 1.000000 -0.072080 0.436583 0.896772 0.547866 -0.501137 0.669855 0.000000 0.000000 1.000000 -0.501137 0.547866 0.669855 0.802392 0.068781 0.592821 0.507550 0.507550 0.696266 0.068781 0.802392 0.592821 -0.345879 -0.599081 -0.722128 -0.264725 -0.639102 -0.722128 -0.179041 -0.668188 -0.722128 -0.090293 -0.685841 -0.722129 0.360623 0.624618 -0.692678 0.414132 0.155868 -0.896772 0.000000 0.000000 -1.000000 -0.280715 0.342052 -0.896772 0.725034 -0.160064 -0.669855 0.000000 0.000000 -1.000000 -0.707930 0.223897 -0.669855 0.660501 0.460762 -0.592821 0.185776 0.693326 -0.696266 -0.341629 0.729283 -0.592821 -0.345879 -0.599081 0.722128 -0.264725 -0.639102 0.722128 -0.179041 -0.668188 0.722128 -0.090293 -0.685841 0.722129 0.360623 0.624618 0.692678 0.414132 0.155868 0.896772 0.000000 0.000000 1.000000 -0.280715 0.342052 0.896772 0.725034 -0.160064 0.669855 0.000000 0.000000 1.000000 -0.707930 0.223897 0.669855 0.660501 0.460762 0.592821 0.185776 0.693326 0.696266 -0.341629 0.729283 0.592821 0.000000 -0.691759 -0.722128 0.090293 -0.685841 -0.722129 0.179041 -0.668188 -0.722128 0.264725 -0.639102 -0.722128 0.000000 0.721247 -0.692678 0.280715 0.342052 -0.896772 0.000000 0.000000 -1.000000 -0.414132 0.155868 -0.896772 0.707930 0.223897 -0.669855 0.000000 0.000000 -1.000000 -0.725034 -0.160064 -0.669855 0.341629 0.729283 -0.592821 -0.185776 0.693326 -0.696266 -0.660501 0.460762 -0.592821 0.000000 -0.691759 0.722128 0.090293 -0.685841 0.722129 0.179041 -0.668188 0.722128 0.264725 -0.639102 0.722128 0.000000 0.721247 0.692678 0.280715 0.342052 0.896772 0.000000 0.000000 1.000000 -0.414132 0.155868 0.896772 0.707930 0.223897 0.669855 0.000000 0.000000 1.000000 -0.725034 -0.160064 0.669855 0.341629 0.729283 0.592821 -0.185776 0.693326 0.696266 -0.660501 0.460762 0.592821 0.345879 -0.599081 -0.722128 0.421116 -0.548809 -0.722128 0.489148 -0.489148 -0.722128 0.548809 -0.421116 -0.722128 -0.360623 0.624618 -0.692678 0.072080 0.436583 -0.896772 0.000000 0.000000 -1.000000 -0.436583 -0.072080 -0.896772 0.501137 0.547866 -0.669855 0.000000 0.000000 -1.000000 -0.547866 -0.501137 -0.669855 -0.068781 0.802392 -0.592821 -0.507550 0.507550 -0.696266 -0.802392 0.068781 -0.592821 0.345879 -0.599081 0.722128 0.421116 -0.548809 0.722128 0.489148 -0.489148 0.722128 0.548809 -0.421116 0.722128 -0.360623 0.624618 0.692678 0.072080 0.436583 0.896772 -0.000000 0.000000 1.000000 -0.436583 -0.072080 0.896772 0.501136 0.547866 0.669855 -0.000000 0.000000 1.000000 -0.547866 -0.501137 0.669855 -0.068781 0.802392 0.592821 -0.507550 0.507550 0.696266 -0.802392 0.068781 0.592821 0.599081 -0.345879 -0.722128 0.639102 -0.264725 -0.722128 0.668188 -0.179041 -0.722128 0.685841 -0.090293 -0.722129 -0.624618 0.360623 -0.692678 -0.155868 0.414132 -0.896772 -0.000000 0.000000 -1.000000 -0.342052 -0.280715 -0.896772 0.160064 0.725034 -0.669855 0.000000 0.000000 -1.000000 -0.223898 -0.707930 -0.669855 -0.460763 0.660501 -0.592820 -0.693326 0.185776 -0.696266 -0.729283 -0.341630 -0.592820 0.599081 -0.345879 0.722128 0.639102 -0.264725 0.722128 0.668188 -0.179041 0.722128 0.685841 -0.090293 0.722129 -0.624618 0.360623 0.692678 -0.155868 0.414132 0.896772 -0.000000 0.000000 1.000000 -0.342052 -0.280715 0.896772 0.160064 0.725034 0.669855 -0.000000 0.000000 1.000000 -0.223898 -0.707930 0.669855 -0.460763 0.660501 0.592820 -0.693326 0.185776 0.696266 -0.729283 -0.341630 0.592820 0.691759 0.000000 -0.722128 0.685841 0.090293 -0.722129 0.668188 0.179041 -0.722128 0.639102 0.264725 -0.722128 -0.721247 0.000000 -0.692678 -0.342052 0.280715 -0.896772 -0.000000 0.000000 -1.000000 -0.155868 -0.414132 -0.896772 -0.223898 0.707930 -0.669855 -0.000000 0.000000 -1.000000 0.160064 -0.725034 -0.669855 -0.729283 0.341630 -0.592820 -0.693326 -0.185776 -0.696266 -0.460762 -0.660501 -0.592820 0.691759 0.000000 0.722128 0.685841 0.090293 0.722129 0.668188 0.179041 0.722128 0.639102 0.264725 0.722128 -0.721247 0.000000 0.692678 -0.342052 0.280715 0.896772 0.000000 0.000000 1.000000 -0.155868 -0.414132 0.896772 -0.223898 0.707930 0.669855 0.000000 0.000000 1.000000 0.160064 -0.725034 0.669855 -0.729283 0.341630 0.592820 -0.693326 -0.185776 0.696266 -0.460762 -0.660501 0.592820 0.599081 0.345879 -0.722128 0.548809 0.421116 -0.722128 0.489148 0.489148 -0.722128 0.421116 0.548809 -0.722128 -0.624618 -0.360623 -0.692678 -0.436583 0.072080 -0.896772 0.000000 0.000000 -1.000000 0.072080 -0.436583 -0.896772 -0.547866 0.501137 -0.669855 0.000000 0.000000 -1.000000 0.501137 -0.547866 -0.669855 -0.802392 -0.068781 -0.592821 -0.507550 -0.507550 -0.696266 -0.068781 -0.802392 -0.592821 0.599081 0.345879 0.722128 0.548809 0.421116 0.722128 0.489148 0.489148 0.722128 0.421116 0.548809 0.722129 -0.624618 -0.360623 0.692678 -0.436583 0.072080 0.896772 0.000000 0.000000 1.000000 0.072080 -0.436583 0.896772 -0.547866 0.501137 0.669855 0.000000 0.000000 1.000000 0.501137 -0.547866 0.669855 -0.802392 -0.068781 0.592821 -0.507550 -0.507550 0.696266 -0.068781 -0.802392 0.592821 0.345879 0.599081 -0.722128 0.264725 0.639102 -0.722128 0.179041 0.668188 -0.722128 0.090293 0.685841 -0.722129 -0.360623 -0.624618 -0.692678 -0.414132 -0.155868 -0.896772 0.000000 0.000000 -1.000000 0.280715 -0.342052 -0.896772 -0.725034 0.160064 -0.669855 0.000000 0.000000 -1.000000 0.707930 -0.223897 -0.669855 -0.660501 -0.460762 -0.592821 -0.185776 -0.693326 -0.696266 0.341629 -0.729283 -0.592821 0.345879 0.599081 0.722128 0.264725 0.639102 0.722128 0.179041 0.668188 0.722128 0.090293 0.685841 0.722129 -0.360623 -0.624618 0.692678 -0.414132 -0.155868 0.896772 0.000000 0.000000 1.000000 0.280715 -0.342052 0.896772 -0.725034 0.160064 0.669855 0.000000 0.000000 1.000000 0.707930 -0.223897 0.669855 -0.660501 -0.460762 0.592821 -0.185776 -0.693326 0.696266 0.341629 -0.729283 0.592821 0.000000 0.691759 -0.722128 -0.090293 0.685841 -0.722129 -0.179041 0.668188 -0.722128 -0.264725 0.639102 -0.722128 0.000000 -0.721247 -0.692678 -0.280715 -0.342052 -0.896772 0.000000 0.000000 -1.000000 0.414132 -0.155868 -0.896772 -0.707930 -0.223897 -0.669855 0.000000 0.000000 -1.000000 0.725034 0.160064 -0.669855 -0.341629 -0.729283 -0.592821 0.185776 -0.693326 -0.696266 0.660501 -0.460762 -0.592821 0.000000 0.691759 0.722128 -0.090293 0.685841 0.722129 -0.179041 0.668188 0.722128 -0.264725 0.639102 0.722128 0.000000 -0.721247 0.692678 -0.280715 -0.342052 0.896772 0.000000 0.000000 1.000000 0.414132 -0.155868 0.896772 -0.707930 -0.223897 0.669855 0.000000 0.000000 1.000000 0.725034 0.160064 0.669855 -0.341629 -0.729283 0.592821 0.185776 -0.693326 0.696266 0.660501 -0.460762 0.592821 -0.345879 0.599081 -0.722128 -0.240412 0.359803 -0.901523 -0.325344 0.285320 -0.901523 -0.548809 0.421116 -0.722128 0.360623 -0.624618 -0.692678 -0.072080 -0.436583 -0.896772 -0.000000 0.000000 -1.000000 0.436583 0.072080 -0.896772 -0.501137 -0.547866 -0.669855 0.000000 0.000000 -1.000000 0.547866 0.501137 -0.669855 0.068781 -0.802392 -0.592821 0.507550 -0.507550 -0.696266 0.802392 -0.068781 -0.592821 -0.345879 0.599081 0.722128 -0.240412 0.359803 0.901523 -0.325345 0.285320 0.901523 -0.548809 0.421116 0.722128 0.360623 -0.624618 0.692678 -0.072080 -0.436583 0.896772 0.000000 0.000000 1.000000 0.436583 0.072080 0.896772 -0.501136 -0.547866 0.669855 0.000000 0.000000 1.000000 0.547866 0.501137 0.669855 0.068781 -0.802392 0.592821 0.507550 -0.507550 0.696266 0.802392 -0.068781 0.592821 -0.599081 0.345879 -0.722128 -0.639102 0.264725 -0.722128 -0.668188 0.179041 -0.722128 -0.685841 0.090293 -0.722129 0.624618 -0.360623 -0.692678 0.155868 -0.414132 -0.896772 0.000000 0.000000 -1.000000 0.342052 0.280715 -0.896772 -0.160064 -0.725034 -0.669855 -0.000000 0.000000 -1.000000 0.223898 0.707930 -0.669855 0.460763 -0.660501 -0.592820 0.693326 -0.185776 -0.696266 0.729283 0.341630 -0.592820 -0.599081 0.345879 0.722128 -0.639102 0.264725 0.722128 -0.668188 0.179041 0.722128 -0.685841 0.090293 0.722129 0.624618 -0.360623 0.692678 0.155868 -0.414132 0.896772 0.000000 0.000000 1.000000 0.342052 0.280715 0.896772 -0.160064 -0.725034 0.669855 0.000000 0.000000 1.000000 0.223898 0.707930 0.669855 0.460763 -0.660501 0.592820 0.693326 -0.185776 0.696266 0.729283 0.341630 0.592820 -0.659346 0.751840 0.000000 -0.659346 0.751840 0.000000 -0.659346 0.751840 0.000000 -0.659346 0.751840 0.000000 "
							        />
							<ColorRGBA color="0.604 0.604 0.604 1.000 0.604 0.604 0.604 1.000 0.604 0.604 0.604 1.000 0.604 0.604 0.604 1.000 0.604 0.604 0.604 1.000 0.604 0.604 0.604 1.000 0.604 0.604 0.604 1.000 0.604 0.604 0.604 1.000 0.604 0.604 0.604 1.000 0.604 0.604 0.604 1.000 0.604 0.604 0.604 1.000 0.604 0.604 0.604 1.000 0.604 0.604 0.604 1.000 0.604 0.604 0.604 1.000 0.824 0.824 0.824 1.000 0.176 0.176 0.176 1.000 0.176 0.176 0.176 1.000 0.824 0.824 0.824 1.000 0.824 0.824 0.824 1.000 0.176 0.176 0.176 1.000 0.176 0.176 0.176 1.000 0.604 0.604 0.604 1.000 0.604 0.604 0.604 1.000 0.604 0.604 0.604 1.000 0.604 0.604 0.604 1.000 0.604 0.604 0.604 1.000 0.604 0.604 0.604 1.000 0.604 0.604 0.604 1.000 0.604 0.604 0.604 1.000 0.604 0.604 0.604 1.000 0.604 0.604 0.604 1.000 0.604 0.604 0.604 1.000 0.604 0.604 0.604 1.000 0.604 0.604 0.604 1.000 0.604 0.604 0.604 1.000 0.824 0.824 0.824 1.000 0.176 0.176 0.176 1.000 0.176 0.176 0.176 1.000 0.824 0.824 0.824 1.000 0.824 0.824 0.824 1.000 0.176 0.176 0.176 1.000 0.176 0.176 0.176 1.000 0.604 0.604 0.604 1.000 0.824 0.824 0.824 1.000 0.604 0.604 0.604 1.000 0.604 0.604 0.604 1.000 0.604 0.604 0.604 1.000 0.604 0.604 0.604 1.000 0.604 0.604 0.604 1.000 0.604 0.604 0.604 1.000 0.604 0.604 0.604 1.000 0.604 0.604 0.604 1.000 0.604 0.604 0.604 1.000 0.604 0.604 0.604 1.000 0.604 0.604 0.604 1.000 0.604 0.604 0.604 1.000 0.604 0.604 0.604 1.000 0.604 0.604 0.604 1.000 0.604 0.604 0.604 1.000 0.824 0.824 0.824 1.000 0.176 0.176 0.176 1.000 0.176 0.176 0.176 1.000 0.824 0.824 0.824 1.000 0.824 0.824 0.824 1.000 0.176 0.176 0.176 1.000 0.176 0.176 0.176 1.000 0.604 0.604 0.604 1.000 0.824 0.824 0.824 1.000 0.604 0.604 0.604 1.000 0.604 0.604 0.604 1.000 0.604 0.604 0.604 1.000 0.604 0.604 0.604 1.000 0.604 0.604 0.604 1.000 0.604 0.604 0.604 1.000 0.604 0.604 0.604 1.000 0.604 0.604 0.604 1.000 0.604 0.604 0.604 1.000 0.604 0.604 0.604 1.000 0.604 0.604 0.604 1.000 0.604 0.604 0.604 1.000 0.604 0.604 0.604 1.000 0.604 0.604 0.604 1.000 0.604 0.604 0.604 1.000 0.824 0.824 0.824 1.000 0.176 0.176 0.176 1.000 0.176 0.176 0.176 1.000 0.824 0.824 0.824 1.000 0.824 0.824 0.824 1.000 0.176 0.176 0.176 1.000 0.176 0.176 0.176 1.000 0.604 0.604 0.604 1.000 0.824 0.824 0.824 1.000 0.604 0.604 0.604 1.000 0.604 0.604 0.604 1.000 0.604 0.604 0.604 1.000 0.604 0.604 0.604 1.000 0.604 0.604 0.604 1.000 0.604 0.604 0.604 1.000 0.604 0.604 0.604 1.000 0.604 0.604 0.604 1.000 0.604 0.604 0.604 1.000 0.604 0.604 0.604 1.000 0.604 0.604 0.604 1.000 0.604 0.604 0.604 1.000 0.604 0.604 0.604 1.000 0.604 0.604 0.604 1.000 0.604 0.604 0.604 1.000 0.824 0.824 0.824 1.000 0.176 0.176 0.176 1.000 0.176 0.176 0.176 1.000 0.824 0.824 0.824 1.000 0.824 0.824 0.824 1.000 0.176 0.176 0.176 1.000 0.176 0.176 0.176 1.000 0.604 0.604 0.604 1.000 0.824 0.824 0.824 1.000 0.604 0.604 0.604 1.000 0.604 0.604 0.604 1.000 0.604 0.604 0.604 1.000 0.604 0.604 0.604 1.000 0.604 0.604 0.604 1.000 0.604 0.604 0.604 1.000 0.604 0.604 0.604 1.000 0.604 0.604 0.604 1.000 0.604 0.604 0.604 1.000 0.604 0.604 0.604 1.000 0.604 0.604 0.604 1.000 0.604 0.604 0.604 1.000 0.604 0.604 0.604 1.000 0.604 0.604 0.604 1.000 0.604 0.604 0.604 1.000 0.824 0.824 0.824 1.000 0.176 0.176 0.176 1.000 0.176 0.176 0.176 1.000 0.824 0.824 0.824 1.000 0.824 0.824 0.824 1.000 0.176 0.176 0.176 1.000 0.176 0.176 0.176 1.000 0.604 0.604 0.604 1.000 0.824 0.824 0.824 1.000 0.604 0.604 0.604 1.000 0.604 0.604 0.604 1.000 0.604 0.604 0.604 1.000 0.604 0.604 0.604 1.000 0.604 0.604 0.604 1.000 0.604 0.604 0.604 1.000 0.604 0.604 0.604 1.000 0.604 0.604 0.604 1.000 0.604 0.604 0.604 1.000 0.604 0.604 0.604 1.000 0.604 0.604 0.604 1.000 0.604 0.604 0.604 1.000 0.604 0.604 0.604 1.000 0.604 0.604 0.604 1.000 0.604 0.604 0.604 1.000 0.824 0.824 0.824 1.000 0.176 0.176 0.176 1.000 0.176 0.176 0.176 1.000 0.824 0.824 0.824 1.000 0.824 0.824 0.824 1.000 0.176 0.176 0.176 1.000 0.176 0.176 0.176 1.000 0.604 0.604 0.604 1.000 0.824 0.824 0.824 1.000 0.604 0.604 0.604 1.000 0.604 0.604 0.604 1.000 0.604 0.604 0.604 1.000 0.604 0.604 0.604 1.000 0.604 0.604 0.604 1.000 0.604 0.604 0.604 1.000 0.604 0.604 0.604 1.000 0.604 0.604 0.604 1.000 0.604 0.604 0.604 1.000 0.604 0.604 0.604 1.000 0.604 0.604 0.604 1.000 0.604 0.604 0.604 1.000 0.604 0.604 0.604 1.000 0.604 0.604 0.604 1.000 0.604 0.604 0.604 1.000 0.824 0.824 0.824 1.000 0.176 0.176 0.176 1.000 0.176 0.176 0.176 1.000 0.824 0.824 0.824 1.000 0.824 0.824 0.824 1.000 0.176 0.176 0.176 1.000 0.176 0.176 0.176 1.000 0.604 0.604 0.604 1.000 0.824 0.824 0.824 1.000 0.604 0.604 0.604 1.000 0.604 0.604 0.604 1.000 0.604 0.604 0.604 1.000 0.604 0.604 0.604 1.000 0.604 0.604 0.604 1.000 0.604 0.604 0.604 1.000 0.604 0.604 0.604 1.000 0.604 0.604 0.604 1.000 0.604 0.604 0.604 1.000 0.604 0.604 0.604 1.000 0.604 0.604 0.604 1.000 0.604 0.604 0.604 1.000 0.604 0.604 0.604 1.000 0.604 0.604 0.604 1.000 0.604 0.604 0.604 1.000 0.824 0.824 0.824 1.000 0.176 0.176 0.176 1.000 0.176 0.176 0.176 1.000 0.824 0.824 0.824 1.000 0.824 0.824 0.824 1.000 0.176 0.176 0.176 1.000 0.176 0.176 0.176 1.000 0.604 0.604 0.604 1.000 0.824 0.824 0.824 1.000 0.604 0.604 0.604 1.000 0.604 0.604 0.604 1.000 0.604 0.604 0.604 1.000 0.604 0.604 0.604 1.000 0.604 0.604 0.604 1.000 0.604 0.604 0.604 1.000 0.604 0.604 0.604 1.000 0.604 0.604 0.604 1.000 0.604 0.604 0.604 1.000 0.604 0.604 0.604 1.000 0.604 0.604 0.604 1.000 0.604 0.604 0.604 1.000 0.604 0.604 0.604 1.000 0.604 0.604 0.604 1.000 0.604 0.604 0.604 1.000 0.824 0.824 0.824 1.000 0.176 0.176 0.176 1.000 0.176 0.176 0.176 1.000 0.824 0.824 0.824 1.000 0.824 0.824 0.824 1.000 0.176 0.176 0.176 1.000 0.176 0.176 0.176 1.000 0.604 0.604 0.604 1.000 0.824 0.824 0.824 1.000 0.604 0.604 0.604 1.000 0.604 0.604 0.604 1.000 0.604 0.604 0.604 1.000 0.604 0.604 0.604 1.000 0.604 0.604 0.604 1.000 0.604 0.604 0.604 1.000 0.604 0.604 0.604 1.000 0.604 0.604 0.604 1.000 0.604 0.604 0.604 1.000 0.604 0.604 0.604 1.000 0.604 0.604 0.604 1.000 0.604 0.604 0.604 1.000 0.604 0.604 0.604 1.000 0.604 0.604 0.604 1.000 0.604 0.604 0.604 1.000 0.824 0.824 0.824 1.000 0.176 0.176 0.176 1.000 0.176 0.176 0.176 1.000 0.824 0.824 0.824 1.000 0.824 0.824 0.824 1.000 0.176 0.176 0.176 1.000 0.176 0.176 0.176 1.000 0.604 0.604 0.604 1.000 0.824 0.824 0.824 1.000 0.604 0.604 0.604 1.000 0.604 0.604 0.604 1.000 0.604 0.604 0.604 1.000 0.604 0.604 0.604 1.000 0.604 0.604 0.604 1.000 0.604 0.604 0.604 1.000 0.604 0.604 0.604 1.000 0.604 0.604 0.604 1.000 0.604 0.604 0.604 1.000 0.604 0.604 0.604 1.000 0.604 0.604 0.604 1.000 0.604 0.604 0.604 1.000 0.604 0.604 0.604 1.000 0.604 0.604 0.604 1.000 0.604 0.604 0.604 1.000 0.824 0.824 0.824 1.000 0.176 0.176 0.176 1.000 0.176 0.176 0.176 1.000 0.824 0.824 0.824 1.000 0.824 0.824 0.824 1.000 0.176 0.176 0.176 1.000 0.176 0.176 0.176 1.000 0.604 0.604 0.604 1.000 0.824 0.824 0.824 1.000 0.604 0.604 0.604 1.000 0.604 0.604 0.604 1.000 0.824 0.824 0.824 1.000 0.604 0.604 0.604 1.000 0.118 0.118 0.118 1.000 0.118 0.118 0.118 1.000 0.118 0.118 0.118 1.000 0.118 0.118 0.118 1.000 0.118 0.118 0.118 1.000 0.118 0.118 0.118 1.000 0.118 0.118 0.118 1.000 0.118 0.118 0.118 1.000 0.118 0.118 0.118 1.000 0.118 0.118 0.118 1.000 0.118 0.118 0.118 1.000 0.118 0.118 0.118 1.000 0.118 0.118 0.118 1.000 0.118 0.118 0.118 1.000 0.118 0.118 0.118 1.000 0.118 0.118 0.118 1.000 0.118 0.118 0.118 1.000 0.118 0.118 0.118 1.000 0.118 0.118 0.118 1.000 0.118 0.118 0.118 1.000 0.118 0.118 0.118 1.000 0.118 0.118 0.118 1.000 0.118 0.118 0.118 1.000 0.118 0.118 0.118 1.000 0.118 0.118 0.118 1.000 0.118 0.118 0.118 1.000 0.118 0.118 0.118 1.000 0.118 0.118 0.118 1.000 0.118 0.118 0.118 1.000 0.118 0.118 0.118 1.000 0.118 0.118 0.118 1.000 0.118 0.118 0.118 1.000 0.118 0.118 0.118 1.000 0.118 0.118 0.118 1.000 0.118 0.118 0.118 1.000 0.118 0.118 0.118 1.000 0.118 0.118 0.118 1.000 0.118 0.118 0.118 1.000 0.118 0.118 0.118 1.000 0.118 0.118 0.118 1.000 0.118 0.118 0.118 1.000 0.118 0.118 0.118 1.000 0.118 0.118 0.118 1.000 0.118 0.118 0.118 1.000 0.118 0.118 0.118 1.000 0.118 0.118 0.118 1.000 0.118 0.118 0.118 1.000 0.118 0.118 0.118 1.000 " />
						</IndexedFaceSet>
					</Shape>
				</Group>
			</Transform>
		</Transform>
	</Scene>
</X3D>