<?xml version="1.0" encoding="UTF-8"?>
<!DOCTYPE X3D PUBLIC "ISO//Web3D//DTD X3D 3.0//EN" "http://www.web3d.org/specifications/x3d-3.0.dtd">
<X3D version="3.0" profile="Immersive" xmlns:xsd="http://www.w3.org/2001/XMLSchema-instance" xsd:noNamespaceSchemaLocation="http://www.web3d.org/specifications/x3d-3.0.xsd">
	<head>
		<meta name="filename" content="qirex.x3d" />
		<meta name="generator" content="Blender 4.0.2" />
	</head>
	<Scene>
		<NavigationInfo headlight="true"
		                visibilityLimit="0.0"
		                type='"EXAMINE", "ANY"'
		                avatarSize="0.25, 1.75, 0.75"
		                />
		<Background DEF="WO_World"
		            groundColor="0.051 0.051 0.051"
		            skyColor="0.051 0.051 0.051"
		            />
		<Transform DEF="qirex_TRANSFORM"
		           translation="0.000000 0.000000 0.000000"
		           scale="1.000000 1.000000 1.000000"
		           rotation="0.000000 0.707107 0.707107 3.141593"
		           >
			<Transform DEF="qirex_ifs_TRANSFORM"
			           translation="0.000000 0.000000 0.000000"
			           scale="1.000000 1.000000 1.000000"
			           rotation="0.000000 1.000000 0.000000 0.000000"
			           >
				<Group DEF="group_ME_null1">
					<Shape>
						<Appearance>
							<Material DEF="MA_colored_polygons_002"
							          diffuseColor="0.800 0.800 0.800"
							          specularColor="0.401 0.401 0.401"
							          emissiveColor="0.000 0.000 0.000"
							          ambientIntensity="0.000"
							          shininess="0.500"
							          transparency="0.0"
							          />
						</Appearance>
						<IndexedFaceSet solid="false"
						                colorPerVertex="false"
						                coordIndex="11 27 28 12 -1 68 93 87 65 -1 35 51 54 38 -1 64 69 85 83 -1 66 84 86 67 -1 73 89 90 71 -1 74 88 89 73 -1 71 90 91 72 -1 77 76 95 81 -1 77 81 84 66 -1 4 20 30 14 -1 9 25 26 10 -1 76 79 80 95 -1 75 94 82 78 -1 10 26 27 11 -1 46 62 50 34 -1 12 9 10 11 -1 0 15 14 2 -1 15 1 4 14 -1 3 5 4 1 -1 6 7 5 3 -1 8 13 7 6 -1 13 8 9 12 -1 93 88 86 87 -1 47 46 34 32 -1 23 22 19 21 -1 38 40 45 39 -1 67 65 69 66 -1 76 77 64 75 -1 21 19 17 20 -1 76 75 78 79 -1 33 47 63 49 -1 39 55 53 37 -1 1 17 19 3 -1 15 31 17 1 -1 42 58 59 43 -1 34 50 48 32 -1 46 36 52 62 -1 6 22 24 8 -1 72 91 92 70 -1 36 37 53 52 -1 7 23 21 5 -1 78 82 80 79 -1 40 56 57 41 -1 43 59 60 44 -1 38 54 56 40 -1 47 32 48 63 -1 25 28 27 26 -1 2 18 16 0 -1 47 33 36 46 -1 74 68 65 67 -1 35 37 36 33 -1 38 39 37 35 -1 41 44 45 40 -1 62 63 48 50 -1 57 60 59 58 -1 29 28 25 24 -1 20 17 31 30 -1 55 61 56 54 -1 61 60 57 56 -1 94 95 80 82 -1 89 92 91 90 -1 83 81 95 94 -1 29 24 22 23 -1 87 86 84 85 -1 83 85 84 81 -1 52 49 63 62 -1 93 92 89 88 -1 75 64 83 94 -1 39 45 61 55 -1 14 30 18 2 -1 65 87 85 69 -1 0 16 31 15 -1 12 28 29 13 -1 13 29 23 7 -1 30 31 16 18 -1 68 70 92 93 -1 67 86 88 74 -1 41 57 58 42 -1 3 19 22 6 -1 33 49 51 35 -1 8 24 25 9 -1 5 21 20 4 -1 44 60 61 45 -1 44 41 42 43 -1 70 73 71 72 -1 66 69 64 77 -1 55 54 51 53 -1 52 53 51 49 -1 73 70 68 74 -1 "
						                >
							<Coordinate DEF="coords_ME_null1"
							            point="-754.000000 984.000000 -749.000000 -1683.500000 -301.000000 -749.000000 -754.000000 1243.000000 -749.000000 -969.000000 -1537.500000 -749.000000 -1979.500000 -316.500000 -749.000000 -1120.500000 -1785.500000 -749.000000 548.500000 -1537.500000 -749.000000 700.500000 -1785.500000 -749.000000 1263.000000 -337.000000 -749.000000 554.000000 1013.000000 -749.000000 1645.000000 2862.000000 -749.000000 1946.000000 2862.000000 -749.000000 858.000000 1012.000000 -749.000000 1559.000000 -337.000000 -749.000000 -1088.000000 1209.000000 -749.000000 -942.000000 958.000000 -749.000000 -754.000000 984.000000 750.000000 -1683.500000 -301.000000 750.000000 -754.000000 1243.000000 750.000000 -969.000000 -1537.500000 750.000000 -1979.500000 -316.500000 750.000000 -1120.500000 -1785.500000 750.000000 548.500000 -1537.500000 750.000000 700.500000 -1785.500000 750.000000 1263.000000 -337.000000 750.000000 554.000000 1013.000000 750.000000 1645.000000 2862.000000 750.000000 1946.000000 2862.000000 750.000000 858.000000 1012.000000 750.000000 1559.000000 -337.000000 750.000000 -1088.000000 1209.000000 750.000000 -942.000000 958.000000 750.000000 -753.000000 1497.000000 -750.000000 -2252.143066 -309.285736 -750.000061 -753.000000 1754.000000 -750.000000 -1259.500000 -2014.166748 -750.000000 -2546.888916 -291.111115 -750.000000 -1409.833374 -2259.333496 -750.000000 852.000000 -2034.000000 -750.000000 1004.500000 -2282.000000 -750.000000 1854.000000 -295.500000 -750.000000 1161.000000 1015.000000 -750.000000 2248.000000 2861.000000 -750.000000 2555.000000 2862.000000 -750.000000 1470.000000 1011.000000 -750.000000 2150.500000 -305.000000 -750.000000 -1408.833374 1664.166748 -750.000000 -1259.166748 1418.666748 -750.000000 -753.000000 1497.000000 750.000000 -2252.143066 -309.285736 750.000061 -753.000000 1754.000000 750.000000 -1259.500000 -2014.166748 750.000000 -2546.888916 -291.111115 750.000000 -1409.833374 -2259.333496 750.000000 852.000000 -2034.000000 750.000000 1004.500000 -2282.000000 750.000000 1854.000000 -295.500000 750.000000 1161.000000 1015.000000 750.000000 2248.000000 2861.000000 750.000000 2555.000000 2862.000000 750.000000 1470.000000 1011.000000 750.000000 2150.500000 -305.000000 750.000000 -1408.833374 1664.166748 750.000000 -1259.166748 1418.666748 750.000000 -3127.166748 -318.833344 -750.000000 1308.000000 -2778.000000 -750.000000 -1559.833374 -2504.666748 -750.000000 1156.000000 -2530.000000 -750.000000 2707.500000 -319.666687 -750.000000 -1709.833374 -2750.000000 -750.000000 2073.000000 1014.000000 -750.000000 2854.000000 2862.000000 -750.000000 3161.000000 2862.000000 -750.000000 1768.000000 1020.000000 -750.000000 2415.833496 -318.166687 -750.000000 -1708.833374 2154.666748 -750.000000 -1559.000000 1909.333374 -750.000000 -2835.000000 -317.500000 -750.000000 -754.000000 2267.000000 -750.000000 -754.000000 2010.000000 -750.000000 -754.000000 2010.000000 750.000000 -2835.000000 -317.500000 750.000000 -754.000000 2267.000000 750.000000 -3127.166748 -318.833344 750.000000 -1559.833374 -2504.666748 750.000000 -1709.833374 -2750.000000 750.000000 1156.000000 -2530.000000 750.000000 1308.000000 -2778.000000 750.000000 2415.833496 -318.166687 750.000000 1768.000000 1020.000000 750.000000 2854.000000 2862.000000 750.000000 3161.000000 2862.000000 750.000000 2073.000000 1014.000000 750.000000 2711.285889 -303.142883 750.000061 -1708.833374 2154.666748 750.000000 -1559.000000 1909.333374 750.000000 "
							            />
							<ColorRGBA color="0.780 0.043 0.820 1.000 0.780 0.043 0.820 1.000 0.780 0.043 0.820 1.000 0.004 0.020 1.000 1.000 0.780 0.043 0.820 1.000 0.004 0.020 1.000 1.000 0.004 0.020 1.000 1.000 0.780 0.043 0.820 1.000 0.780 0.043 0.820 1.000 0.780 0.043 0.820 1.000 0.004 0.020 1.000 1.000 0.004 0.020 1.000 1.000 0.169 0.008 0.176 1.000 0.780 0.043 0.820 1.000 0.780 0.043 0.820 1.000 0.349 0.349 0.349 1.000 0.820 0.620 0.192 1.000 0.820 0.620 0.192 1.000 0.820 0.620 0.192 1.000 0.820 0.620 0.192 1.000 0.820 0.620 0.192 1.000 0.820 0.620 0.192 1.000 0.820 0.620 0.192 1.000 0.424 0.008 0.820 1.000 0.820 0.620 0.192 1.000 0.424 0.008 0.820 1.000 0.820 0.620 0.192 1.000 0.820 0.620 0.192 1.000 0.820 0.620 0.192 1.000 0.424 0.008 0.820 1.000 0.820 0.620 0.192 1.000 0.780 0.043 0.820 1.000 0.169 0.008 0.176 1.000 0.780 0.043 0.820 1.000 0.780 0.043 0.820 1.000 0.780 0.043 0.820 1.000 0.780 0.043 0.820 1.000 0.004 0.020 1.000 1.000 0.004 0.020 1.000 1.000 0.780 0.043 0.820 1.000 0.004 0.020 1.000 1.000 0.169 0.008 0.176 1.000 0.780 0.043 0.820 1.000 0.004 0.020 1.000 1.000 0.780 0.043 0.820 1.000 0.004 0.020 1.000 1.000 0.780 0.043 0.820 1.000 0.424 0.008 0.820 1.000 0.780 0.043 0.820 1.000 0.820 0.620 0.192 1.000 0.820 0.620 0.192 1.000 0.820 0.620 0.192 1.000 0.820 0.620 0.192 1.000 0.820 0.620 0.192 1.000 0.424 0.008 0.820 1.000 0.424 0.008 0.820 1.000 0.424 0.008 0.820 1.000 0.424 0.008 0.820 1.000 0.424 0.008 0.820 1.000 0.424 0.008 0.820 1.000 0.424 0.008 0.820 1.000 0.424 0.008 0.820 1.000 0.424 0.008 0.820 1.000 0.424 0.008 0.820 1.000 0.424 0.008 0.820 1.000 0.424 0.008 0.820 1.000 0.424 0.008 0.820 1.000 0.424 0.008 0.820 1.000 0.004 0.020 1.000 1.000 0.780 0.043 0.820 1.000 0.780 0.043 0.820 1.000 0.169 0.008 0.176 1.000 0.169 0.008 0.176 1.000 0.780 0.043 0.820 1.000 0.780 0.043 0.820 1.000 0.424 0.008 0.820 1.000 0.780 0.043 0.820 1.000 0.004 0.020 1.000 1.000 0.004 0.020 1.000 1.000 0.780 0.043 0.820 1.000 0.780 0.043 0.820 1.000 0.004 0.020 1.000 1.000 0.004 0.020 1.000 1.000 0.780 0.043 0.820 1.000 0.820 0.620 0.192 1.000 0.820 0.620 0.192 1.000 0.820 0.620 0.192 1.000 0.424 0.008 0.820 1.000 0.424 0.008 0.820 1.000 0.820 0.620 0.192 1.000 " />
						</IndexedFaceSet>
					</Shape>
				</Group>
			</Transform>
		</Transform>
	</Scene>
</X3D>