<?xml version="1.0" encoding="UTF-8"?>
<!DOCTYPE X3D PUBLIC "ISO//Web3D//DTD X3D 3.0//EN" "http://www.web3d.org/specifications/x3d-3.0.dtd">
<X3D version="3.0" profile="Immersive" xmlns:xsd="http://www.w3.org/2001/XMLSchema-instance" xsd:noNamespaceSchemaLocation="http://www.web3d.org/specifications/x3d-3.0.xsd">
	<head>
		<meta name="filename" content="rappier.x3d" />
		<meta name="generator" content="Blender 4.0.2" />
	</head>
	<Scene>
		<NavigationInfo headlight="true"
		                visibilityLimit="0.0"
		                type='"EXAMINE", "ANY"'
		                avatarSize="0.25, 1.75, 0.75"
		                />
		<Background DEF="WO_World"
		            groundColor="0.051 0.051 0.051"
		            skyColor="0.051 0.051 0.051"
		            />
		<Transform DEF="rapier_TRANSFORM"
		           translation="0.000000 0.000000 0.000000"
		           scale="1.000000 1.000000 1.000000"
		           rotation="0.000000 0.707107 0.707107 3.141593"
		           >
			<Transform DEF="rapier_ifs_TRANSFORM"
			           translation="0.000000 0.000000 0.000000"
			           scale="1.000000 1.000000 1.000000"
			           rotation="0.000000 1.000000 0.000000 0.000000"
			           >
				<Group DEF="group_ME_extru1_1">
					<Shape>
						<Appearance>
							<Material DEF="MA_colored_polygons"
							          diffuseColor="0.800 0.800 0.800"
							          specularColor="0.401 0.401 0.401"
							          emissiveColor="0.000 0.000 0.000"
							          ambientIntensity="0.000"
							          shininess="0.500"
							          transparency="0.0"
							          />
						</Appearance>
						<IndexedFaceSet solid="false"
						                normalPerVertex="true"
						                colorPerVertex="false"
						                coordIndex="10 0 9 19 -1 11 1 0 10 -1 12 2 1 11 -1 13 3 2 12 -1 14 4 3 13 -1 15 5 4 14 -1 16 6 5 15 -1 17 7 6 16 -1 18 8 7 17 -1 19 9 8 18 -1 2 0 1 -1 10 12 11 -1 18 10 19 -1 16 18 17 -1 14 16 15 -1 12 14 13 -1 14 18 16 -1 12 10 18 14 -1 0 8 9 -1 8 6 7 -1 6 4 5 -1 4 2 3 -1 8 4 6 -1 0 2 4 8 -1 21 23 22 20 -1 25 27 23 21 -1 24 26 27 25 -1 20 22 26 24 -1 25 21 20 24 -1 29 31 30 28 -1 23 29 28 22 -1 27 31 29 23 -1 26 30 31 27 -1 22 28 30 26 -1 33 35 34 32 -1 37 39 35 33 -1 36 38 39 37 -1 32 34 38 36 -1 37 33 32 36 -1 41 43 42 40 -1 35 41 40 34 -1 39 43 41 35 -1 38 42 43 39 -1 34 40 42 38 -1 45 47 46 44 -1 49 51 47 45 -1 48 50 51 49 -1 44 46 50 48 -1 49 45 44 48 -1 53 55 54 52 -1 47 53 52 46 -1 51 55 53 47 -1 50 54 55 51 -1 46 52 54 50 -1 57 59 58 56 -1 61 63 59 57 -1 60 62 63 61 -1 56 58 62 60 -1 61 57 56 60 -1 65 67 66 64 -1 59 65 64 58 -1 63 67 65 59 -1 62 66 67 63 -1 58 64 66 62 -1 "
						                >
							<Coordinate DEF="coords_ME_extru1_1"
							            point="-6.000000 -115.000000 15.000000 0.000000 -134.000000 15.000000 6.000000 -115.000000 15.000000 25.000000 -115.000000 15.000000 12.000000 -102.000000 15.000000 19.000000 -82.000000 15.000000 0.000000 -95.000000 15.000000 -19.000000 -82.000000 15.000000 -12.000000 -102.000000 15.000000 -25.000000 -115.000000 15.000000 -6.000000 -115.000000 -15.000000 0.000000 -134.000000 -15.000000 6.000000 -115.000000 -15.000000 25.000000 -115.000000 -15.000000 12.000000 -102.000000 -15.000000 19.000000 -82.000000 -15.000000 0.000000 -95.000000 -15.000000 -19.000000 -82.000000 -15.000000 -12.000000 -102.000000 -15.000000 -25.000000 -115.000000 -15.000000 -63.000000 134.000000 15.000000 -63.000000 134.000000 -15.000000 -63.000000 -1.000000 15.000000 -63.000000 -1.000000 -15.000000 -40.000000 134.000000 15.000000 -40.000000 134.000000 -15.000000 -40.000000 -29.000000 15.000000 -40.000000 -29.000000 -15.000000 -118.000000 -1.000000 15.000000 -118.000000 -1.000000 -15.000000 -142.000000 -29.000000 15.000000 -142.000000 -29.000000 -15.000000 -28.000000 134.000000 15.000000 -28.000000 134.000000 -15.000000 -28.000000 -40.000000 15.000000 -28.000000 -40.000000 -15.000000 -4.000000 134.000000 15.000000 -4.000000 134.000000 -15.000000 -4.000000 -67.000000 15.000000 -4.000000 -67.000000 -15.000000 -91.000000 -40.000000 15.000000 -91.000000 -40.000000 -15.000000 -114.000000 -67.000000 15.000000 -114.000000 -67.000000 -15.000000 28.000000 134.000000 -15.000000 28.000000 134.000000 15.000000 28.000000 -40.000000 -15.000000 28.000000 -40.000000 15.000000 5.000000 134.000000 -15.000000 5.000000 134.000000 15.000000 5.000000 -67.000000 -15.000000 5.000000 -67.000000 15.000000 83.000000 -40.000000 -15.000000 83.000000 -40.000000 15.000000 107.000000 -67.000000 -15.000000 107.000000 -67.000000 15.000000 63.000000 134.000000 -15.000000 63.000000 134.000000 15.000000 63.000000 -1.000000 -15.000000 63.000000 -1.000000 15.000000 40.000000 134.000000 -15.000000 40.000000 134.000000 15.000000 40.000000 -29.000000 -15.000000 40.000000 -29.000000 15.000000 118.000000 -1.000000 -15.000000 118.000000 -1.000000 15.000000 142.000000 -29.000000 -15.000000 142.000000 -29.000000 15.000000 "
							            />
							<Normal DEF="normals_ME_extru1_1"
							        vector="-0.294678 -0.402078 0.866890 0.000000 -0.839724 0.543013 0.294678 -0.402078 0.866890 0.773459 -0.320377 0.546918 0.516047 0.117764 0.848427 0.510491 0.666371 0.543460 0.000000 0.512715 0.858559 -0.510491 0.666371 0.543460 -0.516047 0.117764 0.848427 -0.773459 -0.320377 0.546918 -0.294678 -0.402078 -0.866890 0.000000 -0.839724 -0.543013 0.294678 -0.402078 -0.866890 0.773459 -0.320377 -0.546918 0.516047 0.117764 -0.848427 0.510491 0.666371 -0.543460 0.000000 0.512715 -0.858559 -0.510491 0.666371 -0.543460 -0.516047 0.117764 -0.848427 -0.773459 -0.320377 -0.546918 -0.577350 0.577350 0.577350 -0.577350 0.577350 -0.577350 -0.301511 0.301511 0.904534 -0.301511 0.301511 -0.904534 0.577350 0.577350 0.577350 0.577350 0.577350 -0.577350 0.577350 -0.577350 0.577350 0.577350 -0.577350 -0.577350 -0.326510 0.709905 0.624040 -0.326510 0.709905 -0.624040 -0.759378 -0.349264 0.548962 -0.759378 -0.349264 -0.548962 -0.577350 0.577350 0.577350 -0.577350 0.577350 -0.577350 -0.301511 0.301511 0.904534 -0.301511 0.301511 -0.904534 0.577350 0.577350 0.577350 0.577350 0.577350 -0.577350 0.577350 -0.577350 0.577350 0.577350 -0.577350 -0.577350 -0.327676 0.709581 0.623797 -0.327676 0.709581 -0.623797 -0.758792 -0.350402 0.549048 -0.758792 -0.350402 -0.549048 0.577350 0.577350 -0.577350 0.577350 0.577350 0.577350 0.301511 0.301511 -0.904534 0.301511 0.301511 0.904534 -0.577350 0.577350 -0.577350 -0.577350 0.577350 0.577350 -0.577350 -0.577350 -0.577350 -0.577350 -0.577350 0.577350 0.319630 0.711766 -0.625480 0.319630 0.711766 0.625480 0.762791 -0.342544 -0.548465 0.762791 -0.342544 0.548465 0.577350 0.577350 -0.577350 0.577350 0.577350 0.577350 0.301511 0.301511 -0.904534 0.301511 0.301511 0.904534 -0.577350 0.577350 -0.577350 -0.577350 0.577350 0.577350 -0.577350 -0.577350 -0.577350 -0.577350 -0.577350 0.577350 0.326510 0.709905 -0.624040 0.326510 0.709905 0.624040 0.759378 -0.349264 -0.548962 0.759378 -0.349264 0.548962 "
							        />
							<ColorRGBA color="0.086 0.012 0.204 1.000 0.075 0.012 0.522 1.000 0.522 0.314 0.004 1.000 0.522 0.314 0.004 1.000 0.839 0.506 0.004 1.000 0.522 0.314 0.004 1.000 0.741 0.035 0.584 1.000 0.839 0.506 0.004 1.000 0.075 0.012 0.522 1.000 0.741 0.035 0.584 1.000 0.655 0.027 0.204 1.000 0.655 0.027 0.204 1.000 0.655 0.027 0.204 1.000 0.655 0.027 0.204 1.000 0.655 0.027 0.204 1.000 0.655 0.027 0.204 1.000 0.655 0.027 0.204 1.000 0.655 0.027 0.204 1.000 0.655 0.027 0.204 1.000 0.655 0.027 0.204 1.000 0.655 0.027 0.204 1.000 0.655 0.027 0.204 1.000 0.655 0.027 0.204 1.000 0.655 0.027 0.204 1.000 0.075 0.012 0.522 1.000 0.655 0.027 0.204 1.000 0.839 0.506 0.004 1.000 0.655 0.027 0.204 1.000 0.741 0.035 0.584 1.000 0.075 0.012 0.522 1.000 0.741 0.035 0.584 1.000 0.655 0.027 0.204 1.000 0.522 0.314 0.004 1.000 0.655 0.027 0.204 1.000 0.075 0.012 0.522 1.000 0.655 0.027 0.204 1.000 0.839 0.506 0.004 1.000 0.655 0.027 0.204 1.000 0.741 0.035 0.584 1.000 0.075 0.012 0.522 1.000 0.741 0.035 0.584 1.000 0.655 0.027 0.204 1.000 0.522 0.314 0.004 1.000 0.655 0.027 0.204 1.000 0.839 0.506 0.004 1.000 0.655 0.027 0.204 1.000 0.075 0.012 0.522 1.000 0.655 0.027 0.204 1.000 0.741 0.035 0.584 1.000 0.839 0.506 0.004 1.000 0.741 0.035 0.584 1.000 0.655 0.027 0.204 1.000 0.522 0.314 0.004 1.000 0.655 0.027 0.204 1.000 0.839 0.506 0.004 1.000 0.655 0.027 0.204 1.000 0.075 0.012 0.522 1.000 0.655 0.027 0.204 1.000 0.741 0.035 0.584 1.000 0.839 0.506 0.004 1.000 0.741 0.035 0.584 1.000 0.655 0.027 0.204 1.000 0.522 0.314 0.004 1.000 0.655 0.027 0.204 1.000 " />
						</IndexedFaceSet>
					</Shape>
				</Group>
			</Transform>
		</Transform>
	</Scene>
</X3D>