<?xml version="1.0" encoding="UTF-8"?>
<!DOCTYPE X3D PUBLIC "ISO//Web3D//DTD X3D 3.0//EN" "http://www.web3d.org/specifications/x3d-3.0.dtd">
<X3D version="3.0" profile="Immersive" xmlns:xsd="http://www.w3.org/2001/XMLSchema-instance" xsd:noNamespaceSchemaLocation="http://www.web3d.org/specifications/x3d-3.0.xsd">
	<head>
		<meta name="filename" content="single.x3d" />
		<meta name="generator" content="Blender 4.0.2" />
	</head>
	<Scene>
		<NavigationInfo headlight="true"
		                visibilityLimit="0.0"
		                type='"EXAMINE", "ANY"'
		                avatarSize="0.25, 1.75, 0.75"
		                />
		<Background DEF="World"
		            groundColor="0.051 0.051 0.051"
		            skyColor="0.051 0.051 0.051"
		            />
		<Transform DEF="extru11_1_ifs_TRANSFORM"
		           translation="0.000000 0.000000 0.000000"
		           scale="1.000000 1.000000 1.000000"
		           rotation="0.000000 0.707107 0.707107 3.141593"
		           >
			<Group DEF="extru11_1_001">
				<Shape>
					<Appearance>
						<Material DEF="colored_polygons"
						          diffuseColor="0.800 0.800 0.800"
						          specularColor="0.401 0.401 0.401"
						          emissiveColor="0.000 0.000 0.000"
						          ambientIntensity="0.000"
						          shininess="0.500"
						          transparency="0.0"
						          />
					</Appearance>
					<IndexedFaceSet solid="false"
					                normalPerVertex="true"
					                colorPerVertex="false"
					                coordIndex="0 27 53 26 -1 1 28 27 0 -1 2 29 28 1 -1 3 30 29 2 -1 4 31 30 3 -1 5 32 31 4 -1 6 33 32 5 -1 7 34 33 6 -1 8 35 34 7 -1 9 36 35 8 -1 10 37 36 9 -1 11 38 37 10 -1 12 39 38 11 -1 13 40 39 12 -1 14 41 40 13 -1 15 42 41 14 -1 16 43 42 15 -1 17 44 43 16 -1 18 45 44 17 -1 19 46 45 18 -1 20 47 46 19 -1 21 48 47 20 -1 22 49 48 21 -1 23 50 49 22 -1 24 51 50 23 -1 25 52 51 24 -1 26 53 52 25 -1 5 4 3 6 -1 31 32 33 30 -1 28 53 27 -1 26 1 0 -1 53 28 29 52 -1 1 26 25 2 -1 52 29 30 51 -1 2 25 24 3 -1 49 50 51 48 -1 23 22 21 24 -1 8 10 9 -1 37 35 36 -1 51 30 33 48 -1 3 24 21 6 -1 46 44 45 -1 17 19 18 -1 37 34 35 -1 17 20 19 -1 47 44 46 -1 7 10 8 -1 12 11 10 13 -1 38 39 40 37 -1 42 43 44 41 -1 16 15 14 17 -1 48 44 47 -1 6 10 7 -1 40 41 44 37 -1 14 13 10 17 -1 37 33 34 -1 44 48 33 37 -1 17 21 20 -1 10 6 21 17 -1 54 64 73 63 -1 55 65 64 54 -1 56 66 65 55 -1 57 67 66 56 -1 58 68 67 57 -1 59 69 68 58 -1 60 70 69 59 -1 61 71 70 60 -1 62 72 71 61 -1 63 73 72 62 -1 60 62 61 -1 72 70 71 -1 64 72 73 -1 66 64 65 -1 68 66 67 -1 70 68 69 -1 64 70 72 -1 58 60 59 -1 56 58 57 -1 54 56 55 -1 62 54 63 -1 58 56 54 60 -1 66 68 70 64 -1 60 54 62 -1 "
					                >
						<Coordinate DEF="coords_extru11_1_001"
						            point="64.000000 -92.000000 25.000000 42.000000 -89.000000 25.000000 -40.000000 13.000000 25.000000 -58.000000 19.000000 25.000000 -52.000000 9.000000 25.000000 -62.000000 3.000000 25.000000 -79.000000 27.000000 25.000000 -88.000000 30.000000 25.000000 -107.000000 60.000000 25.000000 -101.000000 100.000000 25.000000 -82.000000 72.000000 25.000000 -92.000000 105.000000 25.000000 -80.000000 115.000000 25.000000 -72.000000 110.000000 25.000000 -52.000000 122.000000 25.000000 -54.000000 130.000000 25.000000 -39.000000 137.000000 25.000000 -12.000000 115.000000 25.000000 -28.000000 140.000000 25.000000 7.000000 130.000000 25.000000 28.000000 99.000000 25.000000 26.000000 87.000000 25.000000 42.000000 63.000000 25.000000 32.000000 55.000000 25.000000 21.000000 69.000000 25.000000 19.000000 53.000000 25.000000 71.000000 -73.000000 25.000000 64.000000 -92.000000 -25.000000 42.000000 -89.000000 -25.000000 -40.000000 13.000000 -25.000000 -58.000000 19.000000 -25.000000 -52.000000 9.000000 -25.000000 -62.000000 3.000000 -25.000000 -79.000000 27.000000 -25.000000 -88.000000 30.000000 -25.000000 -107.000000 60.000000 -25.000000 -101.000000 100.000000 -25.000000 -82.000000 72.000000 -25.000000 -92.000000 105.000000 -25.000000 -80.000000 115.000000 -25.000000 -72.000000 110.000000 -25.000000 -52.000000 122.000000 -25.000000 -54.000000 130.000000 -25.000000 -39.000000 137.000000 -25.000000 -12.000000 115.000000 -25.000000 -28.000000 140.000000 -25.000000 7.000000 130.000000 -25.000000 28.000000 99.000000 -25.000000 26.000000 87.000000 -25.000000 42.000000 63.000000 -25.000000 32.000000 55.000000 -25.000000 21.000000 69.000000 -25.000000 19.000000 53.000000 -25.000000 71.000000 -73.000000 -25.000000 63.000000 -117.000000 25.000000 51.000000 -100.000000 25.000000 69.000000 -102.000000 25.000000 76.000000 -84.000000 25.000000 84.000000 -103.000000 25.000000 107.000000 -108.000000 25.000000 89.000000 -118.000000 25.000000 92.000000 -140.000000 25.000000 75.000000 -127.000000 25.000000 56.000000 -135.000000 25.000000 63.000000 -117.000000 -25.000000 51.000000 -100.000000 -25.000000 69.000000 -102.000000 -25.000000 76.000000 -84.000000 -25.000000 84.000000 -103.000000 -25.000000 107.000000 -108.000000 -25.000000 89.000000 -118.000000 -25.000000 92.000000 -140.000000 -25.000000 75.000000 -127.000000 -25.000000 56.000000 -135.000000 -25.000000 "
						            />
						<Normal DEF="normals_extru11_1_001"
						        vector="0.416033 -0.692259 0.589656 -0.381216 -0.674228 0.632527 -0.359830 -0.517358 0.776442 0.149683 -0.120072 0.981416 0.792118 -0.198030 0.577350 -0.167244 -0.796210 0.581446 -0.369568 -0.498317 0.784283 -0.474139 -0.605915 0.638795 -0.754837 -0.159184 0.636303 -0.185827 0.816968 0.545923 -0.033917 0.071079 0.996894 -0.765389 0.229162 0.601386 -0.054621 0.801194 0.595907 0.004855 0.534086 0.845416 -0.458405 0.189878 0.868223 -0.730160 0.347853 0.588103 0.098134 0.790301 0.604809 -0.055263 0.061976 0.996547 -0.672349 0.500480 0.545405 0.451839 0.623836 0.637707 0.756845 0.165380 0.632325 0.586691 0.125924 0.799960 0.803527 -0.124752 0.582049 -0.093763 -0.811422 0.576890 0.057521 -0.207187 0.976609 0.633244 0.085060 0.769263 0.773452 0.014858 0.633681 0.416033 -0.692259 -0.589656 -0.381216 -0.674228 -0.632527 -0.359830 -0.517358 -0.776442 0.149683 -0.120072 -0.981416 0.792118 -0.198030 -0.577350 -0.167244 -0.796210 -0.581446 -0.369568 -0.498317 -0.784283 -0.474139 -0.605915 -0.638795 -0.754837 -0.159184 -0.636303 -0.185827 0.816968 -0.545923 -0.033917 0.071079 -0.996894 -0.765389 0.229162 -0.601386 -0.054621 0.801194 -0.595907 0.004855 0.534086 -0.845416 -0.458405 0.189878 -0.868223 -0.730160 0.347853 -0.588103 0.098134 0.790301 -0.604809 -0.055263 0.061976 -0.996547 -0.672349 0.500480 -0.545405 0.451839 0.623836 -0.637707 0.756845 0.165380 -0.632325 0.586691 0.125924 -0.799960 0.803527 -0.124752 -0.582049 -0.093763 -0.811422 -0.576890 0.057521 -0.207187 -0.976609 0.633244 0.085060 -0.769263 0.773452 0.014858 -0.633681 -0.552848 -0.067720 0.830526 -0.719997 0.425149 0.548501 -0.252965 0.417618 0.872699 -0.011569 0.837368 0.546517 0.359303 0.432544 0.826926 0.829222 0.122374 0.545358 0.458656 -0.229579 0.858446 0.420892 -0.723749 0.546843 -0.068972 -0.539470 0.839175 -0.583559 -0.599910 0.547328 -0.552848 -0.067720 -0.830526 -0.719997 0.425149 -0.548501 -0.252965 0.417618 -0.872699 -0.011569 0.837368 -0.546517 0.359303 0.432544 -0.826926 0.829222 0.122374 -0.545358 0.458656 -0.229579 -0.858446 0.420892 -0.723749 -0.546843 -0.068972 -0.539470 -0.839175 -0.583559 -0.599910 -0.547328 "
						        />
						<ColorRGBA color="0.004 0.000 0.239 1.000 0.012 0.004 0.925 1.000 0.012 0.004 1.000 1.000 0.004 0.000 0.239 1.000 0.004 0.000 0.239 1.000 0.012 0.004 1.000 1.000 0.012 0.004 1.000 1.000 0.012 0.004 1.000 1.000 0.012 0.004 1.000 1.000 0.004 0.000 0.239 1.000 0.004 0.000 0.239 1.000 0.004 0.000 0.239 1.000 0.004 0.000 0.239 1.000 0.004 0.000 0.239 1.000 0.004 0.000 0.239 1.000 0.004 0.000 0.239 1.000 0.004 0.000 0.239 1.000 0.004 0.000 0.239 1.000 0.004 0.000 0.239 1.000 0.004 0.000 0.239 1.000 0.008 0.004 0.498 1.000 0.008 0.004 0.498 1.000 0.008 0.004 0.498 1.000 0.012 0.004 1.000 1.000 0.004 0.000 0.239 1.000 0.004 0.000 0.239 1.000 0.008 0.004 0.498 1.000 0.012 0.004 0.925 1.000 0.012 0.004 0.925 1.000 0.012 0.004 0.925 1.000 0.012 0.004 0.925 1.000 0.012 0.004 0.925 1.000 0.012 0.004 0.925 1.000 0.012 0.004 0.925 1.000 0.012 0.004 0.925 1.000 0.012 0.004 0.925 1.000 0.012 0.004 0.925 1.000 0.012 0.004 0.925 1.000 0.012 0.004 0.925 1.000 0.012 0.004 0.925 1.000 0.012 0.004 0.925 1.000 0.012 0.004 0.925 1.000 0.012 0.004 0.925 1.000 0.012 0.004 0.925 1.000 0.012 0.004 0.925 1.000 0.012 0.004 0.925 1.000 0.012 0.004 0.925 1.000 0.012 0.004 0.925 1.000 0.012 0.004 0.925 1.000 0.012 0.004 0.925 1.000 0.012 0.004 0.925 1.000 0.012 0.004 0.925 1.000 0.012 0.004 0.925 1.000 0.012 0.004 0.925 1.000 0.012 0.004 0.925 1.000 0.012 0.004 0.925 1.000 0.012 0.004 0.925 1.000 0.012 0.004 0.925 1.000 0.012 0.004 0.925 1.000 0.012 0.004 0.925 1.000 0.012 0.004 1.000 1.000 0.004 0.000 0.239 1.000 0.004 0.000 0.239 1.000 0.008 0.004 0.498 1.000 0.008 0.004 0.498 1.000 0.012 0.004 0.925 1.000 0.008 0.004 0.498 1.000 0.012 0.004 1.000 1.000 0.012 0.004 1.000 1.000 0.012 0.004 0.925 1.000 0.012 0.004 0.925 1.000 0.012 0.004 0.925 1.000 0.012 0.004 0.925 1.000 0.012 0.004 0.925 1.000 0.012 0.004 0.925 1.000 0.012 0.004 0.925 1.000 0.012 0.004 0.925 1.000 0.012 0.004 0.925 1.000 0.012 0.004 0.925 1.000 0.012 0.004 0.925 1.000 0.012 0.004 0.925 1.000 0.012 0.004 0.925 1.000 0.012 0.004 0.925 1.000 " />
					</IndexedFaceSet>
				</Shape>
			</Group>
		</Transform>
	</Scene>
</X3D>