<?xml version="1.0" encoding="UTF-8"?>
<!DOCTYPE X3D PUBLIC "ISO//Web3D//DTD X3D 3.0//EN" "http://www.web3d.org/specifications/x3d-3.0.dtd">
<X3D version="3.0" profile="Immersive" xmlns:xsd="http://www.w3.org/2001/XMLSchema-instance" xsd:noNamespaceSchemaLocation="http://www.web3d.org/specifications/x3d-3.0.xsd">
	<head>
		<meta name="filename" content="venom.x3d" />
		<meta name="generator" content="Blender 4.0.2" />
	</head>
	<Scene>
		<NavigationInfo headlight="true"
		                visibilityLimit="0.0"
		                type='"EXAMINE", "ANY"'
		                avatarSize="0.25, 1.75, 0.75"
		                />
		<Background DEF="WO_World"
		            groundColor="0.051 0.051 0.051"
		            skyColor="0.051 0.051 0.051"
		            />
		<Transform DEF="venom_TRANSFORM"
		           translation="0.000000 0.000000 0.000000"
		           scale="1.000000 1.000000 1.000000"
		           rotation="0.000000 0.707107 0.707107 3.141593"
		           >
			<Transform DEF="venom_ifs_TRANSFORM"
			           translation="0.000000 0.000000 0.000000"
			           scale="1.000000 1.000000 1.000000"
			           rotation="0.000000 1.000000 0.000000 0.000000"
			           >
				<Group DEF="group_ME_extru3">
					<Shape>
						<Appearance>
							<Material DEF="MA_colored_polygons_001"
							          diffuseColor="0.800 0.800 0.800"
							          specularColor="0.401 0.401 0.401"
							          emissiveColor="0.000 0.000 0.000"
							          ambientIntensity="0.000"
							          shininess="0.500"
							          transparency="0.0"
							          />
						</Appearance>
						<IndexedFaceSet solid="false"
						                normalPerVertex="true"
						                colorPerVertex="false"
						                coordIndex="1 3 2 -1 15 13 14 -1 11 1 0 -1 13 23 12 -1 23 21 22 -1 9 11 10 -1 21 19 20 -1 7 9 8 -1 19 17 18 -1 5 7 6 -1 17 15 16 -1 3 5 4 -1 21 23 13 -1 3 1 11 -1 15 17 19 -1 9 7 5 -1 39 41 42 -1 40 69 68 -1 54 67 66 65 -1 58 57 56 26 51 -1 106 97 98 105 -1 47 49 27 28 29 -1 61 60 50 -1 45 31 32 -1 59 55 50 60 -1 31 45 46 30 -1 62 61 50 48 -1 44 45 32 33 -1 62 48 54 63 -1 34 43 44 33 -1 35 36 43 34 -1 54 65 64 63 -1 81 80 79 -1 100 101 102 -1 76 75 86 85 -1 109 110 111 93 94 -1 84 77 76 85 -1 106 107 96 97 -1 37 38 43 36 -1 104 105 98 -1 77 84 83 -1 13 12 0 1 -1 14 13 1 2 -1 15 14 2 3 -1 16 15 3 4 -1 17 16 4 5 -1 18 17 5 6 -1 19 18 6 7 -1 20 19 7 8 -1 21 20 8 9 -1 22 21 9 10 -1 23 22 10 11 -1 24 52 25 53 -1 26 56 53 25 -1 21 13 15 19 -1 56 27 24 53 -1 28 27 56 57 -1 29 28 57 58 -1 30 29 58 59 -1 32 31 60 61 -1 92 93 111 91 -1 33 32 61 62 -1 34 33 62 63 -1 35 34 63 64 -1 36 35 64 65 -1 37 36 65 66 -1 38 37 66 67 -1 39 38 67 68 -1 69 41 39 68 -1 42 41 69 40 -1 43 42 40 54 -1 44 43 54 48 -1 45 44 48 50 -1 46 45 50 55 -1 47 46 55 51 -1 26 49 47 51 -1 25 52 49 26 -1 91 111 90 70 -1 40 68 67 54 -1 103 104 98 99 -1 24 27 49 52 -1 46 47 29 30 -1 59 58 51 55 -1 92 91 70 71 -1 93 92 71 72 -1 94 93 72 73 -1 95 94 73 74 -1 96 95 74 75 -1 97 96 75 76 -1 98 97 76 77 -1 99 98 77 78 -1 100 99 78 79 -1 101 100 79 80 -1 102 101 80 81 -1 103 102 81 82 -1 104 103 82 83 -1 105 104 83 84 -1 106 105 84 85 -1 107 106 85 86 -1 108 107 86 87 -1 109 108 87 88 -1 110 109 88 89 -1 111 110 89 90 -1 31 30 59 60 -1 74 73 88 87 -1 78 82 81 79 -1 90 72 71 70 -1 3 11 9 5 -1 100 102 103 99 -1 43 38 39 42 -1 108 109 94 95 -1 75 74 87 86 -1 78 77 83 82 -1 107 108 95 96 -1 12 23 11 0 -1 73 72 90 89 88 -1 "
						                >
							<Coordinate DEF="coords_ME_extru3"
							            point="46.000000 -128.000000 15.000000 35.000000 -89.000000 15.000000 -8.000000 -89.000000 15.000000 24.000000 -67.000000 15.000000 7.000000 -29.000000 15.000000 35.000000 -45.000000 15.000000 51.000000 -12.000000 15.000000 62.000000 -45.000000 15.000000 90.000000 -29.000000 15.000000 73.000000 -67.000000 15.000000 101.000000 -89.000000 15.000000 62.000000 -89.000000 15.000000 46.000000 -128.000000 -15.000000 35.000000 -89.000000 -15.000000 -8.000000 -89.000000 -15.000000 24.000000 -67.000000 -15.000000 7.000000 -29.000000 -15.000000 35.000000 -45.000000 -15.000000 51.000000 -12.000000 -15.000000 62.000000 -45.000000 -15.000000 90.000000 -29.000000 -15.000000 73.000000 -67.000000 -15.000000 101.000000 -89.000000 -15.000000 62.000000 -89.000000 -15.000000 -101.000000 0.000000 15.000000 -101.000000 46.000000 -15.000000 -59.000000 46.000000 -15.000000 -50.000000 0.000000 15.000000 -33.000000 4.000000 15.000000 -19.000000 12.000000 15.000000 -11.000000 25.000000 15.000000 -8.000000 50.000000 15.000000 -8.000000 63.000000 15.000000 -14.000000 75.000000 15.000000 -26.000000 86.000000 15.000000 -39.000000 91.000000 15.000000 -51.000000 91.000000 15.000000 -62.000000 89.000000 15.000000 -72.000000 83.000000 15.000000 -79.000000 75.000000 15.000000 -75.000000 67.000000 -15.000000 -83.000000 61.000000 15.000000 -75.000000 67.000000 15.000000 -66.000000 69.000000 15.000000 -56.000000 66.000000 15.000000 -51.000000 61.000000 15.000000 -50.000000 54.000000 15.000000 -53.000000 49.000000 15.000000 -56.000000 66.000000 -15.000000 -59.000000 46.000000 15.000000 -51.000000 61.000000 -15.000000 -53.000000 49.000000 -15.000000 -101.000000 46.000000 15.000000 -101.000000 0.000000 -15.000000 -66.000000 69.000000 -15.000000 -50.000000 54.000000 -15.000000 -50.000000 0.000000 -15.000000 -33.000000 4.000000 -15.000000 -19.000000 12.000000 -15.000000 -11.000000 25.000000 -15.000000 -8.000000 50.000000 -15.000000 -8.000000 63.000000 -15.000000 -14.000000 75.000000 -15.000000 -26.000000 86.000000 -15.000000 -39.000000 91.000000 -15.000000 -51.000000 91.000000 -15.000000 -62.000000 89.000000 -15.000000 -72.000000 83.000000 -15.000000 -79.000000 75.000000 -15.000000 -83.000000 61.000000 -15.000000 98.000000 -9.000000 15.000000 0.000000 -9.000000 15.000000 0.000000 68.000000 15.000000 0.000000 73.000000 15.000000 -6.000000 83.000000 15.000000 -17.000000 92.000000 15.000000 -28.000000 97.000000 15.000000 -42.000000 99.000000 15.000000 -59.000000 97.000000 15.000000 -77.000000 87.000000 15.000000 -88.000000 81.000000 15.000000 -83.000000 91.000000 15.000000 -70.000000 108.000000 15.000000 -52.000000 119.000000 15.000000 -33.000000 127.000000 15.000000 2.000000 128.000000 15.000000 39.000000 123.000000 15.000000 58.000000 114.000000 15.000000 74.000000 101.000000 15.000000 91.000000 79.000000 15.000000 99.000000 57.000000 15.000000 98.000000 -9.000000 -15.000000 0.000000 -9.000000 -15.000000 0.000000 68.000000 -15.000000 0.000000 73.000000 -15.000000 -6.000000 83.000000 -15.000000 -17.000000 92.000000 -15.000000 -28.000000 97.000000 -15.000000 -42.000000 99.000000 -15.000000 -59.000000 97.000000 -15.000000 -77.000000 87.000000 -15.000000 -88.000000 81.000000 -15.000000 -83.000000 91.000000 -15.000000 -70.000000 108.000000 -15.000000 -52.000000 119.000000 -15.000000 -33.000000 127.000000 -15.000000 2.000000 128.000000 -15.000000 39.000000 123.000000 -15.000000 58.000000 114.000000 -15.000000 74.000000 101.000000 -15.000000 91.000000 79.000000 -15.000000 99.000000 57.000000 -15.000000 "
							            />
							<Normal DEF="normals_ME_extru3"
							        vector="-0.047969 -0.837655 0.544089 -0.296687 -0.391943 0.870837 -0.802049 -0.249108 0.542829 -0.452654 0.127190 0.882568 -0.563662 0.622097 0.543397 -0.121026 0.391108 0.912353 0.054268 0.835626 0.546611 0.134164 0.351156 0.926655 0.563662 0.622097 0.543397 0.470730 0.116235 0.874587 0.792918 -0.274241 0.544126 0.287805 -0.429157 0.856150 -0.047969 -0.837655 -0.544089 -0.296687 -0.391943 -0.870837 -0.802049 -0.249108 -0.542829 -0.452654 0.127190 -0.882568 -0.563662 0.622097 -0.543397 -0.121026 0.391108 -0.912353 0.054268 0.835626 -0.546611 0.134164 0.351156 -0.926655 0.563662 0.622097 -0.543397 0.470730 0.116235 -0.874587 0.792918 -0.274241 -0.544126 0.287805 -0.429157 -0.856150 -0.577350 -0.577350 0.577350 -0.577350 0.577350 -0.577350 -0.148604 0.629498 -0.762659 0.084310 -0.726424 0.682055 0.269926 -0.685504 0.676183 0.525296 -0.542656 0.655430 0.707809 -0.246833 0.661876 0.718771 -0.042972 0.693918 0.732137 0.172834 0.658865 0.593793 0.447899 0.668428 0.392098 0.633031 0.667481 0.135814 0.731451 0.668233 -0.065220 0.723306 0.687441 -0.261963 0.695676 0.668887 -0.473868 0.566962 0.673797 -0.658982 0.358776 0.661077 0.272656 -0.592814 -0.757780 -0.475804 -0.691323 0.543767 0.272656 -0.592814 0.757780 -0.023279 -0.639370 0.768547 -0.329340 -0.551386 0.766491 -0.553328 -0.276664 0.785675 -0.600072 0.121179 0.790715 -0.428738 0.462984 0.775777 -0.329340 -0.551386 -0.766491 -0.148604 0.629498 0.762659 -0.553328 -0.276664 -0.785675 -0.428738 0.462984 -0.775777 -0.577350 0.577350 0.577350 -0.577350 -0.577350 -0.577350 -0.023279 -0.639370 -0.768547 -0.600072 0.121179 -0.790715 0.084310 -0.726424 -0.682055 0.269926 -0.685504 -0.676183 0.525296 -0.542656 -0.655430 0.707809 -0.246833 -0.661876 0.718771 -0.042972 -0.693918 0.732137 0.172834 -0.658865 0.593793 0.447899 -0.668428 0.392098 0.633031 -0.667481 0.135814 0.731451 -0.668233 -0.065220 0.723306 -0.687441 -0.261963 0.695676 -0.668887 -0.473868 0.566962 -0.673797 -0.658982 0.358776 -0.661077 -0.475804 -0.691323 -0.543767 0.572562 -0.581303 0.578151 -0.577350 -0.577350 0.577350 -0.707107 0.000000 0.707107 -0.612081 -0.169537 0.772408 -0.502292 -0.434136 0.747816 -0.356618 -0.573675 0.737374 -0.188484 -0.645106 0.740481 -0.008372 -0.675445 0.737362 0.201901 -0.625763 0.753430 0.341423 -0.620211 0.706235 -0.583117 -0.604314 0.542935 -0.616779 0.385185 0.686451 -0.498051 0.552906 0.668012 -0.329813 0.643635 0.690621 -0.157714 0.727296 0.667957 0.038294 0.723514 0.689246 0.210033 0.708101 0.674151 0.390366 0.619411 0.681135 0.523350 0.510719 0.682107 0.647080 0.356304 0.674043 0.733341 0.123476 0.668555 0.572562 -0.581303 -0.578151 -0.577350 -0.577350 -0.577350 -0.707107 0.000000 -0.707107 -0.612081 -0.169537 -0.772408 -0.502292 -0.434136 -0.747816 -0.356618 -0.573675 -0.737374 -0.188484 -0.645106 -0.740481 -0.008372 -0.675445 -0.737362 0.201901 -0.625763 -0.753430 0.341423 -0.620211 -0.706235 -0.583117 -0.604314 -0.542935 -0.616779 0.385185 -0.686451 -0.498051 0.552906 -0.668012 -0.329813 0.643635 -0.690621 -0.157714 0.727296 -0.667957 0.038294 0.723514 -0.689246 0.210033 0.708101 -0.674151 0.390366 0.619411 -0.681135 0.523350 0.510719 -0.682107 0.647080 0.356304 -0.674043 0.733341 0.123476 -0.668555 "
							        />
							<ColorRGBA color="0.655 0.024 0.204 1.000 0.655 0.024 0.204 1.000 0.655 0.024 0.204 1.000 0.655 0.024 0.204 1.000 0.655 0.024 0.204 1.000 0.655 0.024 0.204 1.000 0.655 0.024 0.204 1.000 0.655 0.024 0.204 1.000 0.655 0.024 0.204 1.000 0.655 0.024 0.204 1.000 0.655 0.024 0.204 1.000 0.655 0.024 0.204 1.000 0.655 0.024 0.204 1.000 0.655 0.024 0.204 1.000 0.655 0.024 0.204 1.000 0.655 0.024 0.204 1.000 0.655 0.024 0.204 1.000 0.655 0.024 0.204 1.000 0.655 0.024 0.204 1.000 0.655 0.024 0.204 1.000 0.655 0.024 0.204 1.000 0.655 0.024 0.204 1.000 0.655 0.024 0.204 1.000 0.655 0.024 0.204 1.000 0.655 0.024 0.204 1.000 0.655 0.024 0.204 1.000 0.655 0.024 0.204 1.000 0.655 0.024 0.204 1.000 0.655 0.024 0.204 1.000 0.655 0.024 0.204 1.000 0.655 0.024 0.204 1.000 0.655 0.024 0.204 1.000 0.655 0.024 0.204 1.000 0.655 0.024 0.204 1.000 0.655 0.024 0.204 1.000 0.655 0.024 0.204 1.000 0.655 0.024 0.204 1.000 0.655 0.024 0.204 1.000 0.655 0.024 0.204 1.000 0.655 0.024 0.204 1.000 0.655 0.024 0.204 1.000 0.071 0.004 0.522 1.000 0.176 0.000 0.361 1.000 0.741 0.035 0.584 1.000 0.176 0.000 0.361 1.000 0.839 0.506 0.000 1.000 0.741 0.035 0.584 1.000 0.839 0.506 0.000 1.000 0.741 0.035 0.584 1.000 0.522 0.314 0.000 1.000 0.839 0.506 0.000 1.000 0.522 0.314 0.000 1.000 0.071 0.004 0.522 1.000 0.655 0.024 0.204 1.000 0.655 0.024 0.204 1.000 0.522 0.314 0.000 1.000 0.522 0.314 0.000 1.000 0.839 0.506 0.000 1.000 0.839 0.506 0.000 1.000 0.839 0.506 0.000 1.000 0.655 0.024 0.204 1.000 0.839 0.506 0.000 1.000 0.839 0.506 0.000 1.000 0.839 0.506 0.000 1.000 0.741 0.035 0.584 1.000 0.741 0.035 0.584 1.000 0.741 0.035 0.584 1.000 0.741 0.035 0.584 1.000 0.533 0.000 0.741 1.000 0.741 0.035 0.584 1.000 0.741 0.035 0.584 1.000 0.741 0.035 0.584 1.000 0.071 0.004 0.522 1.000 0.071 0.004 0.522 1.000 0.741 0.035 0.584 1.000 0.741 0.035 0.584 1.000 0.741 0.035 0.584 1.000 0.839 0.506 0.000 1.000 0.655 0.024 0.204 1.000 0.655 0.024 0.204 1.000 0.655 0.024 0.204 1.000 0.655 0.024 0.204 1.000 0.655 0.024 0.204 1.000 0.522 0.314 0.000 1.000 0.071 0.004 0.522 1.000 0.071 0.004 0.522 1.000 0.071 0.004 0.522 1.000 0.071 0.004 0.522 1.000 0.741 0.035 0.584 1.000 0.741 0.035 0.584 1.000 0.741 0.035 0.584 1.000 0.741 0.035 0.584 1.000 0.741 0.035 0.584 1.000 0.533 0.000 0.741 1.000 0.741 0.035 0.584 1.000 0.741 0.035 0.584 1.000 0.741 0.035 0.584 1.000 0.741 0.035 0.584 1.000 0.839 0.506 0.000 1.000 0.839 0.506 0.000 1.000 0.839 0.506 0.000 1.000 0.839 0.506 0.000 1.000 0.839 0.506 0.000 1.000 0.839 0.506 0.000 1.000 0.655 0.024 0.204 1.000 0.655 0.024 0.204 1.000 0.655 0.024 0.204 1.000 0.655 0.024 0.204 1.000 0.655 0.024 0.204 1.000 0.655 0.024 0.204 1.000 0.655 0.024 0.204 1.000 0.655 0.024 0.204 1.000 0.655 0.024 0.204 1.000 0.655 0.024 0.204 1.000 0.522 0.314 0.000 1.000 0.655 0.024 0.204 1.000 " />
						</IndexedFaceSet>
					</Shape>
				</Group>
			</Transform>
		</Transform>
	</Scene>
</X3D>